%TF.GenerationSoftware,KiCad,Pcbnew,8.0.1*%
%TF.CreationDate,2024-11-23T22:58:23-06:00*%
%TF.ProjectId,BPS-ContactorPCB,4250532d-436f-46e7-9461-63746f725043,rev?*%
%TF.SameCoordinates,Original*%
%TF.FileFunction,Copper,L2,Bot*%
%TF.FilePolarity,Positive*%
%FSLAX46Y46*%
G04 Gerber Fmt 4.6, Leading zero omitted, Abs format (unit mm)*
G04 Created by KiCad (PCBNEW 8.0.1) date 2024-11-23 22:58:23*
%MOMM*%
%LPD*%
G01*
G04 APERTURE LIST*
G04 Aperture macros list*
%AMRoundRect*
0 Rectangle with rounded corners*
0 $1 Rounding radius*
0 $2 $3 $4 $5 $6 $7 $8 $9 X,Y pos of 4 corners*
0 Add a 4 corners polygon primitive as box body*
4,1,4,$2,$3,$4,$5,$6,$7,$8,$9,$2,$3,0*
0 Add four circle primitives for the rounded corners*
1,1,$1+$1,$2,$3*
1,1,$1+$1,$4,$5*
1,1,$1+$1,$6,$7*
1,1,$1+$1,$8,$9*
0 Add four rect primitives between the rounded corners*
20,1,$1+$1,$2,$3,$4,$5,0*
20,1,$1+$1,$4,$5,$6,$7,0*
20,1,$1+$1,$6,$7,$8,$9,0*
20,1,$1+$1,$8,$9,$2,$3,0*%
G04 Aperture macros list end*
%TA.AperFunction,ComponentPad*%
%ADD10C,1.700000*%
%TD*%
%TA.AperFunction,SMDPad,CuDef*%
%ADD11RoundRect,0.250000X0.262500X0.450000X-0.262500X0.450000X-0.262500X-0.450000X0.262500X-0.450000X0*%
%TD*%
%TA.AperFunction,SMDPad,CuDef*%
%ADD12RoundRect,0.150000X0.662500X0.150000X-0.662500X0.150000X-0.662500X-0.150000X0.662500X-0.150000X0*%
%TD*%
%TA.AperFunction,SMDPad,CuDef*%
%ADD13RoundRect,0.250000X-0.262500X-0.450000X0.262500X-0.450000X0.262500X0.450000X-0.262500X0.450000X0*%
%TD*%
%TA.AperFunction,SMDPad,CuDef*%
%ADD14RoundRect,0.250000X0.450000X-0.262500X0.450000X0.262500X-0.450000X0.262500X-0.450000X-0.262500X0*%
%TD*%
%TA.AperFunction,SMDPad,CuDef*%
%ADD15RoundRect,0.150000X0.587500X0.150000X-0.587500X0.150000X-0.587500X-0.150000X0.587500X-0.150000X0*%
%TD*%
%TA.AperFunction,ViaPad*%
%ADD16C,0.600000*%
%TD*%
%TA.AperFunction,Conductor*%
%ADD17C,2.000000*%
%TD*%
%TA.AperFunction,Conductor*%
%ADD18C,0.500000*%
%TD*%
G04 APERTURE END LIST*
D10*
X110000000Y-109950000D03*
X113000000Y-109950000D03*
X110000000Y-86950000D03*
X113000000Y-86950000D03*
X125500000Y-109960000D03*
X128500000Y-109960000D03*
X131500000Y-109960000D03*
X134500000Y-109960000D03*
X125500000Y-98450000D03*
X128500000Y-98450000D03*
X131500000Y-98450000D03*
X134500000Y-98450000D03*
X110000000Y-98460000D03*
X113000000Y-98460000D03*
X125500000Y-86950000D03*
X128500000Y-86950000D03*
X131500000Y-86950000D03*
X134500000Y-86950000D03*
D11*
X103912500Y-103500000D03*
X102087500Y-103500000D03*
X142412500Y-92000000D03*
X140587500Y-92000000D03*
D12*
X135187500Y-91865000D03*
X135187500Y-93135000D03*
X128812500Y-93135000D03*
X128812500Y-91865000D03*
D13*
X140587500Y-96000000D03*
X142412500Y-96000000D03*
D14*
X112600000Y-104512500D03*
X112600000Y-102687500D03*
D15*
X107937500Y-102550000D03*
X107937500Y-104450000D03*
X106062500Y-103500000D03*
X108000000Y-91000000D03*
X108000000Y-92900000D03*
X106125000Y-91950000D03*
D11*
X103912500Y-92000000D03*
X102087500Y-92000000D03*
D13*
X140587500Y-105000000D03*
X142412500Y-105000000D03*
D14*
X112500000Y-92912500D03*
X112500000Y-91087500D03*
D16*
X142412500Y-96000000D03*
X102000000Y-89000000D03*
X142500000Y-109500000D03*
X142500000Y-100500000D03*
X102000000Y-95500000D03*
X142412500Y-105000000D03*
X102087500Y-103500000D03*
X102087500Y-92000000D03*
X107000000Y-94000000D03*
X107000000Y-105500000D03*
X112500000Y-91000000D03*
D17*
X112050000Y-89000000D02*
X110000000Y-86950000D01*
X123450000Y-89000000D02*
X112050000Y-89000000D01*
X125500000Y-86950000D02*
X123450000Y-89000000D01*
D18*
X108000000Y-92900000D02*
X108000000Y-93000000D01*
X108000000Y-93000000D02*
X107000000Y-94000000D01*
X107000000Y-105500000D02*
X107937500Y-104562500D01*
X107937500Y-104562500D02*
X107937500Y-104450000D01*
X131500000Y-86950000D02*
X128812500Y-89637500D01*
X128812500Y-89637500D02*
X128812500Y-91865000D01*
X129624999Y-93135000D02*
X134500000Y-88259999D01*
X134500000Y-88259999D02*
X134500000Y-86950000D01*
X128812500Y-93135000D02*
X129624999Y-93135000D01*
X112500000Y-91000000D02*
X108000000Y-91000000D01*
X112500000Y-102687500D02*
X112500000Y-98960000D01*
D17*
X125490000Y-98460000D02*
X125500000Y-98450000D01*
D18*
X107975000Y-102587500D02*
X112400000Y-102587500D01*
X112400000Y-102587500D02*
X112500000Y-102687500D01*
X107937500Y-102550000D02*
X107975000Y-102587500D01*
D17*
X113000000Y-98460000D02*
X125490000Y-98460000D01*
D18*
X112500000Y-98960000D02*
X113000000Y-98460000D01*
X140587500Y-96000000D02*
X140587500Y-93825000D01*
X140587500Y-96000000D02*
X138137500Y-98450000D01*
X138137500Y-98450000D02*
X134500000Y-98450000D01*
X140587500Y-93825000D02*
X142412500Y-92000000D01*
X140587500Y-105000000D02*
X138894868Y-105000000D01*
X138894868Y-105000000D02*
X134500000Y-109394868D01*
X134500000Y-109394868D02*
X134500000Y-109960000D01*
X106062500Y-103500000D02*
X103912500Y-103500000D01*
X106125000Y-91950000D02*
X103962500Y-91950000D01*
X103962500Y-91950000D02*
X103912500Y-92000000D01*
X140452500Y-91865000D02*
X140587500Y-92000000D01*
X135187500Y-91865000D02*
X140452500Y-91865000D01*
%TA.AperFunction,Conductor*%
G36*
X141503244Y-80000670D02*
G01*
X141807046Y-80016592D01*
X141819953Y-80017949D01*
X141951089Y-80038718D01*
X142117209Y-80065028D01*
X142129896Y-80067724D01*
X142420625Y-80145625D01*
X142432965Y-80149635D01*
X142713938Y-80257490D01*
X142725790Y-80262767D01*
X142993968Y-80399411D01*
X143005199Y-80405896D01*
X143257608Y-80569812D01*
X143268109Y-80577441D01*
X143502010Y-80766850D01*
X143511655Y-80775535D01*
X143724464Y-80988344D01*
X143733149Y-80997989D01*
X143922558Y-81231890D01*
X143930187Y-81242391D01*
X144094101Y-81494796D01*
X144100591Y-81506036D01*
X144237231Y-81774206D01*
X144242510Y-81786064D01*
X144350363Y-82067033D01*
X144354374Y-82079376D01*
X144432273Y-82370097D01*
X144434971Y-82382794D01*
X144482050Y-82680046D01*
X144483407Y-82692953D01*
X144499330Y-82996756D01*
X144499500Y-83003246D01*
X144499500Y-112996753D01*
X144499330Y-113003243D01*
X144483407Y-113307046D01*
X144482050Y-113319953D01*
X144434971Y-113617205D01*
X144432273Y-113629902D01*
X144354374Y-113920623D01*
X144350363Y-113932966D01*
X144242510Y-114213935D01*
X144237231Y-114225793D01*
X144100591Y-114493963D01*
X144094101Y-114505203D01*
X143930187Y-114757608D01*
X143922558Y-114768109D01*
X143733149Y-115002010D01*
X143724464Y-115011655D01*
X143511655Y-115224464D01*
X143502010Y-115233149D01*
X143268109Y-115422558D01*
X143257608Y-115430187D01*
X143005203Y-115594101D01*
X142993963Y-115600591D01*
X142725793Y-115737231D01*
X142713935Y-115742510D01*
X142432966Y-115850363D01*
X142420623Y-115854374D01*
X142129902Y-115932273D01*
X142117205Y-115934971D01*
X141819953Y-115982050D01*
X141807046Y-115983407D01*
X141503244Y-115999330D01*
X141496754Y-115999500D01*
X103003246Y-115999500D01*
X102996756Y-115999330D01*
X102692953Y-115983407D01*
X102680046Y-115982050D01*
X102382794Y-115934971D01*
X102370097Y-115932273D01*
X102079376Y-115854374D01*
X102067033Y-115850363D01*
X101786064Y-115742510D01*
X101774206Y-115737231D01*
X101506036Y-115600591D01*
X101494796Y-115594101D01*
X101242391Y-115430187D01*
X101231890Y-115422558D01*
X100997989Y-115233149D01*
X100988344Y-115224464D01*
X100775535Y-115011655D01*
X100766850Y-115002010D01*
X100577441Y-114768109D01*
X100569812Y-114757608D01*
X100507176Y-114661157D01*
X100405896Y-114505199D01*
X100399408Y-114493963D01*
X100381395Y-114458611D01*
X100262767Y-114225790D01*
X100257489Y-114213935D01*
X100149636Y-113932966D01*
X100145625Y-113920623D01*
X100067726Y-113629902D01*
X100065028Y-113617205D01*
X100056583Y-113563887D01*
X100021479Y-113342240D01*
X100017949Y-113319953D01*
X100016592Y-113307046D01*
X100006513Y-113114741D01*
X101249500Y-113114741D01*
X101274446Y-113304215D01*
X101279452Y-113342238D01*
X101279453Y-113342240D01*
X101338842Y-113563887D01*
X101426650Y-113775876D01*
X101426657Y-113775890D01*
X101541392Y-113974617D01*
X101681081Y-114156661D01*
X101681089Y-114156670D01*
X101843330Y-114318911D01*
X101843338Y-114318918D01*
X102025382Y-114458607D01*
X102025385Y-114458608D01*
X102025388Y-114458611D01*
X102224112Y-114573344D01*
X102224117Y-114573346D01*
X102224123Y-114573349D01*
X102315480Y-114611190D01*
X102436113Y-114661158D01*
X102657762Y-114720548D01*
X102885266Y-114750500D01*
X102885273Y-114750500D01*
X103114727Y-114750500D01*
X103114734Y-114750500D01*
X103342238Y-114720548D01*
X103563887Y-114661158D01*
X103775888Y-114573344D01*
X103974612Y-114458611D01*
X104156661Y-114318919D01*
X104156665Y-114318914D01*
X104156670Y-114318911D01*
X104318911Y-114156670D01*
X104318914Y-114156665D01*
X104318919Y-114156661D01*
X104458611Y-113974612D01*
X104573344Y-113775888D01*
X104661158Y-113563887D01*
X104720548Y-113342238D01*
X104750499Y-113114741D01*
X139749500Y-113114741D01*
X139774446Y-113304215D01*
X139779452Y-113342238D01*
X139779453Y-113342240D01*
X139838842Y-113563887D01*
X139926650Y-113775876D01*
X139926657Y-113775890D01*
X140041392Y-113974617D01*
X140181081Y-114156661D01*
X140181089Y-114156670D01*
X140343330Y-114318911D01*
X140343338Y-114318918D01*
X140525382Y-114458607D01*
X140525385Y-114458608D01*
X140525388Y-114458611D01*
X140724112Y-114573344D01*
X140724117Y-114573346D01*
X140724123Y-114573349D01*
X140815480Y-114611190D01*
X140936113Y-114661158D01*
X141157762Y-114720548D01*
X141385266Y-114750500D01*
X141385273Y-114750500D01*
X141614727Y-114750500D01*
X141614734Y-114750500D01*
X141842238Y-114720548D01*
X142063887Y-114661158D01*
X142275888Y-114573344D01*
X142474612Y-114458611D01*
X142656661Y-114318919D01*
X142656665Y-114318914D01*
X142656670Y-114318911D01*
X142818911Y-114156670D01*
X142818914Y-114156665D01*
X142818919Y-114156661D01*
X142958611Y-113974612D01*
X143073344Y-113775888D01*
X143161158Y-113563887D01*
X143220548Y-113342238D01*
X143250500Y-113114734D01*
X143250500Y-112885266D01*
X143220548Y-112657762D01*
X143161158Y-112436113D01*
X143073344Y-112224112D01*
X142958611Y-112025388D01*
X142958608Y-112025385D01*
X142958607Y-112025382D01*
X142818918Y-111843338D01*
X142818911Y-111843330D01*
X142656670Y-111681089D01*
X142656661Y-111681081D01*
X142474617Y-111541392D01*
X142275890Y-111426657D01*
X142275876Y-111426650D01*
X142063887Y-111338842D01*
X141842238Y-111279452D01*
X141804215Y-111274446D01*
X141614741Y-111249500D01*
X141614734Y-111249500D01*
X141385266Y-111249500D01*
X141385258Y-111249500D01*
X141168715Y-111278009D01*
X141157762Y-111279452D01*
X141138665Y-111284569D01*
X140936112Y-111338842D01*
X140724123Y-111426650D01*
X140724109Y-111426657D01*
X140525382Y-111541392D01*
X140343338Y-111681081D01*
X140181081Y-111843338D01*
X140041392Y-112025382D01*
X139926657Y-112224109D01*
X139926650Y-112224123D01*
X139838842Y-112436112D01*
X139779453Y-112657759D01*
X139779451Y-112657770D01*
X139749500Y-112885258D01*
X139749500Y-113114741D01*
X104750499Y-113114741D01*
X104750500Y-113114734D01*
X104750500Y-112885266D01*
X104720548Y-112657762D01*
X104661158Y-112436113D01*
X104573344Y-112224112D01*
X104458611Y-112025388D01*
X104458608Y-112025385D01*
X104458607Y-112025382D01*
X104318918Y-111843338D01*
X104318911Y-111843330D01*
X104156670Y-111681089D01*
X104156661Y-111681081D01*
X103974617Y-111541392D01*
X103775890Y-111426657D01*
X103775876Y-111426650D01*
X103563887Y-111338842D01*
X103342238Y-111279452D01*
X103304215Y-111274446D01*
X103114741Y-111249500D01*
X103114734Y-111249500D01*
X102885266Y-111249500D01*
X102885258Y-111249500D01*
X102668715Y-111278009D01*
X102657762Y-111279452D01*
X102638665Y-111284569D01*
X102436112Y-111338842D01*
X102224123Y-111426650D01*
X102224109Y-111426657D01*
X102025382Y-111541392D01*
X101843338Y-111681081D01*
X101681081Y-111843338D01*
X101541392Y-112025382D01*
X101426657Y-112224109D01*
X101426650Y-112224123D01*
X101338842Y-112436112D01*
X101279453Y-112657759D01*
X101279451Y-112657770D01*
X101249500Y-112885258D01*
X101249500Y-113114741D01*
X100006513Y-113114741D01*
X100000670Y-113003243D01*
X100000500Y-112996753D01*
X100000500Y-109950000D01*
X108894785Y-109950000D01*
X108913602Y-110153082D01*
X108969417Y-110349247D01*
X108969422Y-110349260D01*
X109060327Y-110531821D01*
X109183237Y-110694581D01*
X109333958Y-110831980D01*
X109333960Y-110831982D01*
X109350111Y-110841982D01*
X109507363Y-110939348D01*
X109697544Y-111013024D01*
X109898024Y-111050500D01*
X109898026Y-111050500D01*
X110101974Y-111050500D01*
X110101976Y-111050500D01*
X110302456Y-111013024D01*
X110492637Y-110939348D01*
X110666041Y-110831981D01*
X110816764Y-110694579D01*
X110939673Y-110531821D01*
X111030582Y-110349250D01*
X111086397Y-110153083D01*
X111105215Y-109950001D01*
X111644843Y-109950001D01*
X111665430Y-110185315D01*
X111665432Y-110185326D01*
X111726566Y-110413483D01*
X111726570Y-110413492D01*
X111826400Y-110627579D01*
X111826402Y-110627583D01*
X111885072Y-110711373D01*
X111885073Y-110711373D01*
X112508871Y-110087574D01*
X112524755Y-110146853D01*
X112591898Y-110263147D01*
X112686853Y-110358102D01*
X112803147Y-110425245D01*
X112862424Y-110441128D01*
X112238625Y-111064925D01*
X112322421Y-111123599D01*
X112536507Y-111223429D01*
X112536516Y-111223433D01*
X112764673Y-111284567D01*
X112764684Y-111284569D01*
X112999998Y-111305157D01*
X113000002Y-111305157D01*
X113235315Y-111284569D01*
X113235326Y-111284567D01*
X113463483Y-111223433D01*
X113463492Y-111223429D01*
X113677578Y-111123600D01*
X113677582Y-111123598D01*
X113761373Y-111064926D01*
X113761373Y-111064925D01*
X113137575Y-110441128D01*
X113196853Y-110425245D01*
X113313147Y-110358102D01*
X113408102Y-110263147D01*
X113475245Y-110146853D01*
X113491128Y-110087575D01*
X114114925Y-110711373D01*
X114114926Y-110711373D01*
X114173598Y-110627582D01*
X114173600Y-110627578D01*
X114273429Y-110413492D01*
X114273433Y-110413483D01*
X114334567Y-110185326D01*
X114334569Y-110185315D01*
X114354282Y-109960000D01*
X124394785Y-109960000D01*
X124413602Y-110163082D01*
X124469417Y-110359247D01*
X124469422Y-110359260D01*
X124560327Y-110541821D01*
X124683237Y-110704581D01*
X124833958Y-110841980D01*
X124833960Y-110841982D01*
X124933141Y-110903392D01*
X125007363Y-110949348D01*
X125197544Y-111023024D01*
X125398024Y-111060500D01*
X125398026Y-111060500D01*
X125601974Y-111060500D01*
X125601976Y-111060500D01*
X125802456Y-111023024D01*
X125992637Y-110949348D01*
X126166041Y-110841981D01*
X126316764Y-110704579D01*
X126439673Y-110541821D01*
X126530582Y-110359250D01*
X126586397Y-110163083D01*
X126605215Y-109960000D01*
X127394785Y-109960000D01*
X127413602Y-110163082D01*
X127469417Y-110359247D01*
X127469422Y-110359260D01*
X127560327Y-110541821D01*
X127683237Y-110704581D01*
X127833958Y-110841980D01*
X127833960Y-110841982D01*
X127933141Y-110903392D01*
X128007363Y-110949348D01*
X128197544Y-111023024D01*
X128398024Y-111060500D01*
X128398026Y-111060500D01*
X128601974Y-111060500D01*
X128601976Y-111060500D01*
X128802456Y-111023024D01*
X128992637Y-110949348D01*
X129166041Y-110841981D01*
X129316764Y-110704579D01*
X129439673Y-110541821D01*
X129530582Y-110359250D01*
X129586397Y-110163083D01*
X129605215Y-109960000D01*
X130394785Y-109960000D01*
X130413602Y-110163082D01*
X130469417Y-110359247D01*
X130469422Y-110359260D01*
X130560327Y-110541821D01*
X130683237Y-110704581D01*
X130833958Y-110841980D01*
X130833960Y-110841982D01*
X130933141Y-110903392D01*
X131007363Y-110949348D01*
X131197544Y-111023024D01*
X131398024Y-111060500D01*
X131398026Y-111060500D01*
X131601974Y-111060500D01*
X131601976Y-111060500D01*
X131802456Y-111023024D01*
X131992637Y-110949348D01*
X132166041Y-110841981D01*
X132316764Y-110704579D01*
X132439673Y-110541821D01*
X132530582Y-110359250D01*
X132586397Y-110163083D01*
X132605215Y-109960000D01*
X133394785Y-109960000D01*
X133413602Y-110163082D01*
X133469417Y-110359247D01*
X133469422Y-110359260D01*
X133560327Y-110541821D01*
X133683237Y-110704581D01*
X133833958Y-110841980D01*
X133833960Y-110841982D01*
X133933141Y-110903392D01*
X134007363Y-110949348D01*
X134197544Y-111023024D01*
X134398024Y-111060500D01*
X134398026Y-111060500D01*
X134601974Y-111060500D01*
X134601976Y-111060500D01*
X134802456Y-111023024D01*
X134992637Y-110949348D01*
X135166041Y-110841981D01*
X135316764Y-110704579D01*
X135439673Y-110541821D01*
X135530582Y-110359250D01*
X135586397Y-110163083D01*
X135605215Y-109960000D01*
X135604288Y-109950001D01*
X135586397Y-109756917D01*
X135583552Y-109746917D01*
X135530582Y-109560750D01*
X135525597Y-109550739D01*
X135470456Y-109440000D01*
X135439673Y-109378179D01*
X135412121Y-109341694D01*
X135387429Y-109276332D01*
X135401994Y-109207998D01*
X135423390Y-109179290D01*
X136434030Y-108168650D01*
X136495352Y-108135167D01*
X136565044Y-108140151D01*
X136620977Y-108182023D01*
X136643327Y-108232141D01*
X136648527Y-108258285D01*
X136648529Y-108258291D01*
X136715278Y-108419439D01*
X136715283Y-108419448D01*
X136812186Y-108564473D01*
X136812189Y-108564477D01*
X136935522Y-108687810D01*
X136935526Y-108687813D01*
X137080551Y-108784716D01*
X137080557Y-108784719D01*
X137080558Y-108784720D01*
X137241709Y-108851471D01*
X137363523Y-108875701D01*
X137412781Y-108885499D01*
X137412785Y-108885500D01*
X137412786Y-108885500D01*
X137587215Y-108885500D01*
X137587216Y-108885499D01*
X137758291Y-108851471D01*
X137919442Y-108784720D01*
X138064474Y-108687813D01*
X138187813Y-108564474D01*
X138284720Y-108419442D01*
X138351471Y-108258291D01*
X138385500Y-108087214D01*
X138385500Y-107912786D01*
X138351471Y-107741709D01*
X138284720Y-107580558D01*
X138284719Y-107580557D01*
X138284716Y-107580551D01*
X138187813Y-107435526D01*
X138187810Y-107435522D01*
X138064477Y-107312189D01*
X138064473Y-107312186D01*
X137919448Y-107215283D01*
X137919439Y-107215278D01*
X137758291Y-107148529D01*
X137758285Y-107148527D01*
X137732141Y-107143327D01*
X137670230Y-107110942D01*
X137635656Y-107050226D01*
X137639396Y-106980457D01*
X137668650Y-106934031D01*
X139065863Y-105536819D01*
X139127186Y-105503334D01*
X139153544Y-105500500D01*
X139723560Y-105500500D01*
X139790599Y-105520185D01*
X139836354Y-105572989D01*
X139839742Y-105581167D01*
X139881202Y-105692328D01*
X139881206Y-105692335D01*
X139967452Y-105807544D01*
X139967455Y-105807547D01*
X140082664Y-105893793D01*
X140082671Y-105893797D01*
X140127618Y-105910561D01*
X140217517Y-105944091D01*
X140277127Y-105950500D01*
X140897872Y-105950499D01*
X140957483Y-105944091D01*
X141092331Y-105893796D01*
X141207546Y-105807546D01*
X141293796Y-105692331D01*
X141344091Y-105557483D01*
X141350500Y-105497873D01*
X141350500Y-105497870D01*
X141649500Y-105497870D01*
X141649501Y-105497876D01*
X141655908Y-105557483D01*
X141706202Y-105692328D01*
X141706206Y-105692335D01*
X141792452Y-105807544D01*
X141792455Y-105807547D01*
X141907664Y-105893793D01*
X141907671Y-105893797D01*
X141952618Y-105910561D01*
X142042517Y-105944091D01*
X142102127Y-105950500D01*
X142722872Y-105950499D01*
X142782483Y-105944091D01*
X142917331Y-105893796D01*
X143032546Y-105807546D01*
X143118796Y-105692331D01*
X143169091Y-105557483D01*
X143175500Y-105497873D01*
X143175499Y-104502128D01*
X143169091Y-104442517D01*
X143160257Y-104418833D01*
X143118797Y-104307671D01*
X143118793Y-104307664D01*
X143032547Y-104192455D01*
X143032544Y-104192452D01*
X142917335Y-104106206D01*
X142917328Y-104106202D01*
X142782486Y-104055910D01*
X142782485Y-104055909D01*
X142782483Y-104055909D01*
X142722873Y-104049500D01*
X142722863Y-104049500D01*
X142102129Y-104049500D01*
X142102123Y-104049501D01*
X142042516Y-104055908D01*
X141907671Y-104106202D01*
X141907664Y-104106206D01*
X141792455Y-104192452D01*
X141792452Y-104192455D01*
X141706206Y-104307664D01*
X141706202Y-104307671D01*
X141655908Y-104442517D01*
X141649816Y-104499184D01*
X141649501Y-104502123D01*
X141649500Y-104502135D01*
X141649500Y-105497870D01*
X141350500Y-105497870D01*
X141350499Y-104502128D01*
X141344091Y-104442517D01*
X141335257Y-104418833D01*
X141293797Y-104307671D01*
X141293793Y-104307664D01*
X141207547Y-104192455D01*
X141207544Y-104192452D01*
X141092335Y-104106206D01*
X141092328Y-104106202D01*
X140957486Y-104055910D01*
X140957485Y-104055909D01*
X140957483Y-104055909D01*
X140897873Y-104049500D01*
X140897863Y-104049500D01*
X140277129Y-104049500D01*
X140277123Y-104049501D01*
X140217516Y-104055908D01*
X140082671Y-104106202D01*
X140082664Y-104106206D01*
X139967455Y-104192452D01*
X139967452Y-104192455D01*
X139881206Y-104307664D01*
X139881202Y-104307671D01*
X139839742Y-104418833D01*
X139797871Y-104474767D01*
X139732407Y-104499184D01*
X139723560Y-104499500D01*
X138828976Y-104499500D01*
X138701680Y-104533608D01*
X138587554Y-104599500D01*
X138587551Y-104599502D01*
X134338504Y-108848548D01*
X134277181Y-108882033D01*
X134273610Y-108882755D01*
X134197549Y-108896974D01*
X134197542Y-108896976D01*
X134007364Y-108970651D01*
X134007357Y-108970655D01*
X133833960Y-109078017D01*
X133833958Y-109078019D01*
X133683237Y-109215418D01*
X133560327Y-109378178D01*
X133469422Y-109560739D01*
X133469417Y-109560752D01*
X133413602Y-109756917D01*
X133394785Y-109959999D01*
X133394785Y-109960000D01*
X132605215Y-109960000D01*
X132604288Y-109950001D01*
X132586397Y-109756917D01*
X132583552Y-109746917D01*
X132530582Y-109560750D01*
X132525597Y-109550739D01*
X132470456Y-109440000D01*
X132439673Y-109378179D01*
X132316764Y-109215421D01*
X132316762Y-109215418D01*
X132166041Y-109078019D01*
X132166039Y-109078017D01*
X131992642Y-108970655D01*
X131992635Y-108970651D01*
X131897546Y-108933814D01*
X131802456Y-108896976D01*
X131601976Y-108859500D01*
X131398024Y-108859500D01*
X131197544Y-108896976D01*
X131197541Y-108896976D01*
X131197541Y-108896977D01*
X131007364Y-108970651D01*
X131007357Y-108970655D01*
X130833960Y-109078017D01*
X130833958Y-109078019D01*
X130683237Y-109215418D01*
X130560327Y-109378178D01*
X130469422Y-109560739D01*
X130469417Y-109560752D01*
X130413602Y-109756917D01*
X130394785Y-109959999D01*
X130394785Y-109960000D01*
X129605215Y-109960000D01*
X129604288Y-109950001D01*
X129586397Y-109756917D01*
X129583552Y-109746917D01*
X129530582Y-109560750D01*
X129525597Y-109550739D01*
X129470456Y-109440000D01*
X129439673Y-109378179D01*
X129316764Y-109215421D01*
X129316762Y-109215418D01*
X129166041Y-109078019D01*
X129166039Y-109078017D01*
X128992642Y-108970655D01*
X128992635Y-108970651D01*
X128897546Y-108933814D01*
X128802456Y-108896976D01*
X128601976Y-108859500D01*
X128398024Y-108859500D01*
X128197544Y-108896976D01*
X128197541Y-108896976D01*
X128197541Y-108896977D01*
X128007364Y-108970651D01*
X128007357Y-108970655D01*
X127833960Y-109078017D01*
X127833958Y-109078019D01*
X127683237Y-109215418D01*
X127560327Y-109378178D01*
X127469422Y-109560739D01*
X127469417Y-109560752D01*
X127413602Y-109756917D01*
X127394785Y-109959999D01*
X127394785Y-109960000D01*
X126605215Y-109960000D01*
X126604288Y-109950001D01*
X126586397Y-109756917D01*
X126583552Y-109746917D01*
X126530582Y-109560750D01*
X126525597Y-109550739D01*
X126470456Y-109440000D01*
X126439673Y-109378179D01*
X126316764Y-109215421D01*
X126316762Y-109215418D01*
X126166041Y-109078019D01*
X126166039Y-109078017D01*
X125992642Y-108970655D01*
X125992635Y-108970651D01*
X125897546Y-108933814D01*
X125802456Y-108896976D01*
X125601976Y-108859500D01*
X125398024Y-108859500D01*
X125197544Y-108896976D01*
X125197541Y-108896976D01*
X125197541Y-108896977D01*
X125007364Y-108970651D01*
X125007357Y-108970655D01*
X124833960Y-109078017D01*
X124833958Y-109078019D01*
X124683237Y-109215418D01*
X124560327Y-109378178D01*
X124469422Y-109560739D01*
X124469417Y-109560752D01*
X124413602Y-109756917D01*
X124394785Y-109959999D01*
X124394785Y-109960000D01*
X114354282Y-109960000D01*
X114355157Y-109950001D01*
X114355157Y-109949998D01*
X114334569Y-109714684D01*
X114334567Y-109714673D01*
X114273433Y-109486516D01*
X114273429Y-109486507D01*
X114173600Y-109272423D01*
X114173599Y-109272421D01*
X114114925Y-109188626D01*
X114114925Y-109188625D01*
X113491127Y-109812423D01*
X113475245Y-109753147D01*
X113408102Y-109636853D01*
X113313147Y-109541898D01*
X113196853Y-109474755D01*
X113137575Y-109458871D01*
X113761373Y-108835073D01*
X113761373Y-108835072D01*
X113677583Y-108776402D01*
X113677579Y-108776400D01*
X113463492Y-108676570D01*
X113463483Y-108676566D01*
X113235326Y-108615432D01*
X113235315Y-108615430D01*
X113000002Y-108594843D01*
X112999998Y-108594843D01*
X112764684Y-108615430D01*
X112764673Y-108615432D01*
X112536516Y-108676566D01*
X112536507Y-108676570D01*
X112322419Y-108776401D01*
X112238625Y-108835072D01*
X112862424Y-109458871D01*
X112803147Y-109474755D01*
X112686853Y-109541898D01*
X112591898Y-109636853D01*
X112524755Y-109753147D01*
X112508871Y-109812424D01*
X111885072Y-109188625D01*
X111826401Y-109272419D01*
X111726570Y-109486507D01*
X111726566Y-109486516D01*
X111665432Y-109714673D01*
X111665430Y-109714684D01*
X111644843Y-109949998D01*
X111644843Y-109950001D01*
X111105215Y-109950001D01*
X111105215Y-109950000D01*
X111086397Y-109746917D01*
X111030582Y-109550750D01*
X111026174Y-109541898D01*
X110944652Y-109378179D01*
X110939673Y-109368179D01*
X110867360Y-109272421D01*
X110816762Y-109205418D01*
X110666041Y-109068019D01*
X110666039Y-109068017D01*
X110492642Y-108960655D01*
X110492635Y-108960651D01*
X110397546Y-108923814D01*
X110302456Y-108886976D01*
X110101976Y-108849500D01*
X109898024Y-108849500D01*
X109697544Y-108886976D01*
X109697541Y-108886976D01*
X109697541Y-108886977D01*
X109507364Y-108960651D01*
X109507357Y-108960655D01*
X109333960Y-109068017D01*
X109333958Y-109068019D01*
X109183237Y-109205418D01*
X109060327Y-109368178D01*
X108969422Y-109550739D01*
X108969417Y-109550752D01*
X108913602Y-109746917D01*
X108894785Y-109949999D01*
X108894785Y-109950000D01*
X100000500Y-109950000D01*
X100000500Y-108077218D01*
X106114500Y-108077218D01*
X106148527Y-108248283D01*
X106148529Y-108248291D01*
X106215278Y-108409439D01*
X106215283Y-108409448D01*
X106312186Y-108554473D01*
X106312189Y-108554477D01*
X106435522Y-108677810D01*
X106435526Y-108677813D01*
X106580551Y-108774716D01*
X106580560Y-108774721D01*
X106617066Y-108789842D01*
X106741709Y-108841471D01*
X106912781Y-108875499D01*
X106912785Y-108875500D01*
X106912786Y-108875500D01*
X107087215Y-108875500D01*
X107087216Y-108875499D01*
X107258291Y-108841471D01*
X107419442Y-108774720D01*
X107564474Y-108677813D01*
X107687813Y-108554474D01*
X107784720Y-108409442D01*
X107851471Y-108248291D01*
X107885499Y-108077218D01*
X115114500Y-108077218D01*
X115148527Y-108248283D01*
X115148529Y-108248291D01*
X115215278Y-108409439D01*
X115215283Y-108409448D01*
X115312186Y-108554473D01*
X115312189Y-108554477D01*
X115435522Y-108677810D01*
X115435526Y-108677813D01*
X115580551Y-108774716D01*
X115580560Y-108774721D01*
X115617066Y-108789842D01*
X115741709Y-108841471D01*
X115912781Y-108875499D01*
X115912785Y-108875500D01*
X115912786Y-108875500D01*
X116087215Y-108875500D01*
X116087216Y-108875499D01*
X116258291Y-108841471D01*
X116419442Y-108774720D01*
X116564474Y-108677813D01*
X116687813Y-108554474D01*
X116784720Y-108409442D01*
X116851471Y-108248291D01*
X116883510Y-108087218D01*
X121614500Y-108087218D01*
X121648527Y-108258283D01*
X121648529Y-108258291D01*
X121715278Y-108419439D01*
X121715283Y-108419448D01*
X121812186Y-108564473D01*
X121812189Y-108564477D01*
X121935522Y-108687810D01*
X121935526Y-108687813D01*
X122080551Y-108784716D01*
X122080557Y-108784719D01*
X122080558Y-108784720D01*
X122241709Y-108851471D01*
X122363523Y-108875701D01*
X122412781Y-108885499D01*
X122412785Y-108885500D01*
X122412786Y-108885500D01*
X122587215Y-108885500D01*
X122587216Y-108885499D01*
X122758291Y-108851471D01*
X122919442Y-108784720D01*
X123064474Y-108687813D01*
X123187813Y-108564474D01*
X123284720Y-108419442D01*
X123351471Y-108258291D01*
X123385500Y-108087214D01*
X123385500Y-107912786D01*
X123351471Y-107741709D01*
X123284720Y-107580558D01*
X123284719Y-107580557D01*
X123284716Y-107580551D01*
X123187813Y-107435526D01*
X123187810Y-107435522D01*
X123064477Y-107312189D01*
X123064473Y-107312186D01*
X122919448Y-107215283D01*
X122919439Y-107215278D01*
X122758291Y-107148529D01*
X122758283Y-107148527D01*
X122587218Y-107114500D01*
X122587214Y-107114500D01*
X122412786Y-107114500D01*
X122412781Y-107114500D01*
X122241716Y-107148527D01*
X122241708Y-107148529D01*
X122080560Y-107215278D01*
X122080551Y-107215283D01*
X121935526Y-107312186D01*
X121935522Y-107312189D01*
X121812189Y-107435522D01*
X121812186Y-107435526D01*
X121715283Y-107580551D01*
X121715278Y-107580560D01*
X121648529Y-107741708D01*
X121648527Y-107741716D01*
X121614500Y-107912781D01*
X121614500Y-108087218D01*
X116883510Y-108087218D01*
X116885500Y-108077214D01*
X116885500Y-107902786D01*
X116851471Y-107731709D01*
X116784720Y-107570558D01*
X116784719Y-107570557D01*
X116784716Y-107570551D01*
X116687813Y-107425526D01*
X116687810Y-107425522D01*
X116564477Y-107302189D01*
X116564473Y-107302186D01*
X116419448Y-107205283D01*
X116419439Y-107205278D01*
X116258291Y-107138529D01*
X116258283Y-107138527D01*
X116087218Y-107104500D01*
X116087214Y-107104500D01*
X115912786Y-107104500D01*
X115912781Y-107104500D01*
X115741716Y-107138527D01*
X115741708Y-107138529D01*
X115580560Y-107205278D01*
X115580551Y-107205283D01*
X115435526Y-107302186D01*
X115435522Y-107302189D01*
X115312189Y-107425522D01*
X115312186Y-107425526D01*
X115215283Y-107570551D01*
X115215278Y-107570560D01*
X115148529Y-107731708D01*
X115148527Y-107731716D01*
X115114500Y-107902781D01*
X115114500Y-108077218D01*
X107885499Y-108077218D01*
X107885500Y-108077214D01*
X107885500Y-107902786D01*
X107851471Y-107731709D01*
X107784720Y-107570558D01*
X107784719Y-107570557D01*
X107784716Y-107570551D01*
X107687813Y-107425526D01*
X107687810Y-107425522D01*
X107564477Y-107302189D01*
X107564473Y-107302186D01*
X107419448Y-107205283D01*
X107419439Y-107205278D01*
X107258291Y-107138529D01*
X107258283Y-107138527D01*
X107087218Y-107104500D01*
X107087214Y-107104500D01*
X106912786Y-107104500D01*
X106912781Y-107104500D01*
X106741716Y-107138527D01*
X106741708Y-107138529D01*
X106580560Y-107205278D01*
X106580551Y-107205283D01*
X106435526Y-107302186D01*
X106435522Y-107302189D01*
X106312189Y-107425522D01*
X106312186Y-107425526D01*
X106215283Y-107570551D01*
X106215278Y-107570560D01*
X106148529Y-107731708D01*
X106148527Y-107731716D01*
X106114500Y-107902781D01*
X106114500Y-108077218D01*
X100000500Y-108077218D01*
X100000500Y-103997870D01*
X101324500Y-103997870D01*
X101324501Y-103997876D01*
X101330908Y-104057483D01*
X101381202Y-104192328D01*
X101381206Y-104192335D01*
X101467452Y-104307544D01*
X101467455Y-104307547D01*
X101582664Y-104393793D01*
X101582671Y-104393797D01*
X101627618Y-104410561D01*
X101717517Y-104444091D01*
X101777127Y-104450500D01*
X102397872Y-104450499D01*
X102457483Y-104444091D01*
X102592331Y-104393796D01*
X102707546Y-104307546D01*
X102793796Y-104192331D01*
X102844091Y-104057483D01*
X102850500Y-103997873D01*
X102850500Y-103997870D01*
X103149500Y-103997870D01*
X103149501Y-103997876D01*
X103155908Y-104057483D01*
X103206202Y-104192328D01*
X103206206Y-104192335D01*
X103292452Y-104307544D01*
X103292455Y-104307547D01*
X103407664Y-104393793D01*
X103407671Y-104393797D01*
X103452618Y-104410561D01*
X103542517Y-104444091D01*
X103602127Y-104450500D01*
X104222872Y-104450499D01*
X104282483Y-104444091D01*
X104417331Y-104393796D01*
X104532546Y-104307546D01*
X104618796Y-104192331D01*
X104650919Y-104106206D01*
X104660258Y-104081167D01*
X104702129Y-104025233D01*
X104767593Y-104000816D01*
X104776440Y-104000500D01*
X105250948Y-104000500D01*
X105307242Y-104014015D01*
X105349698Y-104035647D01*
X105443475Y-104050499D01*
X105443481Y-104050500D01*
X106681518Y-104050499D01*
X106775304Y-104035646D01*
X106789273Y-104028528D01*
X106857938Y-104015632D01*
X106922679Y-104041907D01*
X106962937Y-104099012D01*
X106965768Y-104165039D01*
X106965880Y-104165057D01*
X106965793Y-104165605D01*
X106965931Y-104168818D01*
X106964481Y-104173888D01*
X106949500Y-104268475D01*
X106949500Y-104631517D01*
X106964354Y-104725304D01*
X106966016Y-104730418D01*
X106968011Y-104800259D01*
X106935766Y-104856418D01*
X106826317Y-104965867D01*
X106786089Y-104992747D01*
X106722378Y-105019137D01*
X106722375Y-105019138D01*
X106722375Y-105019139D01*
X106624660Y-105094119D01*
X106607379Y-105107379D01*
X106519137Y-105222377D01*
X106463671Y-105356287D01*
X106463670Y-105356291D01*
X106444750Y-105499999D01*
X106444750Y-105500000D01*
X106463670Y-105643708D01*
X106463671Y-105643712D01*
X106519137Y-105777622D01*
X106519138Y-105777624D01*
X106519139Y-105777625D01*
X106607379Y-105892621D01*
X106722375Y-105980861D01*
X106856291Y-106036330D01*
X106983280Y-106053048D01*
X106999999Y-106055250D01*
X107000000Y-106055250D01*
X107000001Y-106055250D01*
X107014977Y-106053278D01*
X107143709Y-106036330D01*
X107277625Y-105980861D01*
X107392621Y-105892621D01*
X107480861Y-105777625D01*
X107507252Y-105713907D01*
X107534130Y-105673682D01*
X108170994Y-105036817D01*
X108232317Y-105003333D01*
X108258675Y-105000499D01*
X108556517Y-105000499D01*
X108556518Y-105000499D01*
X108650304Y-104985646D01*
X108763342Y-104928050D01*
X108853050Y-104838342D01*
X108891694Y-104762500D01*
X111400001Y-104762500D01*
X111400001Y-104824986D01*
X111410494Y-104927697D01*
X111465641Y-105094119D01*
X111465643Y-105094124D01*
X111557684Y-105243345D01*
X111681654Y-105367315D01*
X111830875Y-105459356D01*
X111830880Y-105459358D01*
X111997302Y-105514505D01*
X111997309Y-105514506D01*
X112100019Y-105524999D01*
X112349999Y-105524999D01*
X112350000Y-105524998D01*
X112350000Y-104762500D01*
X112850000Y-104762500D01*
X112850000Y-105524999D01*
X113099972Y-105524999D01*
X113099986Y-105524998D01*
X113202697Y-105514505D01*
X113369119Y-105459358D01*
X113369124Y-105459356D01*
X113518345Y-105367315D01*
X113642315Y-105243345D01*
X113734356Y-105094124D01*
X113734358Y-105094119D01*
X113789505Y-104927697D01*
X113789506Y-104927690D01*
X113799999Y-104824986D01*
X113800000Y-104824973D01*
X113800000Y-104762500D01*
X112850000Y-104762500D01*
X112350000Y-104762500D01*
X111400001Y-104762500D01*
X108891694Y-104762500D01*
X108910646Y-104725304D01*
X108910646Y-104725302D01*
X108910647Y-104725301D01*
X108925499Y-104631524D01*
X108925500Y-104631519D01*
X108925499Y-104268482D01*
X108910646Y-104174696D01*
X108853050Y-104061658D01*
X108853046Y-104061654D01*
X108853045Y-104061652D01*
X108763347Y-103971954D01*
X108763344Y-103971952D01*
X108763342Y-103971950D01*
X108664276Y-103921473D01*
X108650301Y-103914352D01*
X108556524Y-103899500D01*
X107318482Y-103899500D01*
X107224696Y-103914354D01*
X107210724Y-103921473D01*
X107142055Y-103934367D01*
X107077315Y-103908088D01*
X107037060Y-103850981D01*
X107034232Y-103784960D01*
X107034120Y-103784943D01*
X107034207Y-103784389D01*
X107034070Y-103781175D01*
X107035519Y-103776105D01*
X107050499Y-103681524D01*
X107050500Y-103681519D01*
X107050499Y-103318482D01*
X107035646Y-103224696D01*
X107035645Y-103224694D01*
X107034119Y-103215057D01*
X107036142Y-103214736D01*
X107034506Y-103157494D01*
X107070584Y-103097660D01*
X107133284Y-103066830D01*
X107202698Y-103074792D01*
X107210708Y-103078519D01*
X107224696Y-103085646D01*
X107224698Y-103085646D01*
X107224700Y-103085647D01*
X107224698Y-103085647D01*
X107318475Y-103100499D01*
X107318481Y-103100500D01*
X108556518Y-103100499D01*
X108625805Y-103089525D01*
X108645200Y-103088000D01*
X111581196Y-103088000D01*
X111648235Y-103107685D01*
X111693990Y-103160489D01*
X111697379Y-103168669D01*
X111706203Y-103192330D01*
X111706206Y-103192335D01*
X111792452Y-103307544D01*
X111792455Y-103307547D01*
X111853841Y-103353501D01*
X111895712Y-103409435D01*
X111900696Y-103479126D01*
X111867210Y-103540449D01*
X111836910Y-103561664D01*
X111837025Y-103561851D01*
X111833831Y-103563820D01*
X111831936Y-103565148D01*
X111830885Y-103565637D01*
X111681654Y-103657684D01*
X111557684Y-103781654D01*
X111465643Y-103930875D01*
X111465641Y-103930880D01*
X111410494Y-104097302D01*
X111410493Y-104097309D01*
X111400000Y-104200013D01*
X111400000Y-104262500D01*
X113799999Y-104262500D01*
X113799999Y-104200028D01*
X113799998Y-104200013D01*
X113789505Y-104097302D01*
X113734358Y-103930880D01*
X113734356Y-103930875D01*
X113642315Y-103781654D01*
X113518345Y-103657684D01*
X113369121Y-103565642D01*
X113368068Y-103565151D01*
X113367466Y-103564621D01*
X113362975Y-103561851D01*
X113363448Y-103561083D01*
X113315627Y-103518981D01*
X113296473Y-103451788D01*
X113316686Y-103384906D01*
X113346154Y-103353503D01*
X113407546Y-103307546D01*
X113493796Y-103192331D01*
X113544091Y-103057483D01*
X113550500Y-102997873D01*
X113550499Y-102377128D01*
X113544091Y-102317517D01*
X113493796Y-102182669D01*
X113493795Y-102182668D01*
X113493793Y-102182664D01*
X113407547Y-102067455D01*
X113407544Y-102067452D01*
X113292335Y-101981206D01*
X113292328Y-101981202D01*
X113157483Y-101930908D01*
X113111243Y-101925937D01*
X113046693Y-101899199D01*
X113006845Y-101841806D01*
X113000500Y-101802648D01*
X113000500Y-99834500D01*
X113020185Y-99767461D01*
X113072989Y-99721706D01*
X113124500Y-99710500D01*
X125588422Y-99710500D01*
X125782826Y-99679709D01*
X125970026Y-99618884D01*
X126145405Y-99529524D01*
X126304646Y-99413828D01*
X126453828Y-99264646D01*
X126569524Y-99105405D01*
X126658884Y-98930026D01*
X126719709Y-98742826D01*
X126733923Y-98653082D01*
X126750500Y-98548422D01*
X126750500Y-98450000D01*
X127394785Y-98450000D01*
X127413602Y-98653082D01*
X127469417Y-98849247D01*
X127469422Y-98849260D01*
X127560327Y-99031821D01*
X127683237Y-99194581D01*
X127833958Y-99331980D01*
X127833960Y-99331982D01*
X127850111Y-99341982D01*
X128007363Y-99439348D01*
X128197544Y-99513024D01*
X128398024Y-99550500D01*
X128398026Y-99550500D01*
X128601974Y-99550500D01*
X128601976Y-99550500D01*
X128802456Y-99513024D01*
X128992637Y-99439348D01*
X129166041Y-99331981D01*
X129294122Y-99215219D01*
X129316762Y-99194581D01*
X129316764Y-99194579D01*
X129439673Y-99031821D01*
X129530582Y-98849250D01*
X129586397Y-98653083D01*
X129605215Y-98450000D01*
X130394785Y-98450000D01*
X130413602Y-98653082D01*
X130469417Y-98849247D01*
X130469422Y-98849260D01*
X130560327Y-99031821D01*
X130683237Y-99194581D01*
X130833958Y-99331980D01*
X130833960Y-99331982D01*
X130850111Y-99341982D01*
X131007363Y-99439348D01*
X131197544Y-99513024D01*
X131398024Y-99550500D01*
X131398026Y-99550500D01*
X131601974Y-99550500D01*
X131601976Y-99550500D01*
X131802456Y-99513024D01*
X131992637Y-99439348D01*
X132166041Y-99331981D01*
X132294122Y-99215219D01*
X132316762Y-99194581D01*
X132316764Y-99194579D01*
X132439673Y-99031821D01*
X132530582Y-98849250D01*
X132586397Y-98653083D01*
X132605215Y-98450000D01*
X133394785Y-98450000D01*
X133413602Y-98653082D01*
X133469417Y-98849247D01*
X133469422Y-98849260D01*
X133560327Y-99031821D01*
X133683237Y-99194581D01*
X133833958Y-99331980D01*
X133833960Y-99331982D01*
X133850111Y-99341982D01*
X134007363Y-99439348D01*
X134197544Y-99513024D01*
X134398024Y-99550500D01*
X134398026Y-99550500D01*
X134601974Y-99550500D01*
X134601976Y-99550500D01*
X134802456Y-99513024D01*
X134992637Y-99439348D01*
X135166041Y-99331981D01*
X135294122Y-99215219D01*
X135316762Y-99194581D01*
X135329427Y-99177811D01*
X135439673Y-99031821D01*
X135445945Y-99019226D01*
X135493449Y-98967990D01*
X135556944Y-98950500D01*
X138203390Y-98950500D01*
X138203392Y-98950500D01*
X138330686Y-98916392D01*
X138444814Y-98850500D01*
X140308494Y-96986817D01*
X140369817Y-96953333D01*
X140396175Y-96950499D01*
X140897871Y-96950499D01*
X140897872Y-96950499D01*
X140957483Y-96944091D01*
X141092331Y-96893796D01*
X141207546Y-96807546D01*
X141293796Y-96692331D01*
X141344091Y-96557483D01*
X141350500Y-96497873D01*
X141350500Y-96497870D01*
X141649500Y-96497870D01*
X141649501Y-96497876D01*
X141655908Y-96557483D01*
X141706202Y-96692328D01*
X141706206Y-96692335D01*
X141792452Y-96807544D01*
X141792455Y-96807547D01*
X141907664Y-96893793D01*
X141907671Y-96893797D01*
X141949610Y-96909439D01*
X142042517Y-96944091D01*
X142102127Y-96950500D01*
X142722872Y-96950499D01*
X142782483Y-96944091D01*
X142917331Y-96893796D01*
X143032546Y-96807546D01*
X143118796Y-96692331D01*
X143169091Y-96557483D01*
X143175500Y-96497873D01*
X143175499Y-95502128D01*
X143169091Y-95442517D01*
X143118796Y-95307669D01*
X143118795Y-95307668D01*
X143118793Y-95307664D01*
X143032547Y-95192455D01*
X143032544Y-95192452D01*
X142917335Y-95106206D01*
X142917328Y-95106202D01*
X142782486Y-95055910D01*
X142782485Y-95055909D01*
X142782483Y-95055909D01*
X142722873Y-95049500D01*
X142722863Y-95049500D01*
X142102129Y-95049500D01*
X142102123Y-95049501D01*
X142042516Y-95055908D01*
X141907671Y-95106202D01*
X141907664Y-95106206D01*
X141792455Y-95192452D01*
X141792452Y-95192455D01*
X141706206Y-95307664D01*
X141706202Y-95307671D01*
X141655908Y-95442517D01*
X141649501Y-95502116D01*
X141649501Y-95502123D01*
X141649500Y-95502135D01*
X141649500Y-96497870D01*
X141350500Y-96497870D01*
X141350499Y-95502128D01*
X141344091Y-95442517D01*
X141293796Y-95307669D01*
X141293795Y-95307668D01*
X141293793Y-95307664D01*
X141207547Y-95192455D01*
X141137688Y-95140158D01*
X141095818Y-95084224D01*
X141088000Y-95040892D01*
X141088000Y-94083675D01*
X141107685Y-94016636D01*
X141124314Y-93995998D01*
X142133495Y-92986817D01*
X142194818Y-92953333D01*
X142221176Y-92950499D01*
X142722871Y-92950499D01*
X142722872Y-92950499D01*
X142782483Y-92944091D01*
X142917331Y-92893796D01*
X143032546Y-92807546D01*
X143118796Y-92692331D01*
X143169091Y-92557483D01*
X143175500Y-92497873D01*
X143175499Y-91502128D01*
X143169091Y-91442517D01*
X143165605Y-91433171D01*
X143118797Y-91307671D01*
X143118793Y-91307664D01*
X143032547Y-91192455D01*
X143032544Y-91192452D01*
X142917335Y-91106206D01*
X142917328Y-91106202D01*
X142782486Y-91055910D01*
X142782485Y-91055909D01*
X142782483Y-91055909D01*
X142722873Y-91049500D01*
X142722863Y-91049500D01*
X142102129Y-91049500D01*
X142102123Y-91049501D01*
X142042516Y-91055908D01*
X141907671Y-91106202D01*
X141907664Y-91106206D01*
X141792455Y-91192452D01*
X141792452Y-91192455D01*
X141706206Y-91307664D01*
X141706202Y-91307671D01*
X141655908Y-91442517D01*
X141649675Y-91500500D01*
X141649501Y-91502123D01*
X141649500Y-91502135D01*
X141649500Y-92003823D01*
X141629815Y-92070862D01*
X141613181Y-92091504D01*
X141562180Y-92142505D01*
X141500857Y-92175990D01*
X141431165Y-92171006D01*
X141375232Y-92129134D01*
X141350815Y-92063670D01*
X141350499Y-92054824D01*
X141350499Y-91502129D01*
X141350498Y-91502123D01*
X141350497Y-91502116D01*
X141344091Y-91442517D01*
X141340605Y-91433171D01*
X141293797Y-91307671D01*
X141293793Y-91307664D01*
X141207547Y-91192455D01*
X141207544Y-91192452D01*
X141092335Y-91106206D01*
X141092328Y-91106202D01*
X140957486Y-91055910D01*
X140957485Y-91055909D01*
X140957483Y-91055909D01*
X140897873Y-91049500D01*
X140897863Y-91049500D01*
X140277129Y-91049500D01*
X140277123Y-91049501D01*
X140217516Y-91055908D01*
X140082671Y-91106202D01*
X140082664Y-91106206D01*
X139967455Y-91192452D01*
X139967452Y-91192455D01*
X139875888Y-91314769D01*
X139872874Y-91312513D01*
X139835894Y-91349404D01*
X139776599Y-91364500D01*
X136074052Y-91364500D01*
X136017758Y-91350985D01*
X135975301Y-91329352D01*
X135881524Y-91314500D01*
X134493482Y-91314500D01*
X134412519Y-91327323D01*
X134399696Y-91329354D01*
X134286658Y-91386950D01*
X134286657Y-91386951D01*
X134286652Y-91386954D01*
X134196954Y-91476652D01*
X134196951Y-91476657D01*
X134196950Y-91476658D01*
X134183975Y-91502123D01*
X134139352Y-91589698D01*
X134124500Y-91683475D01*
X134124500Y-92046517D01*
X134126269Y-92057684D01*
X134139354Y-92140304D01*
X134196950Y-92253342D01*
X134196953Y-92253345D01*
X134202689Y-92261241D01*
X134199750Y-92263375D01*
X134224537Y-92308768D01*
X134219553Y-92378460D01*
X134177681Y-92434393D01*
X134166493Y-92441858D01*
X134123444Y-92467317D01*
X134123438Y-92467321D01*
X134007321Y-92583438D01*
X134007314Y-92583447D01*
X133923718Y-92724801D01*
X133877899Y-92882513D01*
X133877704Y-92884998D01*
X133877705Y-92885000D01*
X136497295Y-92885000D01*
X136497295Y-92884998D01*
X136497100Y-92882513D01*
X136451281Y-92724801D01*
X136367685Y-92583447D01*
X136367678Y-92583438D01*
X136361421Y-92577181D01*
X136327936Y-92515858D01*
X136332920Y-92446166D01*
X136374792Y-92390233D01*
X136440256Y-92365816D01*
X136449102Y-92365500D01*
X139700501Y-92365500D01*
X139767540Y-92385185D01*
X139813295Y-92437989D01*
X139824501Y-92489500D01*
X139824501Y-92497876D01*
X139830908Y-92557483D01*
X139881202Y-92692328D01*
X139881206Y-92692335D01*
X139967452Y-92807544D01*
X139967455Y-92807547D01*
X140082664Y-92893793D01*
X140082671Y-92893797D01*
X140127618Y-92910561D01*
X140217517Y-92944091D01*
X140277127Y-92950500D01*
X140454824Y-92950499D01*
X140521862Y-92970183D01*
X140567617Y-93022987D01*
X140577561Y-93092145D01*
X140548536Y-93155701D01*
X140542505Y-93162180D01*
X140469743Y-93234943D01*
X140280186Y-93424500D01*
X140187002Y-93517683D01*
X140187000Y-93517686D01*
X140121108Y-93631812D01*
X140087000Y-93759108D01*
X140087000Y-95040892D01*
X140067315Y-95107931D01*
X140037312Y-95140158D01*
X139967452Y-95192455D01*
X139881206Y-95307664D01*
X139881202Y-95307671D01*
X139830908Y-95442517D01*
X139824501Y-95502116D01*
X139824501Y-95502123D01*
X139824500Y-95502135D01*
X139824500Y-96003824D01*
X139804815Y-96070863D01*
X139788181Y-96091505D01*
X137966505Y-97913181D01*
X137905182Y-97946666D01*
X137878824Y-97949500D01*
X135556944Y-97949500D01*
X135489905Y-97929815D01*
X135445945Y-97880774D01*
X135439673Y-97868178D01*
X135316762Y-97705418D01*
X135166041Y-97568019D01*
X135166039Y-97568017D01*
X134992642Y-97460655D01*
X134992635Y-97460651D01*
X134897546Y-97423814D01*
X134802456Y-97386976D01*
X134601976Y-97349500D01*
X134398024Y-97349500D01*
X134197544Y-97386976D01*
X134197541Y-97386976D01*
X134197541Y-97386977D01*
X134007364Y-97460651D01*
X134007357Y-97460655D01*
X133833960Y-97568017D01*
X133833958Y-97568019D01*
X133683237Y-97705418D01*
X133560327Y-97868178D01*
X133469422Y-98050739D01*
X133469417Y-98050752D01*
X133413602Y-98246917D01*
X133394785Y-98449999D01*
X133394785Y-98450000D01*
X132605215Y-98450000D01*
X132586397Y-98246917D01*
X132530582Y-98050750D01*
X132495340Y-97979975D01*
X132462081Y-97913181D01*
X132439673Y-97868179D01*
X132324316Y-97715421D01*
X132316762Y-97705418D01*
X132166041Y-97568019D01*
X132166039Y-97568017D01*
X131992642Y-97460655D01*
X131992635Y-97460651D01*
X131897546Y-97423814D01*
X131802456Y-97386976D01*
X131601976Y-97349500D01*
X131398024Y-97349500D01*
X131197544Y-97386976D01*
X131197541Y-97386976D01*
X131197541Y-97386977D01*
X131007364Y-97460651D01*
X131007357Y-97460655D01*
X130833960Y-97568017D01*
X130833958Y-97568019D01*
X130683237Y-97705418D01*
X130560327Y-97868178D01*
X130469422Y-98050739D01*
X130469417Y-98050752D01*
X130413602Y-98246917D01*
X130394785Y-98449999D01*
X130394785Y-98450000D01*
X129605215Y-98450000D01*
X129586397Y-98246917D01*
X129530582Y-98050750D01*
X129495340Y-97979975D01*
X129462081Y-97913181D01*
X129439673Y-97868179D01*
X129324316Y-97715421D01*
X129316762Y-97705418D01*
X129166041Y-97568019D01*
X129166039Y-97568017D01*
X128992642Y-97460655D01*
X128992635Y-97460651D01*
X128897546Y-97423814D01*
X128802456Y-97386976D01*
X128601976Y-97349500D01*
X128398024Y-97349500D01*
X128197544Y-97386976D01*
X128197541Y-97386976D01*
X128197541Y-97386977D01*
X128007364Y-97460651D01*
X128007357Y-97460655D01*
X127833960Y-97568017D01*
X127833958Y-97568019D01*
X127683237Y-97705418D01*
X127560327Y-97868178D01*
X127469422Y-98050739D01*
X127469417Y-98050752D01*
X127413602Y-98246917D01*
X127394785Y-98449999D01*
X127394785Y-98450000D01*
X126750500Y-98450000D01*
X126750500Y-98351578D01*
X126719709Y-98157173D01*
X126685126Y-98050739D01*
X126658884Y-97969974D01*
X126658882Y-97969971D01*
X126658882Y-97969969D01*
X126574619Y-97804595D01*
X126569524Y-97794595D01*
X126453828Y-97635354D01*
X126314646Y-97496172D01*
X126155405Y-97380476D01*
X126145637Y-97375499D01*
X125980030Y-97291117D01*
X125792826Y-97230290D01*
X125598421Y-97199500D01*
X125598416Y-97199500D01*
X125401583Y-97199500D01*
X125401579Y-97199500D01*
X125348086Y-97207973D01*
X125328687Y-97209500D01*
X123316216Y-97209500D01*
X123249177Y-97189815D01*
X123203422Y-97137011D01*
X123193478Y-97067853D01*
X123213114Y-97016609D01*
X123284716Y-96909448D01*
X123284716Y-96909447D01*
X123284720Y-96909442D01*
X123351471Y-96748291D01*
X123385499Y-96577218D01*
X136614500Y-96577218D01*
X136648527Y-96748283D01*
X136648529Y-96748291D01*
X136715278Y-96909439D01*
X136715283Y-96909448D01*
X136812186Y-97054473D01*
X136812189Y-97054477D01*
X136935522Y-97177810D01*
X136935526Y-97177813D01*
X137080551Y-97274716D01*
X137080560Y-97274721D01*
X137117066Y-97289842D01*
X137241709Y-97341471D01*
X137412781Y-97375499D01*
X137412785Y-97375500D01*
X137412786Y-97375500D01*
X137587215Y-97375500D01*
X137587216Y-97375499D01*
X137758291Y-97341471D01*
X137919442Y-97274720D01*
X138064474Y-97177813D01*
X138187813Y-97054474D01*
X138284720Y-96909442D01*
X138351471Y-96748291D01*
X138385500Y-96577214D01*
X138385500Y-96402786D01*
X138351471Y-96231709D01*
X138288859Y-96080551D01*
X138284721Y-96070560D01*
X138284716Y-96070551D01*
X138187813Y-95925526D01*
X138187810Y-95925522D01*
X138064477Y-95802189D01*
X138064473Y-95802186D01*
X137919448Y-95705283D01*
X137919439Y-95705278D01*
X137758291Y-95638529D01*
X137758283Y-95638527D01*
X137587218Y-95604500D01*
X137587214Y-95604500D01*
X137412786Y-95604500D01*
X137412781Y-95604500D01*
X137241716Y-95638527D01*
X137241708Y-95638529D01*
X137080560Y-95705278D01*
X137080551Y-95705283D01*
X136935526Y-95802186D01*
X136935522Y-95802189D01*
X136812189Y-95925522D01*
X136812186Y-95925526D01*
X136715283Y-96070551D01*
X136715278Y-96070560D01*
X136648529Y-96231708D01*
X136648527Y-96231716D01*
X136614500Y-96402781D01*
X136614500Y-96577218D01*
X123385499Y-96577218D01*
X123385500Y-96577214D01*
X123385500Y-96402786D01*
X123351471Y-96231709D01*
X123288859Y-96080551D01*
X123284721Y-96070560D01*
X123284716Y-96070551D01*
X123187813Y-95925526D01*
X123187810Y-95925522D01*
X123064477Y-95802189D01*
X123064473Y-95802186D01*
X122919448Y-95705283D01*
X122919439Y-95705278D01*
X122758291Y-95638529D01*
X122758283Y-95638527D01*
X122587218Y-95604500D01*
X122587214Y-95604500D01*
X122412786Y-95604500D01*
X122412781Y-95604500D01*
X122241716Y-95638527D01*
X122241708Y-95638529D01*
X122080560Y-95705278D01*
X122080551Y-95705283D01*
X121935526Y-95802186D01*
X121935522Y-95802189D01*
X121812189Y-95925522D01*
X121812186Y-95925526D01*
X121715283Y-96070551D01*
X121715278Y-96070560D01*
X121648529Y-96231708D01*
X121648527Y-96231716D01*
X121614500Y-96402781D01*
X121614500Y-96577218D01*
X121648527Y-96748283D01*
X121648529Y-96748291D01*
X121715278Y-96909439D01*
X121715283Y-96909448D01*
X121786886Y-97016609D01*
X121807764Y-97083287D01*
X121789279Y-97150667D01*
X121737301Y-97197357D01*
X121683784Y-97209500D01*
X116822898Y-97209500D01*
X116755859Y-97189815D01*
X116710104Y-97137011D01*
X116700160Y-97067853D01*
X116719796Y-97016609D01*
X116784716Y-96919448D01*
X116784716Y-96919447D01*
X116784720Y-96919442D01*
X116851471Y-96758291D01*
X116885500Y-96587214D01*
X116885500Y-96412786D01*
X116851471Y-96241709D01*
X116799842Y-96117066D01*
X116784721Y-96080560D01*
X116784716Y-96080551D01*
X116687813Y-95935526D01*
X116687810Y-95935522D01*
X116564477Y-95812189D01*
X116564473Y-95812186D01*
X116419448Y-95715283D01*
X116419439Y-95715278D01*
X116258291Y-95648529D01*
X116258283Y-95648527D01*
X116087218Y-95614500D01*
X116087214Y-95614500D01*
X115912786Y-95614500D01*
X115912781Y-95614500D01*
X115741716Y-95648527D01*
X115741708Y-95648529D01*
X115580560Y-95715278D01*
X115580551Y-95715283D01*
X115435526Y-95812186D01*
X115435522Y-95812189D01*
X115312189Y-95935522D01*
X115312186Y-95935526D01*
X115215283Y-96080551D01*
X115215278Y-96080560D01*
X115148529Y-96241708D01*
X115148527Y-96241716D01*
X115114500Y-96412781D01*
X115114500Y-96587218D01*
X115148527Y-96758283D01*
X115148529Y-96758291D01*
X115215278Y-96919439D01*
X115215283Y-96919448D01*
X115280204Y-97016609D01*
X115301082Y-97083287D01*
X115282597Y-97150667D01*
X115230618Y-97197357D01*
X115177102Y-97209500D01*
X112901578Y-97209500D01*
X112707173Y-97240290D01*
X112519970Y-97301117D01*
X112344594Y-97390476D01*
X112253741Y-97456485D01*
X112185354Y-97506172D01*
X112185352Y-97506174D01*
X112185351Y-97506174D01*
X112046174Y-97645351D01*
X112046174Y-97645352D01*
X112046172Y-97645354D01*
X112002533Y-97705418D01*
X111930476Y-97804594D01*
X111841117Y-97979970D01*
X111780290Y-98167173D01*
X111749500Y-98361577D01*
X111749500Y-98558422D01*
X111780290Y-98752826D01*
X111841117Y-98940029D01*
X111887888Y-99031821D01*
X111930476Y-99115405D01*
X111975818Y-99177812D01*
X111999298Y-99243618D01*
X111999500Y-99250697D01*
X111999500Y-101860858D01*
X111979815Y-101927897D01*
X111927011Y-101973652D01*
X111918847Y-101977034D01*
X111907669Y-101981204D01*
X111907668Y-101981204D01*
X111907667Y-101981205D01*
X111799383Y-102062267D01*
X111733919Y-102086684D01*
X111725072Y-102087000D01*
X108822648Y-102087000D01*
X108766353Y-102073485D01*
X108763343Y-102071951D01*
X108763342Y-102071950D01*
X108650304Y-102014354D01*
X108650303Y-102014353D01*
X108650300Y-102014352D01*
X108650301Y-102014352D01*
X108556524Y-101999500D01*
X107318482Y-101999500D01*
X107237519Y-102012323D01*
X107224696Y-102014354D01*
X107111658Y-102071950D01*
X107111657Y-102071951D01*
X107111652Y-102071954D01*
X107021954Y-102161652D01*
X107021951Y-102161657D01*
X107021950Y-102161658D01*
X107002751Y-102199337D01*
X106964352Y-102274698D01*
X106949500Y-102368475D01*
X106949500Y-102731517D01*
X106960090Y-102798384D01*
X106961561Y-102807671D01*
X106965881Y-102834943D01*
X106963857Y-102835263D01*
X106965490Y-102892516D01*
X106929407Y-102952347D01*
X106866704Y-102983171D01*
X106797290Y-102975203D01*
X106789280Y-102971475D01*
X106775304Y-102964354D01*
X106775303Y-102964353D01*
X106775300Y-102964352D01*
X106775301Y-102964352D01*
X106681524Y-102949500D01*
X105443482Y-102949500D01*
X105349694Y-102964354D01*
X105307243Y-102985985D01*
X105250948Y-102999500D01*
X104776440Y-102999500D01*
X104709401Y-102979815D01*
X104663646Y-102927011D01*
X104660258Y-102918833D01*
X104618797Y-102807671D01*
X104618793Y-102807664D01*
X104532547Y-102692455D01*
X104532544Y-102692452D01*
X104417335Y-102606206D01*
X104417328Y-102606202D01*
X104282486Y-102555910D01*
X104282485Y-102555909D01*
X104282483Y-102555909D01*
X104222873Y-102549500D01*
X104222863Y-102549500D01*
X103602129Y-102549500D01*
X103602123Y-102549501D01*
X103542516Y-102555908D01*
X103407671Y-102606202D01*
X103407664Y-102606206D01*
X103292455Y-102692452D01*
X103292452Y-102692455D01*
X103206206Y-102807664D01*
X103206202Y-102807671D01*
X103155908Y-102942517D01*
X103149958Y-102997864D01*
X103149501Y-103002123D01*
X103149500Y-103002135D01*
X103149500Y-103997870D01*
X102850500Y-103997870D01*
X102850499Y-103002128D01*
X102844091Y-102942517D01*
X102835257Y-102918833D01*
X102793797Y-102807671D01*
X102793793Y-102807664D01*
X102707547Y-102692455D01*
X102707544Y-102692452D01*
X102592335Y-102606206D01*
X102592328Y-102606202D01*
X102457486Y-102555910D01*
X102457485Y-102555909D01*
X102457483Y-102555909D01*
X102397873Y-102549500D01*
X102397863Y-102549500D01*
X101777129Y-102549500D01*
X101777123Y-102549501D01*
X101717516Y-102555908D01*
X101582671Y-102606202D01*
X101582664Y-102606206D01*
X101467455Y-102692452D01*
X101467452Y-102692455D01*
X101381206Y-102807664D01*
X101381202Y-102807671D01*
X101330908Y-102942517D01*
X101324958Y-102997864D01*
X101324501Y-103002123D01*
X101324500Y-103002135D01*
X101324500Y-103997870D01*
X100000500Y-103997870D01*
X100000500Y-98460000D01*
X108894785Y-98460000D01*
X108913602Y-98663082D01*
X108969417Y-98859247D01*
X108969422Y-98859260D01*
X109060327Y-99041821D01*
X109183237Y-99204581D01*
X109333958Y-99341980D01*
X109333960Y-99341982D01*
X109433141Y-99403392D01*
X109507363Y-99449348D01*
X109697544Y-99523024D01*
X109898024Y-99560500D01*
X109898026Y-99560500D01*
X110101974Y-99560500D01*
X110101976Y-99560500D01*
X110302456Y-99523024D01*
X110492637Y-99449348D01*
X110666041Y-99341981D01*
X110816764Y-99204579D01*
X110939673Y-99041821D01*
X111030582Y-98859250D01*
X111086397Y-98663083D01*
X111105215Y-98460000D01*
X111086397Y-98256917D01*
X111030582Y-98060750D01*
X111025597Y-98050739D01*
X110973775Y-97946666D01*
X110939673Y-97878179D01*
X110816764Y-97715421D01*
X110816762Y-97715418D01*
X110666041Y-97578019D01*
X110666039Y-97578017D01*
X110492642Y-97470655D01*
X110492635Y-97470651D01*
X110397546Y-97433814D01*
X110302456Y-97396976D01*
X110101976Y-97359500D01*
X109898024Y-97359500D01*
X109697544Y-97396976D01*
X109697541Y-97396976D01*
X109697541Y-97396977D01*
X109507364Y-97470651D01*
X109507357Y-97470655D01*
X109333960Y-97578017D01*
X109333958Y-97578019D01*
X109183237Y-97715418D01*
X109060327Y-97878178D01*
X108969422Y-98060739D01*
X108969417Y-98060752D01*
X108913602Y-98256917D01*
X108894785Y-98459999D01*
X108894785Y-98460000D01*
X100000500Y-98460000D01*
X100000500Y-96587218D01*
X106114500Y-96587218D01*
X106148527Y-96758283D01*
X106148529Y-96758291D01*
X106215278Y-96919439D01*
X106215283Y-96919448D01*
X106312186Y-97064473D01*
X106312189Y-97064477D01*
X106435522Y-97187810D01*
X106435526Y-97187813D01*
X106580551Y-97284716D01*
X106580560Y-97284721D01*
X106617066Y-97299842D01*
X106741709Y-97351471D01*
X106912781Y-97385499D01*
X106912785Y-97385500D01*
X106912786Y-97385500D01*
X107087215Y-97385500D01*
X107087216Y-97385499D01*
X107258291Y-97351471D01*
X107419442Y-97284720D01*
X107564474Y-97187813D01*
X107687813Y-97064474D01*
X107784720Y-96919442D01*
X107851471Y-96758291D01*
X107885500Y-96587214D01*
X107885500Y-96412786D01*
X107851471Y-96241709D01*
X107799842Y-96117066D01*
X107784721Y-96080560D01*
X107784716Y-96080551D01*
X107687813Y-95935526D01*
X107687810Y-95935522D01*
X107564477Y-95812189D01*
X107564473Y-95812186D01*
X107419448Y-95715283D01*
X107419439Y-95715278D01*
X107258291Y-95648529D01*
X107258283Y-95648527D01*
X107087218Y-95614500D01*
X107087214Y-95614500D01*
X106912786Y-95614500D01*
X106912781Y-95614500D01*
X106741716Y-95648527D01*
X106741708Y-95648529D01*
X106580560Y-95715278D01*
X106580551Y-95715283D01*
X106435526Y-95812186D01*
X106435522Y-95812189D01*
X106312189Y-95935522D01*
X106312186Y-95935526D01*
X106215283Y-96080551D01*
X106215278Y-96080560D01*
X106148529Y-96241708D01*
X106148527Y-96241716D01*
X106114500Y-96412781D01*
X106114500Y-96587218D01*
X100000500Y-96587218D01*
X100000500Y-92497870D01*
X101324500Y-92497870D01*
X101324501Y-92497876D01*
X101330908Y-92557483D01*
X101381202Y-92692328D01*
X101381206Y-92692335D01*
X101467452Y-92807544D01*
X101467455Y-92807547D01*
X101582664Y-92893793D01*
X101582671Y-92893797D01*
X101627618Y-92910561D01*
X101717517Y-92944091D01*
X101777127Y-92950500D01*
X102397872Y-92950499D01*
X102457483Y-92944091D01*
X102592331Y-92893796D01*
X102707546Y-92807546D01*
X102793796Y-92692331D01*
X102844091Y-92557483D01*
X102850500Y-92497873D01*
X102850500Y-92497870D01*
X103149500Y-92497870D01*
X103149501Y-92497876D01*
X103155908Y-92557483D01*
X103206202Y-92692328D01*
X103206206Y-92692335D01*
X103292452Y-92807544D01*
X103292455Y-92807547D01*
X103407664Y-92893793D01*
X103407671Y-92893797D01*
X103452618Y-92910561D01*
X103542517Y-92944091D01*
X103602127Y-92950500D01*
X104222872Y-92950499D01*
X104282483Y-92944091D01*
X104417331Y-92893796D01*
X104532546Y-92807546D01*
X104618796Y-92692331D01*
X104669091Y-92557483D01*
X104669091Y-92557481D01*
X104670874Y-92549938D01*
X104673146Y-92550474D01*
X104695429Y-92496688D01*
X104752823Y-92456843D01*
X104791976Y-92450500D01*
X105313448Y-92450500D01*
X105369742Y-92464015D01*
X105412198Y-92485647D01*
X105505975Y-92500499D01*
X105505981Y-92500500D01*
X106744018Y-92500499D01*
X106837804Y-92485646D01*
X106851773Y-92478528D01*
X106920438Y-92465632D01*
X106985179Y-92491907D01*
X107025437Y-92549012D01*
X107028268Y-92615039D01*
X107028380Y-92615057D01*
X107028293Y-92615605D01*
X107028431Y-92618818D01*
X107026981Y-92623888D01*
X107012000Y-92718475D01*
X107012000Y-93081517D01*
X107022590Y-93148384D01*
X107023749Y-93155701D01*
X107028381Y-93184943D01*
X107025862Y-93185341D01*
X107027442Y-93240839D01*
X106995200Y-93296984D01*
X106826317Y-93465867D01*
X106786089Y-93492747D01*
X106722378Y-93519137D01*
X106722375Y-93519138D01*
X106722375Y-93519139D01*
X106615183Y-93601391D01*
X106607379Y-93607379D01*
X106519137Y-93722377D01*
X106463671Y-93856287D01*
X106463670Y-93856291D01*
X106444750Y-93999999D01*
X106444750Y-94000000D01*
X106463670Y-94143708D01*
X106463671Y-94143712D01*
X106519137Y-94277622D01*
X106519138Y-94277624D01*
X106519139Y-94277625D01*
X106607379Y-94392621D01*
X106722375Y-94480861D01*
X106856291Y-94536330D01*
X106983280Y-94553048D01*
X106999999Y-94555250D01*
X107000000Y-94555250D01*
X107000001Y-94555250D01*
X107014977Y-94553278D01*
X107143709Y-94536330D01*
X107277625Y-94480861D01*
X107392621Y-94392621D01*
X107480861Y-94277625D01*
X107507252Y-94213907D01*
X107534129Y-94173683D01*
X108220995Y-93486818D01*
X108282318Y-93453333D01*
X108308676Y-93450499D01*
X108619017Y-93450499D01*
X108619018Y-93450499D01*
X108712804Y-93435646D01*
X108825842Y-93378050D01*
X108915550Y-93288342D01*
X108973146Y-93175304D01*
X108973146Y-93175302D01*
X108973147Y-93175301D01*
X108975174Y-93162500D01*
X111300001Y-93162500D01*
X111300001Y-93224986D01*
X111310494Y-93327697D01*
X111365641Y-93494119D01*
X111365643Y-93494124D01*
X111457684Y-93643345D01*
X111581654Y-93767315D01*
X111730875Y-93859356D01*
X111730880Y-93859358D01*
X111897302Y-93914505D01*
X111897309Y-93914506D01*
X112000019Y-93924999D01*
X112249999Y-93924999D01*
X112250000Y-93924998D01*
X112250000Y-93162500D01*
X112750000Y-93162500D01*
X112750000Y-93924999D01*
X112999972Y-93924999D01*
X112999986Y-93924998D01*
X113102697Y-93914505D01*
X113269119Y-93859358D01*
X113269124Y-93859356D01*
X113418345Y-93767315D01*
X113542315Y-93643345D01*
X113634356Y-93494124D01*
X113634358Y-93494119D01*
X113689505Y-93327697D01*
X113689506Y-93327690D01*
X113690648Y-93316517D01*
X127749500Y-93316517D01*
X127759246Y-93378050D01*
X127764354Y-93410304D01*
X127821950Y-93523342D01*
X127821952Y-93523344D01*
X127821954Y-93523347D01*
X127911652Y-93613045D01*
X127911654Y-93613046D01*
X127911658Y-93613050D01*
X128024694Y-93670645D01*
X128024698Y-93670647D01*
X128118475Y-93685499D01*
X128118481Y-93685500D01*
X129506518Y-93685499D01*
X129600304Y-93670646D01*
X129642772Y-93649007D01*
X129682884Y-93636553D01*
X129690879Y-93635500D01*
X129690891Y-93635500D01*
X129818185Y-93601392D01*
X129932313Y-93535500D01*
X130082812Y-93385001D01*
X133877704Y-93385001D01*
X133877899Y-93387486D01*
X133923718Y-93545198D01*
X134007314Y-93686552D01*
X134007321Y-93686561D01*
X134123438Y-93802678D01*
X134123447Y-93802685D01*
X134264803Y-93886282D01*
X134264806Y-93886283D01*
X134422504Y-93932099D01*
X134422510Y-93932100D01*
X134459350Y-93934999D01*
X134459366Y-93935000D01*
X134937500Y-93935000D01*
X134937500Y-93385000D01*
X135437500Y-93385000D01*
X135437500Y-93935000D01*
X135915634Y-93935000D01*
X135915649Y-93934999D01*
X135952489Y-93932100D01*
X135952495Y-93932099D01*
X136110193Y-93886283D01*
X136110196Y-93886282D01*
X136251552Y-93802685D01*
X136251561Y-93802678D01*
X136367678Y-93686561D01*
X136367685Y-93686552D01*
X136451281Y-93545198D01*
X136497100Y-93387486D01*
X136497295Y-93385001D01*
X136497295Y-93385000D01*
X135437500Y-93385000D01*
X134937500Y-93385000D01*
X133877705Y-93385000D01*
X133877704Y-93385001D01*
X130082812Y-93385001D01*
X134900500Y-88567313D01*
X134966392Y-88453185D01*
X135000500Y-88325891D01*
X135000500Y-88003546D01*
X135020185Y-87936507D01*
X135059218Y-87898122D01*
X135166041Y-87831981D01*
X135316764Y-87694579D01*
X135439673Y-87531821D01*
X135530582Y-87349250D01*
X135586397Y-87153083D01*
X135605215Y-86950000D01*
X135586397Y-86746917D01*
X135530582Y-86550750D01*
X135439673Y-86368179D01*
X135316764Y-86205421D01*
X135316762Y-86205418D01*
X135166041Y-86068019D01*
X135166039Y-86068017D01*
X134992642Y-85960655D01*
X134992635Y-85960651D01*
X134897546Y-85923814D01*
X134802456Y-85886976D01*
X134601976Y-85849500D01*
X134398024Y-85849500D01*
X134197544Y-85886976D01*
X134197541Y-85886976D01*
X134197541Y-85886977D01*
X134007364Y-85960651D01*
X134007357Y-85960655D01*
X133833960Y-86068017D01*
X133833958Y-86068019D01*
X133683237Y-86205418D01*
X133560327Y-86368178D01*
X133469422Y-86550739D01*
X133469417Y-86550752D01*
X133413602Y-86746917D01*
X133394785Y-86949999D01*
X133394785Y-86950000D01*
X133413602Y-87153082D01*
X133469417Y-87349247D01*
X133469422Y-87349260D01*
X133560327Y-87531821D01*
X133683237Y-87694581D01*
X133833958Y-87831980D01*
X133833960Y-87831982D01*
X133939403Y-87897269D01*
X133986039Y-87949296D01*
X133997143Y-88018278D01*
X133969190Y-88082313D01*
X133961807Y-88090377D01*
X130087180Y-91965003D01*
X130025857Y-91998488D01*
X129956165Y-91993504D01*
X129900232Y-91951632D01*
X129875815Y-91886168D01*
X129875499Y-91877336D01*
X129875499Y-91683482D01*
X129860646Y-91589696D01*
X129803050Y-91476658D01*
X129803046Y-91476654D01*
X129803045Y-91476652D01*
X129713347Y-91386954D01*
X129713344Y-91386952D01*
X129713342Y-91386950D01*
X129626136Y-91342516D01*
X129600301Y-91329352D01*
X129506524Y-91314500D01*
X129506519Y-91314500D01*
X129437000Y-91314500D01*
X129369961Y-91294815D01*
X129324206Y-91242011D01*
X129313000Y-91190500D01*
X129313000Y-89896175D01*
X129332685Y-89829136D01*
X129349314Y-89808499D01*
X131106880Y-88050932D01*
X131168203Y-88017448D01*
X131217342Y-88016725D01*
X131398024Y-88050500D01*
X131398026Y-88050500D01*
X131601974Y-88050500D01*
X131601976Y-88050500D01*
X131802456Y-88013024D01*
X131992637Y-87939348D01*
X132166041Y-87831981D01*
X132316764Y-87694579D01*
X132439673Y-87531821D01*
X132530582Y-87349250D01*
X132586397Y-87153083D01*
X132605215Y-86950000D01*
X132586397Y-86746917D01*
X132530582Y-86550750D01*
X132439673Y-86368179D01*
X132316764Y-86205421D01*
X132316762Y-86205418D01*
X132166041Y-86068019D01*
X132166039Y-86068017D01*
X131992642Y-85960655D01*
X131992635Y-85960651D01*
X131897546Y-85923814D01*
X131802456Y-85886976D01*
X131601976Y-85849500D01*
X131398024Y-85849500D01*
X131197544Y-85886976D01*
X131197541Y-85886976D01*
X131197541Y-85886977D01*
X131007364Y-85960651D01*
X131007357Y-85960655D01*
X130833960Y-86068017D01*
X130833958Y-86068019D01*
X130683237Y-86205418D01*
X130560327Y-86368178D01*
X130469422Y-86550739D01*
X130469417Y-86550752D01*
X130413602Y-86746917D01*
X130394785Y-86949999D01*
X130394785Y-86950000D01*
X130413602Y-87153079D01*
X130413602Y-87153082D01*
X130413603Y-87153083D01*
X130432534Y-87219622D01*
X130431947Y-87289487D01*
X130400949Y-87341235D01*
X128505186Y-89237000D01*
X128412002Y-89330183D01*
X128412000Y-89330186D01*
X128346108Y-89444312D01*
X128312000Y-89571608D01*
X128312000Y-91190500D01*
X128292315Y-91257539D01*
X128239511Y-91303294D01*
X128188002Y-91314500D01*
X128118483Y-91314500D01*
X128039550Y-91327001D01*
X128024696Y-91329354D01*
X127911658Y-91386950D01*
X127911657Y-91386951D01*
X127911652Y-91386954D01*
X127821954Y-91476652D01*
X127821951Y-91476657D01*
X127821950Y-91476658D01*
X127808975Y-91502123D01*
X127764352Y-91589698D01*
X127749500Y-91683475D01*
X127749500Y-92046517D01*
X127751269Y-92057684D01*
X127764354Y-92140304D01*
X127821950Y-92253342D01*
X127821952Y-92253344D01*
X127821954Y-92253347D01*
X127911652Y-92343045D01*
X127911654Y-92343046D01*
X127911658Y-92343050D01*
X128002851Y-92389515D01*
X128053647Y-92437490D01*
X128070442Y-92505311D01*
X128047904Y-92571446D01*
X128002852Y-92610484D01*
X127911658Y-92656950D01*
X127911657Y-92656951D01*
X127911652Y-92656954D01*
X127821954Y-92746652D01*
X127821951Y-92746657D01*
X127764352Y-92859698D01*
X127749500Y-92953475D01*
X127749500Y-93316517D01*
X113690648Y-93316517D01*
X113699999Y-93224986D01*
X113700000Y-93224973D01*
X113700000Y-93162500D01*
X112750000Y-93162500D01*
X112250000Y-93162500D01*
X111300001Y-93162500D01*
X108975174Y-93162500D01*
X108987999Y-93081524D01*
X108988000Y-93081519D01*
X108987999Y-92718482D01*
X108973146Y-92624696D01*
X108915550Y-92511658D01*
X108915546Y-92511654D01*
X108915545Y-92511652D01*
X108825847Y-92421954D01*
X108825844Y-92421952D01*
X108825842Y-92421950D01*
X108749017Y-92382805D01*
X108712801Y-92364352D01*
X108619024Y-92349500D01*
X107380982Y-92349500D01*
X107287196Y-92364354D01*
X107273224Y-92371473D01*
X107204555Y-92384367D01*
X107139815Y-92358088D01*
X107099560Y-92300981D01*
X107096732Y-92234960D01*
X107096620Y-92234943D01*
X107096707Y-92234389D01*
X107096570Y-92231175D01*
X107098019Y-92226105D01*
X107105059Y-92181654D01*
X107113000Y-92131519D01*
X107112999Y-91768482D01*
X107098146Y-91674696D01*
X107098145Y-91674694D01*
X107096619Y-91665057D01*
X107098642Y-91664736D01*
X107097006Y-91607494D01*
X107133084Y-91547660D01*
X107195784Y-91516830D01*
X107265198Y-91524792D01*
X107273208Y-91528519D01*
X107287196Y-91535646D01*
X107287198Y-91535646D01*
X107287200Y-91535647D01*
X107287198Y-91535647D01*
X107380975Y-91550499D01*
X107380981Y-91550500D01*
X108619018Y-91550499D01*
X108712804Y-91535646D01*
X108755257Y-91514014D01*
X108811552Y-91500500D01*
X111485859Y-91500500D01*
X111552898Y-91520185D01*
X111598653Y-91572989D01*
X111602030Y-91581140D01*
X111606204Y-91592331D01*
X111606205Y-91592332D01*
X111606206Y-91592335D01*
X111692452Y-91707544D01*
X111692455Y-91707547D01*
X111753841Y-91753501D01*
X111795712Y-91809435D01*
X111800696Y-91879126D01*
X111767210Y-91940449D01*
X111736910Y-91961664D01*
X111737025Y-91961851D01*
X111733831Y-91963820D01*
X111731936Y-91965148D01*
X111730885Y-91965637D01*
X111581654Y-92057684D01*
X111457684Y-92181654D01*
X111365643Y-92330875D01*
X111365641Y-92330880D01*
X111310494Y-92497302D01*
X111310493Y-92497309D01*
X111300000Y-92600013D01*
X111300000Y-92662500D01*
X113699999Y-92662500D01*
X113699999Y-92600028D01*
X113699998Y-92600013D01*
X113689505Y-92497302D01*
X113634358Y-92330880D01*
X113634356Y-92330875D01*
X113542315Y-92181654D01*
X113418345Y-92057684D01*
X113269121Y-91965642D01*
X113268068Y-91965151D01*
X113267466Y-91964621D01*
X113262975Y-91961851D01*
X113263448Y-91961083D01*
X113215627Y-91918981D01*
X113196473Y-91851788D01*
X113216686Y-91784906D01*
X113246154Y-91753503D01*
X113307546Y-91707546D01*
X113393796Y-91592331D01*
X113444091Y-91457483D01*
X113450500Y-91397873D01*
X113450499Y-90777128D01*
X113444091Y-90717517D01*
X113393796Y-90582669D01*
X113393795Y-90582668D01*
X113393793Y-90582664D01*
X113307547Y-90467455D01*
X113302273Y-90462181D01*
X113268788Y-90400858D01*
X113273772Y-90331166D01*
X113315644Y-90275233D01*
X113381108Y-90250816D01*
X113389954Y-90250500D01*
X123548422Y-90250500D01*
X123742826Y-90219709D01*
X123784602Y-90206135D01*
X123930026Y-90158884D01*
X124105405Y-90069524D01*
X124264646Y-89953828D01*
X126453828Y-87764646D01*
X126569524Y-87605405D01*
X126658884Y-87430026D01*
X126719709Y-87242826D01*
X126750500Y-87048421D01*
X126750500Y-86950000D01*
X127394785Y-86950000D01*
X127413602Y-87153082D01*
X127469417Y-87349247D01*
X127469422Y-87349260D01*
X127560327Y-87531821D01*
X127683237Y-87694581D01*
X127833958Y-87831980D01*
X127833960Y-87831982D01*
X127933141Y-87893392D01*
X128007363Y-87939348D01*
X128197544Y-88013024D01*
X128398024Y-88050500D01*
X128398026Y-88050500D01*
X128601974Y-88050500D01*
X128601976Y-88050500D01*
X128802456Y-88013024D01*
X128992637Y-87939348D01*
X129166041Y-87831981D01*
X129316764Y-87694579D01*
X129439673Y-87531821D01*
X129530582Y-87349250D01*
X129586397Y-87153083D01*
X129605215Y-86950000D01*
X129586397Y-86746917D01*
X129530582Y-86550750D01*
X129439673Y-86368179D01*
X129316764Y-86205421D01*
X129316762Y-86205418D01*
X129166041Y-86068019D01*
X129166039Y-86068017D01*
X128992642Y-85960655D01*
X128992635Y-85960651D01*
X128897546Y-85923814D01*
X128802456Y-85886976D01*
X128601976Y-85849500D01*
X128398024Y-85849500D01*
X128197544Y-85886976D01*
X128197541Y-85886976D01*
X128197541Y-85886977D01*
X128007364Y-85960651D01*
X128007357Y-85960655D01*
X127833960Y-86068017D01*
X127833958Y-86068019D01*
X127683237Y-86205418D01*
X127560327Y-86368178D01*
X127469422Y-86550739D01*
X127469417Y-86550752D01*
X127413602Y-86746917D01*
X127394785Y-86949999D01*
X127394785Y-86950000D01*
X126750500Y-86950000D01*
X126750500Y-86851577D01*
X126719709Y-86657173D01*
X126658882Y-86469969D01*
X126569523Y-86294594D01*
X126453828Y-86135354D01*
X126314646Y-85996172D01*
X126155405Y-85880476D01*
X126145637Y-85875499D01*
X125980030Y-85791117D01*
X125792826Y-85730290D01*
X125598422Y-85699500D01*
X125598417Y-85699500D01*
X125401584Y-85699500D01*
X125401579Y-85699500D01*
X125207173Y-85730290D01*
X125019969Y-85791117D01*
X124844594Y-85880476D01*
X124753741Y-85946485D01*
X124685354Y-85996172D01*
X124685352Y-85996174D01*
X124685351Y-85996174D01*
X122968345Y-87713181D01*
X122907022Y-87746666D01*
X122880664Y-87749500D01*
X114024315Y-87749500D01*
X113957276Y-87729815D01*
X113911521Y-87677011D01*
X113901577Y-87607853D01*
X113925361Y-87550773D01*
X113939673Y-87531821D01*
X114030582Y-87349250D01*
X114086397Y-87153083D01*
X114105215Y-86950000D01*
X114086397Y-86746917D01*
X114030582Y-86550750D01*
X113939673Y-86368179D01*
X113816764Y-86205421D01*
X113816762Y-86205418D01*
X113666041Y-86068019D01*
X113666039Y-86068017D01*
X113492642Y-85960655D01*
X113492635Y-85960651D01*
X113397546Y-85923814D01*
X113302456Y-85886976D01*
X113101976Y-85849500D01*
X112898024Y-85849500D01*
X112697544Y-85886976D01*
X112697541Y-85886976D01*
X112697541Y-85886977D01*
X112507364Y-85960651D01*
X112507357Y-85960655D01*
X112333960Y-86068017D01*
X112333958Y-86068019D01*
X112183237Y-86205418D01*
X112060327Y-86368178D01*
X111969422Y-86550739D01*
X111969417Y-86550752D01*
X111913603Y-86746917D01*
X111908445Y-86802580D01*
X111882659Y-86867517D01*
X111825858Y-86908204D01*
X111756077Y-86911724D01*
X111697293Y-86878819D01*
X110814648Y-85996174D01*
X110814646Y-85996172D01*
X110655405Y-85880476D01*
X110645637Y-85875499D01*
X110480030Y-85791117D01*
X110292826Y-85730290D01*
X110098422Y-85699500D01*
X110098417Y-85699500D01*
X109901583Y-85699500D01*
X109901578Y-85699500D01*
X109707173Y-85730290D01*
X109519969Y-85791117D01*
X109344594Y-85880476D01*
X109253741Y-85946485D01*
X109185354Y-85996172D01*
X109185352Y-85996174D01*
X109185351Y-85996174D01*
X109046174Y-86135351D01*
X109046174Y-86135352D01*
X109046172Y-86135354D01*
X108996485Y-86203741D01*
X108930476Y-86294594D01*
X108841117Y-86469969D01*
X108780290Y-86657173D01*
X108749500Y-86851577D01*
X108749500Y-87048422D01*
X108780290Y-87242826D01*
X108841117Y-87430030D01*
X108930476Y-87605405D01*
X109046172Y-87764646D01*
X111235354Y-89953828D01*
X111394595Y-90069524D01*
X111569974Y-90158884D01*
X111715398Y-90206135D01*
X111773074Y-90245573D01*
X111800272Y-90309931D01*
X111788357Y-90378778D01*
X111751392Y-90423332D01*
X111685356Y-90472768D01*
X111683560Y-90470370D01*
X111635404Y-90496666D01*
X111609046Y-90499500D01*
X108811552Y-90499500D01*
X108755258Y-90485985D01*
X108712801Y-90464352D01*
X108619024Y-90449500D01*
X107380982Y-90449500D01*
X107300917Y-90462181D01*
X107287196Y-90464354D01*
X107174158Y-90521950D01*
X107174157Y-90521951D01*
X107174152Y-90521954D01*
X107084454Y-90611652D01*
X107084451Y-90611657D01*
X107026852Y-90724698D01*
X107012000Y-90818475D01*
X107012000Y-91181517D01*
X107028381Y-91284943D01*
X107026357Y-91285263D01*
X107027990Y-91342516D01*
X106991907Y-91402347D01*
X106929204Y-91433171D01*
X106859790Y-91425203D01*
X106851780Y-91421475D01*
X106837804Y-91414354D01*
X106837803Y-91414353D01*
X106837800Y-91414352D01*
X106837801Y-91414352D01*
X106744024Y-91399500D01*
X105505982Y-91399500D01*
X105412194Y-91414354D01*
X105369743Y-91435985D01*
X105313448Y-91449500D01*
X104757791Y-91449500D01*
X104690752Y-91429815D01*
X104644997Y-91377011D01*
X104641609Y-91368833D01*
X104618797Y-91307671D01*
X104618793Y-91307664D01*
X104532547Y-91192455D01*
X104532544Y-91192452D01*
X104417335Y-91106206D01*
X104417328Y-91106202D01*
X104282486Y-91055910D01*
X104282485Y-91055909D01*
X104282483Y-91055909D01*
X104222873Y-91049500D01*
X104222863Y-91049500D01*
X103602129Y-91049500D01*
X103602123Y-91049501D01*
X103542516Y-91055908D01*
X103407671Y-91106202D01*
X103407664Y-91106206D01*
X103292455Y-91192452D01*
X103292452Y-91192455D01*
X103206206Y-91307664D01*
X103206202Y-91307671D01*
X103155908Y-91442517D01*
X103149675Y-91500500D01*
X103149501Y-91502123D01*
X103149500Y-91502135D01*
X103149500Y-92497870D01*
X102850500Y-92497870D01*
X102850499Y-91502128D01*
X102844091Y-91442517D01*
X102840605Y-91433171D01*
X102793797Y-91307671D01*
X102793793Y-91307664D01*
X102707547Y-91192455D01*
X102707544Y-91192452D01*
X102592335Y-91106206D01*
X102592328Y-91106202D01*
X102457486Y-91055910D01*
X102457485Y-91055909D01*
X102457483Y-91055909D01*
X102397873Y-91049500D01*
X102397863Y-91049500D01*
X101777129Y-91049500D01*
X101777123Y-91049501D01*
X101717516Y-91055908D01*
X101582671Y-91106202D01*
X101582664Y-91106206D01*
X101467455Y-91192452D01*
X101467452Y-91192455D01*
X101381206Y-91307664D01*
X101381202Y-91307671D01*
X101330908Y-91442517D01*
X101324675Y-91500500D01*
X101324501Y-91502123D01*
X101324500Y-91502135D01*
X101324500Y-92497870D01*
X100000500Y-92497870D01*
X100000500Y-85077218D01*
X106114500Y-85077218D01*
X106148527Y-85248283D01*
X106148529Y-85248291D01*
X106215278Y-85409439D01*
X106215283Y-85409448D01*
X106312186Y-85554473D01*
X106312189Y-85554477D01*
X106435522Y-85677810D01*
X106435526Y-85677813D01*
X106580551Y-85774716D01*
X106580557Y-85774719D01*
X106580558Y-85774720D01*
X106741709Y-85841471D01*
X106912781Y-85875499D01*
X106912785Y-85875500D01*
X106912786Y-85875500D01*
X107087215Y-85875500D01*
X107087216Y-85875499D01*
X107258291Y-85841471D01*
X107419442Y-85774720D01*
X107564474Y-85677813D01*
X107687813Y-85554474D01*
X107784720Y-85409442D01*
X107851471Y-85248291D01*
X107885499Y-85077218D01*
X115114500Y-85077218D01*
X115148527Y-85248283D01*
X115148529Y-85248291D01*
X115215278Y-85409439D01*
X115215283Y-85409448D01*
X115312186Y-85554473D01*
X115312189Y-85554477D01*
X115435522Y-85677810D01*
X115435526Y-85677813D01*
X115580551Y-85774716D01*
X115580557Y-85774719D01*
X115580558Y-85774720D01*
X115741709Y-85841471D01*
X115912781Y-85875499D01*
X115912785Y-85875500D01*
X115912786Y-85875500D01*
X116087215Y-85875500D01*
X116087216Y-85875499D01*
X116258291Y-85841471D01*
X116419442Y-85774720D01*
X116564474Y-85677813D01*
X116687813Y-85554474D01*
X116784720Y-85409442D01*
X116851471Y-85248291D01*
X116885499Y-85077218D01*
X121614500Y-85077218D01*
X121648527Y-85248283D01*
X121648529Y-85248291D01*
X121715278Y-85409439D01*
X121715283Y-85409448D01*
X121812186Y-85554473D01*
X121812189Y-85554477D01*
X121935522Y-85677810D01*
X121935526Y-85677813D01*
X122080551Y-85774716D01*
X122080557Y-85774719D01*
X122080558Y-85774720D01*
X122241709Y-85841471D01*
X122412781Y-85875499D01*
X122412785Y-85875500D01*
X122412786Y-85875500D01*
X122587215Y-85875500D01*
X122587216Y-85875499D01*
X122758291Y-85841471D01*
X122919442Y-85774720D01*
X123064474Y-85677813D01*
X123187813Y-85554474D01*
X123284720Y-85409442D01*
X123351471Y-85248291D01*
X123385499Y-85077218D01*
X136614500Y-85077218D01*
X136648527Y-85248283D01*
X136648529Y-85248291D01*
X136715278Y-85409439D01*
X136715283Y-85409448D01*
X136812186Y-85554473D01*
X136812189Y-85554477D01*
X136935522Y-85677810D01*
X136935526Y-85677813D01*
X137080551Y-85774716D01*
X137080557Y-85774719D01*
X137080558Y-85774720D01*
X137241709Y-85841471D01*
X137412781Y-85875499D01*
X137412785Y-85875500D01*
X137412786Y-85875500D01*
X137587215Y-85875500D01*
X137587216Y-85875499D01*
X137758291Y-85841471D01*
X137919442Y-85774720D01*
X138064474Y-85677813D01*
X138187813Y-85554474D01*
X138284720Y-85409442D01*
X138351471Y-85248291D01*
X138385500Y-85077214D01*
X138385500Y-84902786D01*
X138351471Y-84731709D01*
X138284720Y-84570558D01*
X138284719Y-84570557D01*
X138284716Y-84570551D01*
X138187813Y-84425526D01*
X138187810Y-84425522D01*
X138064477Y-84302189D01*
X138064473Y-84302186D01*
X137919448Y-84205283D01*
X137919439Y-84205278D01*
X137758291Y-84138529D01*
X137758283Y-84138527D01*
X137587218Y-84104500D01*
X137587214Y-84104500D01*
X137412786Y-84104500D01*
X137412781Y-84104500D01*
X137241716Y-84138527D01*
X137241708Y-84138529D01*
X137080560Y-84205278D01*
X137080551Y-84205283D01*
X136935526Y-84302186D01*
X136935522Y-84302189D01*
X136812189Y-84425522D01*
X136812186Y-84425526D01*
X136715283Y-84570551D01*
X136715278Y-84570560D01*
X136648529Y-84731708D01*
X136648527Y-84731716D01*
X136614500Y-84902781D01*
X136614500Y-85077218D01*
X123385499Y-85077218D01*
X123385500Y-85077214D01*
X123385500Y-84902786D01*
X123351471Y-84731709D01*
X123284720Y-84570558D01*
X123284719Y-84570557D01*
X123284716Y-84570551D01*
X123187813Y-84425526D01*
X123187810Y-84425522D01*
X123064477Y-84302189D01*
X123064473Y-84302186D01*
X122919448Y-84205283D01*
X122919439Y-84205278D01*
X122758291Y-84138529D01*
X122758283Y-84138527D01*
X122587218Y-84104500D01*
X122587214Y-84104500D01*
X122412786Y-84104500D01*
X122412781Y-84104500D01*
X122241716Y-84138527D01*
X122241708Y-84138529D01*
X122080560Y-84205278D01*
X122080551Y-84205283D01*
X121935526Y-84302186D01*
X121935522Y-84302189D01*
X121812189Y-84425522D01*
X121812186Y-84425526D01*
X121715283Y-84570551D01*
X121715278Y-84570560D01*
X121648529Y-84731708D01*
X121648527Y-84731716D01*
X121614500Y-84902781D01*
X121614500Y-85077218D01*
X116885499Y-85077218D01*
X116885500Y-85077214D01*
X116885500Y-84902786D01*
X116851471Y-84731709D01*
X116784720Y-84570558D01*
X116784719Y-84570557D01*
X116784716Y-84570551D01*
X116687813Y-84425526D01*
X116687810Y-84425522D01*
X116564477Y-84302189D01*
X116564473Y-84302186D01*
X116419448Y-84205283D01*
X116419439Y-84205278D01*
X116258291Y-84138529D01*
X116258283Y-84138527D01*
X116087218Y-84104500D01*
X116087214Y-84104500D01*
X115912786Y-84104500D01*
X115912781Y-84104500D01*
X115741716Y-84138527D01*
X115741708Y-84138529D01*
X115580560Y-84205278D01*
X115580551Y-84205283D01*
X115435526Y-84302186D01*
X115435522Y-84302189D01*
X115312189Y-84425522D01*
X115312186Y-84425526D01*
X115215283Y-84570551D01*
X115215278Y-84570560D01*
X115148529Y-84731708D01*
X115148527Y-84731716D01*
X115114500Y-84902781D01*
X115114500Y-85077218D01*
X107885499Y-85077218D01*
X107885500Y-85077214D01*
X107885500Y-84902786D01*
X107851471Y-84731709D01*
X107784720Y-84570558D01*
X107784719Y-84570557D01*
X107784716Y-84570551D01*
X107687813Y-84425526D01*
X107687810Y-84425522D01*
X107564477Y-84302189D01*
X107564473Y-84302186D01*
X107419448Y-84205283D01*
X107419439Y-84205278D01*
X107258291Y-84138529D01*
X107258283Y-84138527D01*
X107087218Y-84104500D01*
X107087214Y-84104500D01*
X106912786Y-84104500D01*
X106912781Y-84104500D01*
X106741716Y-84138527D01*
X106741708Y-84138529D01*
X106580560Y-84205278D01*
X106580551Y-84205283D01*
X106435526Y-84302186D01*
X106435522Y-84302189D01*
X106312189Y-84425522D01*
X106312186Y-84425526D01*
X106215283Y-84570551D01*
X106215278Y-84570560D01*
X106148529Y-84731708D01*
X106148527Y-84731716D01*
X106114500Y-84902781D01*
X106114500Y-85077218D01*
X100000500Y-85077218D01*
X100000500Y-83114741D01*
X101249500Y-83114741D01*
X101274446Y-83304215D01*
X101279452Y-83342238D01*
X101279453Y-83342240D01*
X101338842Y-83563887D01*
X101426650Y-83775876D01*
X101426657Y-83775890D01*
X101541392Y-83974617D01*
X101681081Y-84156661D01*
X101681089Y-84156670D01*
X101843330Y-84318911D01*
X101843338Y-84318918D01*
X102025382Y-84458607D01*
X102025385Y-84458608D01*
X102025388Y-84458611D01*
X102224112Y-84573344D01*
X102224117Y-84573346D01*
X102224123Y-84573349D01*
X102315480Y-84611190D01*
X102436113Y-84661158D01*
X102657762Y-84720548D01*
X102885266Y-84750500D01*
X102885273Y-84750500D01*
X103114727Y-84750500D01*
X103114734Y-84750500D01*
X103342238Y-84720548D01*
X103563887Y-84661158D01*
X103775888Y-84573344D01*
X103974612Y-84458611D01*
X104156661Y-84318919D01*
X104156665Y-84318914D01*
X104156670Y-84318911D01*
X104318911Y-84156670D01*
X104318914Y-84156665D01*
X104318919Y-84156661D01*
X104458611Y-83974612D01*
X104573344Y-83775888D01*
X104661158Y-83563887D01*
X104720548Y-83342238D01*
X104750499Y-83114741D01*
X139749500Y-83114741D01*
X139774446Y-83304215D01*
X139779452Y-83342238D01*
X139779453Y-83342240D01*
X139838842Y-83563887D01*
X139926650Y-83775876D01*
X139926657Y-83775890D01*
X140041392Y-83974617D01*
X140181081Y-84156661D01*
X140181089Y-84156670D01*
X140343330Y-84318911D01*
X140343338Y-84318918D01*
X140525382Y-84458607D01*
X140525385Y-84458608D01*
X140525388Y-84458611D01*
X140724112Y-84573344D01*
X140724117Y-84573346D01*
X140724123Y-84573349D01*
X140815480Y-84611190D01*
X140936113Y-84661158D01*
X141157762Y-84720548D01*
X141385266Y-84750500D01*
X141385273Y-84750500D01*
X141614727Y-84750500D01*
X141614734Y-84750500D01*
X141842238Y-84720548D01*
X142063887Y-84661158D01*
X142275888Y-84573344D01*
X142474612Y-84458611D01*
X142656661Y-84318919D01*
X142656665Y-84318914D01*
X142656670Y-84318911D01*
X142818911Y-84156670D01*
X142818914Y-84156665D01*
X142818919Y-84156661D01*
X142958611Y-83974612D01*
X143073344Y-83775888D01*
X143161158Y-83563887D01*
X143220548Y-83342238D01*
X143250500Y-83114734D01*
X143250500Y-82885266D01*
X143220548Y-82657762D01*
X143161158Y-82436113D01*
X143073344Y-82224112D01*
X142958611Y-82025388D01*
X142958608Y-82025385D01*
X142958607Y-82025382D01*
X142818918Y-81843338D01*
X142818911Y-81843330D01*
X142656670Y-81681089D01*
X142656661Y-81681081D01*
X142474617Y-81541392D01*
X142275890Y-81426657D01*
X142275876Y-81426650D01*
X142063887Y-81338842D01*
X141842238Y-81279452D01*
X141804215Y-81274446D01*
X141614741Y-81249500D01*
X141614734Y-81249500D01*
X141385266Y-81249500D01*
X141385258Y-81249500D01*
X141168715Y-81278009D01*
X141157762Y-81279452D01*
X141064076Y-81304554D01*
X140936112Y-81338842D01*
X140724123Y-81426650D01*
X140724109Y-81426657D01*
X140525382Y-81541392D01*
X140343338Y-81681081D01*
X140181081Y-81843338D01*
X140041392Y-82025382D01*
X139926657Y-82224109D01*
X139926650Y-82224123D01*
X139838842Y-82436112D01*
X139779453Y-82657759D01*
X139779451Y-82657770D01*
X139749500Y-82885258D01*
X139749500Y-83114741D01*
X104750499Y-83114741D01*
X104750500Y-83114734D01*
X104750500Y-82885266D01*
X104720548Y-82657762D01*
X104661158Y-82436113D01*
X104573344Y-82224112D01*
X104458611Y-82025388D01*
X104458608Y-82025385D01*
X104458607Y-82025382D01*
X104318918Y-81843338D01*
X104318911Y-81843330D01*
X104156670Y-81681089D01*
X104156661Y-81681081D01*
X103974617Y-81541392D01*
X103775890Y-81426657D01*
X103775876Y-81426650D01*
X103563887Y-81338842D01*
X103342238Y-81279452D01*
X103304215Y-81274446D01*
X103114741Y-81249500D01*
X103114734Y-81249500D01*
X102885266Y-81249500D01*
X102885258Y-81249500D01*
X102668715Y-81278009D01*
X102657762Y-81279452D01*
X102564076Y-81304554D01*
X102436112Y-81338842D01*
X102224123Y-81426650D01*
X102224109Y-81426657D01*
X102025382Y-81541392D01*
X101843338Y-81681081D01*
X101681081Y-81843338D01*
X101541392Y-82025382D01*
X101426657Y-82224109D01*
X101426650Y-82224123D01*
X101338842Y-82436112D01*
X101279453Y-82657759D01*
X101279451Y-82657770D01*
X101249500Y-82885258D01*
X101249500Y-83114741D01*
X100000500Y-83114741D01*
X100000500Y-83003246D01*
X100000670Y-82996756D01*
X100006513Y-82885266D01*
X100016592Y-82692951D01*
X100017949Y-82680046D01*
X100054904Y-82446715D01*
X100065029Y-82382786D01*
X100067723Y-82370107D01*
X100145627Y-82079368D01*
X100149636Y-82067033D01*
X100165622Y-82025388D01*
X100257493Y-81786054D01*
X100262763Y-81774215D01*
X100399415Y-81506023D01*
X100405891Y-81494808D01*
X100569819Y-81242380D01*
X100577434Y-81231899D01*
X100766858Y-80997979D01*
X100775525Y-80988354D01*
X100988354Y-80775525D01*
X100997979Y-80766858D01*
X101231899Y-80577434D01*
X101242380Y-80569819D01*
X101494808Y-80405891D01*
X101506023Y-80399415D01*
X101774215Y-80262763D01*
X101786054Y-80257493D01*
X102067040Y-80149633D01*
X102079368Y-80145627D01*
X102370107Y-80067723D01*
X102382786Y-80065029D01*
X102680046Y-80017949D01*
X102692951Y-80016592D01*
X102996756Y-80000669D01*
X103003246Y-80000500D01*
X103065892Y-80000500D01*
X141434108Y-80000500D01*
X141496754Y-80000500D01*
X141503244Y-80000670D01*
G37*
%TD.AperFunction*%
M02*
