M48
; DRILL file {KiCad 8.0.1} date 2024-11-23T22:58:36-0600
; FORMAT={-:-/ absolute / metric / decimal}
; #@! TF.CreationDate,2024-11-23T22:58:36-06:00
; #@! TF.GenerationSoftware,Kicad,Pcbnew,8.0.1
; #@! TF.FileFunction,Plated,1,2,PTH
FMAT,2
METRIC
; #@! TA.AperFunction,Plated,PTH,ViaDrill
T1C0.300
; #@! TA.AperFunction,Plated,PTH,ComponentDrill
T2C1.020
%
G90
G05
T1
X102.0Y-89.0
X102.0Y-95.5
X102.087Y-92.0
X102.087Y-103.5
X107.0Y-94.0
X107.0Y-105.5
X112.5Y-91.0
X142.412Y-96.0
X142.412Y-105.0
X142.5Y-100.5
X142.5Y-109.5
T2
X110.0Y-86.95
X110.0Y-98.46
X110.0Y-109.95
X113.0Y-86.95
X113.0Y-98.46
X113.0Y-109.95
X125.5Y-86.95
X125.5Y-98.45
X125.5Y-109.96
X128.5Y-86.95
X128.5Y-98.45
X128.5Y-109.96
X131.5Y-86.95
X131.5Y-98.45
X131.5Y-109.96
X134.5Y-86.95
X134.5Y-98.45
X134.5Y-109.96
M30
