%TF.GenerationSoftware,KiCad,Pcbnew,8.0.1*%
%TF.CreationDate,2024-11-23T22:58:42-06:00*%
%TF.ProjectId,BPS-ContactorPCB,4250532d-436f-46e7-9461-63746f725043,rev?*%
%TF.SameCoordinates,Original*%
%TF.FileFunction,Drillmap*%
%TF.FilePolarity,Positive*%
%FSLAX45Y45*%
G04 Gerber Fmt 4.5, Leading zero omitted, Abs format (unit mm)*
G04 Created by KiCad (PCBNEW 8.0.1) date 2024-11-23 22:58:42*
%MOMM*%
%LPD*%
G01*
G04 APERTURE LIST*
%ADD10C,0.050000*%
%ADD11C,0.200000*%
%ADD12C,0.100000*%
%ADD13C,0.102000*%
G04 APERTURE END LIST*
D10*
X14500000Y-8300000D02*
X14500000Y-11300000D01*
X10300000Y-7950000D02*
X14150000Y-7950000D01*
X10300000Y-11650000D02*
G75*
G02*
X9950000Y-11300000I0J350000D01*
G01*
X9950000Y-8300000D02*
G75*
G02*
X10300000Y-7950000I350000J0D01*
G01*
X14500000Y-11300000D02*
G75*
G02*
X14150000Y-11650000I-350000J0D01*
G01*
X14150000Y-11650000D02*
X10300000Y-11650000D01*
X14150000Y-7950000D02*
G75*
G02*
X14500000Y-8300000I0J-350000D01*
G01*
X9950000Y-11300000D02*
X9950000Y-8300000D01*
D11*
D12*
X10185000Y-8885000D02*
X10215000Y-8915000D01*
X10215000Y-8885000D02*
X10185000Y-8915000D01*
X10185000Y-9535000D02*
X10215000Y-9565000D01*
X10215000Y-9535000D02*
X10185000Y-9565000D01*
X10193750Y-9185000D02*
X10223750Y-9215000D01*
X10223750Y-9185000D02*
X10193750Y-9215000D01*
X10193750Y-10335000D02*
X10223750Y-10365000D01*
X10223750Y-10335000D02*
X10193750Y-10365000D01*
X10685000Y-9385000D02*
X10715000Y-9415000D01*
X10715000Y-9385000D02*
X10685000Y-9415000D01*
X10685000Y-10535000D02*
X10715000Y-10565000D01*
X10715000Y-10535000D02*
X10685000Y-10565000D01*
X11235000Y-9085000D02*
X11265000Y-9115000D01*
X11265000Y-9085000D02*
X11235000Y-9115000D01*
X14226250Y-9585000D02*
X14256250Y-9615000D01*
X14256250Y-9585000D02*
X14226250Y-9615000D01*
X14226250Y-10485000D02*
X14256250Y-10515000D01*
X14256250Y-10485000D02*
X14226250Y-10515000D01*
X14235000Y-10035000D02*
X14265000Y-10065000D01*
X14265000Y-10035000D02*
X14235000Y-10065000D01*
X14235000Y-10935000D02*
X14265000Y-10965000D01*
X14265000Y-10935000D02*
X14235000Y-10965000D01*
D13*
X11051000Y-8695000D02*
G75*
G02*
X10949000Y-8695000I-51000J0D01*
G01*
X10949000Y-8695000D02*
G75*
G02*
X11051000Y-8695000I51000J0D01*
G01*
X11051000Y-9846000D02*
G75*
G02*
X10949000Y-9846000I-51000J0D01*
G01*
X10949000Y-9846000D02*
G75*
G02*
X11051000Y-9846000I51000J0D01*
G01*
X11051000Y-10995000D02*
G75*
G02*
X10949000Y-10995000I-51000J0D01*
G01*
X10949000Y-10995000D02*
G75*
G02*
X11051000Y-10995000I51000J0D01*
G01*
X11351000Y-8695000D02*
G75*
G02*
X11249000Y-8695000I-51000J0D01*
G01*
X11249000Y-8695000D02*
G75*
G02*
X11351000Y-8695000I51000J0D01*
G01*
X11351000Y-9846000D02*
G75*
G02*
X11249000Y-9846000I-51000J0D01*
G01*
X11249000Y-9846000D02*
G75*
G02*
X11351000Y-9846000I51000J0D01*
G01*
X11351000Y-10995000D02*
G75*
G02*
X11249000Y-10995000I-51000J0D01*
G01*
X11249000Y-10995000D02*
G75*
G02*
X11351000Y-10995000I51000J0D01*
G01*
X12601000Y-8695000D02*
G75*
G02*
X12499000Y-8695000I-51000J0D01*
G01*
X12499000Y-8695000D02*
G75*
G02*
X12601000Y-8695000I51000J0D01*
G01*
X12601000Y-9845000D02*
G75*
G02*
X12499000Y-9845000I-51000J0D01*
G01*
X12499000Y-9845000D02*
G75*
G02*
X12601000Y-9845000I51000J0D01*
G01*
X12601000Y-10996000D02*
G75*
G02*
X12499000Y-10996000I-51000J0D01*
G01*
X12499000Y-10996000D02*
G75*
G02*
X12601000Y-10996000I51000J0D01*
G01*
X12901000Y-8695000D02*
G75*
G02*
X12799000Y-8695000I-51000J0D01*
G01*
X12799000Y-8695000D02*
G75*
G02*
X12901000Y-8695000I51000J0D01*
G01*
X12901000Y-9845000D02*
G75*
G02*
X12799000Y-9845000I-51000J0D01*
G01*
X12799000Y-9845000D02*
G75*
G02*
X12901000Y-9845000I51000J0D01*
G01*
X12901000Y-10996000D02*
G75*
G02*
X12799000Y-10996000I-51000J0D01*
G01*
X12799000Y-10996000D02*
G75*
G02*
X12901000Y-10996000I51000J0D01*
G01*
X13201000Y-8695000D02*
G75*
G02*
X13099000Y-8695000I-51000J0D01*
G01*
X13099000Y-8695000D02*
G75*
G02*
X13201000Y-8695000I51000J0D01*
G01*
X13201000Y-9845000D02*
G75*
G02*
X13099000Y-9845000I-51000J0D01*
G01*
X13099000Y-9845000D02*
G75*
G02*
X13201000Y-9845000I51000J0D01*
G01*
X13201000Y-10996000D02*
G75*
G02*
X13099000Y-10996000I-51000J0D01*
G01*
X13099000Y-10996000D02*
G75*
G02*
X13201000Y-10996000I51000J0D01*
G01*
X13501000Y-8695000D02*
G75*
G02*
X13399000Y-8695000I-51000J0D01*
G01*
X13399000Y-8695000D02*
G75*
G02*
X13501000Y-8695000I51000J0D01*
G01*
X13501000Y-9845000D02*
G75*
G02*
X13399000Y-9845000I-51000J0D01*
G01*
X13399000Y-9845000D02*
G75*
G02*
X13501000Y-9845000I51000J0D01*
G01*
X13501000Y-10996000D02*
G75*
G02*
X13399000Y-10996000I-51000J0D01*
G01*
X13399000Y-10996000D02*
G75*
G02*
X13501000Y-10996000I51000J0D01*
G01*
D11*
X10208277Y-11963984D02*
X10208277Y-11763984D01*
X10208277Y-11763984D02*
X10255896Y-11763984D01*
X10255896Y-11763984D02*
X10284467Y-11773508D01*
X10284467Y-11773508D02*
X10303515Y-11792555D01*
X10303515Y-11792555D02*
X10313039Y-11811603D01*
X10313039Y-11811603D02*
X10322563Y-11849698D01*
X10322563Y-11849698D02*
X10322563Y-11878269D01*
X10322563Y-11878269D02*
X10313039Y-11916365D01*
X10313039Y-11916365D02*
X10303515Y-11935412D01*
X10303515Y-11935412D02*
X10284467Y-11954460D01*
X10284467Y-11954460D02*
X10255896Y-11963984D01*
X10255896Y-11963984D02*
X10208277Y-11963984D01*
X10408277Y-11963984D02*
X10408277Y-11830650D01*
X10408277Y-11868746D02*
X10417801Y-11849698D01*
X10417801Y-11849698D02*
X10427324Y-11840174D01*
X10427324Y-11840174D02*
X10446372Y-11830650D01*
X10446372Y-11830650D02*
X10465420Y-11830650D01*
X10532086Y-11963984D02*
X10532086Y-11830650D01*
X10532086Y-11763984D02*
X10522563Y-11773508D01*
X10522563Y-11773508D02*
X10532086Y-11783031D01*
X10532086Y-11783031D02*
X10541610Y-11773508D01*
X10541610Y-11773508D02*
X10532086Y-11763984D01*
X10532086Y-11763984D02*
X10532086Y-11783031D01*
X10655896Y-11963984D02*
X10636848Y-11954460D01*
X10636848Y-11954460D02*
X10627324Y-11935412D01*
X10627324Y-11935412D02*
X10627324Y-11763984D01*
X10760658Y-11963984D02*
X10741610Y-11954460D01*
X10741610Y-11954460D02*
X10732086Y-11935412D01*
X10732086Y-11935412D02*
X10732086Y-11763984D01*
X10989229Y-11963984D02*
X10989229Y-11763984D01*
X10989229Y-11763984D02*
X11055896Y-11906841D01*
X11055896Y-11906841D02*
X11122563Y-11763984D01*
X11122563Y-11763984D02*
X11122563Y-11963984D01*
X11303515Y-11963984D02*
X11303515Y-11859222D01*
X11303515Y-11859222D02*
X11293991Y-11840174D01*
X11293991Y-11840174D02*
X11274943Y-11830650D01*
X11274943Y-11830650D02*
X11236848Y-11830650D01*
X11236848Y-11830650D02*
X11217801Y-11840174D01*
X11303515Y-11954460D02*
X11284467Y-11963984D01*
X11284467Y-11963984D02*
X11236848Y-11963984D01*
X11236848Y-11963984D02*
X11217801Y-11954460D01*
X11217801Y-11954460D02*
X11208277Y-11935412D01*
X11208277Y-11935412D02*
X11208277Y-11916365D01*
X11208277Y-11916365D02*
X11217801Y-11897317D01*
X11217801Y-11897317D02*
X11236848Y-11887793D01*
X11236848Y-11887793D02*
X11284467Y-11887793D01*
X11284467Y-11887793D02*
X11303515Y-11878269D01*
X11398753Y-11830650D02*
X11398753Y-12030650D01*
X11398753Y-11840174D02*
X11417801Y-11830650D01*
X11417801Y-11830650D02*
X11455896Y-11830650D01*
X11455896Y-11830650D02*
X11474943Y-11840174D01*
X11474943Y-11840174D02*
X11484467Y-11849698D01*
X11484467Y-11849698D02*
X11493991Y-11868746D01*
X11493991Y-11868746D02*
X11493991Y-11925888D01*
X11493991Y-11925888D02*
X11484467Y-11944936D01*
X11484467Y-11944936D02*
X11474943Y-11954460D01*
X11474943Y-11954460D02*
X11455896Y-11963984D01*
X11455896Y-11963984D02*
X11417801Y-11963984D01*
X11417801Y-11963984D02*
X11398753Y-11954460D01*
X11579705Y-11944936D02*
X11589229Y-11954460D01*
X11589229Y-11954460D02*
X11579705Y-11963984D01*
X11579705Y-11963984D02*
X11570182Y-11954460D01*
X11570182Y-11954460D02*
X11579705Y-11944936D01*
X11579705Y-11944936D02*
X11579705Y-11963984D01*
X11579705Y-11840174D02*
X11589229Y-11849698D01*
X11589229Y-11849698D02*
X11579705Y-11859222D01*
X11579705Y-11859222D02*
X11570182Y-11849698D01*
X11570182Y-11849698D02*
X11579705Y-11840174D01*
X11579705Y-11840174D02*
X11579705Y-11859222D01*
D12*
X9917500Y-12277500D02*
X9947500Y-12307500D01*
X9947500Y-12277500D02*
X9917500Y-12307500D01*
D11*
X10246372Y-12183984D02*
X10265420Y-12183984D01*
X10265420Y-12183984D02*
X10284467Y-12193508D01*
X10284467Y-12193508D02*
X10293991Y-12203031D01*
X10293991Y-12203031D02*
X10303515Y-12222079D01*
X10303515Y-12222079D02*
X10313039Y-12260174D01*
X10313039Y-12260174D02*
X10313039Y-12307793D01*
X10313039Y-12307793D02*
X10303515Y-12345888D01*
X10303515Y-12345888D02*
X10293991Y-12364936D01*
X10293991Y-12364936D02*
X10284467Y-12374460D01*
X10284467Y-12374460D02*
X10265420Y-12383984D01*
X10265420Y-12383984D02*
X10246372Y-12383984D01*
X10246372Y-12383984D02*
X10227324Y-12374460D01*
X10227324Y-12374460D02*
X10217801Y-12364936D01*
X10217801Y-12364936D02*
X10208277Y-12345888D01*
X10208277Y-12345888D02*
X10198753Y-12307793D01*
X10198753Y-12307793D02*
X10198753Y-12260174D01*
X10198753Y-12260174D02*
X10208277Y-12222079D01*
X10208277Y-12222079D02*
X10217801Y-12203031D01*
X10217801Y-12203031D02*
X10227324Y-12193508D01*
X10227324Y-12193508D02*
X10246372Y-12183984D01*
X10398753Y-12364936D02*
X10408277Y-12374460D01*
X10408277Y-12374460D02*
X10398753Y-12383984D01*
X10398753Y-12383984D02*
X10389229Y-12374460D01*
X10389229Y-12374460D02*
X10398753Y-12364936D01*
X10398753Y-12364936D02*
X10398753Y-12383984D01*
X10474944Y-12183984D02*
X10598753Y-12183984D01*
X10598753Y-12183984D02*
X10532086Y-12260174D01*
X10532086Y-12260174D02*
X10560658Y-12260174D01*
X10560658Y-12260174D02*
X10579705Y-12269698D01*
X10579705Y-12269698D02*
X10589229Y-12279222D01*
X10589229Y-12279222D02*
X10598753Y-12298269D01*
X10598753Y-12298269D02*
X10598753Y-12345888D01*
X10598753Y-12345888D02*
X10589229Y-12364936D01*
X10589229Y-12364936D02*
X10579705Y-12374460D01*
X10579705Y-12374460D02*
X10560658Y-12383984D01*
X10560658Y-12383984D02*
X10503515Y-12383984D01*
X10503515Y-12383984D02*
X10484467Y-12374460D01*
X10484467Y-12374460D02*
X10474944Y-12364936D01*
X10722563Y-12183984D02*
X10741610Y-12183984D01*
X10741610Y-12183984D02*
X10760658Y-12193508D01*
X10760658Y-12193508D02*
X10770182Y-12203031D01*
X10770182Y-12203031D02*
X10779705Y-12222079D01*
X10779705Y-12222079D02*
X10789229Y-12260174D01*
X10789229Y-12260174D02*
X10789229Y-12307793D01*
X10789229Y-12307793D02*
X10779705Y-12345888D01*
X10779705Y-12345888D02*
X10770182Y-12364936D01*
X10770182Y-12364936D02*
X10760658Y-12374460D01*
X10760658Y-12374460D02*
X10741610Y-12383984D01*
X10741610Y-12383984D02*
X10722563Y-12383984D01*
X10722563Y-12383984D02*
X10703515Y-12374460D01*
X10703515Y-12374460D02*
X10693991Y-12364936D01*
X10693991Y-12364936D02*
X10684467Y-12345888D01*
X10684467Y-12345888D02*
X10674944Y-12307793D01*
X10674944Y-12307793D02*
X10674944Y-12260174D01*
X10674944Y-12260174D02*
X10684467Y-12222079D01*
X10684467Y-12222079D02*
X10693991Y-12203031D01*
X10693991Y-12203031D02*
X10703515Y-12193508D01*
X10703515Y-12193508D02*
X10722563Y-12183984D01*
X10913039Y-12183984D02*
X10932086Y-12183984D01*
X10932086Y-12183984D02*
X10951134Y-12193508D01*
X10951134Y-12193508D02*
X10960658Y-12203031D01*
X10960658Y-12203031D02*
X10970182Y-12222079D01*
X10970182Y-12222079D02*
X10979705Y-12260174D01*
X10979705Y-12260174D02*
X10979705Y-12307793D01*
X10979705Y-12307793D02*
X10970182Y-12345888D01*
X10970182Y-12345888D02*
X10960658Y-12364936D01*
X10960658Y-12364936D02*
X10951134Y-12374460D01*
X10951134Y-12374460D02*
X10932086Y-12383984D01*
X10932086Y-12383984D02*
X10913039Y-12383984D01*
X10913039Y-12383984D02*
X10893991Y-12374460D01*
X10893991Y-12374460D02*
X10884467Y-12364936D01*
X10884467Y-12364936D02*
X10874944Y-12345888D01*
X10874944Y-12345888D02*
X10865420Y-12307793D01*
X10865420Y-12307793D02*
X10865420Y-12260174D01*
X10865420Y-12260174D02*
X10874944Y-12222079D01*
X10874944Y-12222079D02*
X10884467Y-12203031D01*
X10884467Y-12203031D02*
X10893991Y-12193508D01*
X10893991Y-12193508D02*
X10913039Y-12183984D01*
X11065420Y-12383984D02*
X11065420Y-12250650D01*
X11065420Y-12269698D02*
X11074944Y-12260174D01*
X11074944Y-12260174D02*
X11093991Y-12250650D01*
X11093991Y-12250650D02*
X11122563Y-12250650D01*
X11122563Y-12250650D02*
X11141610Y-12260174D01*
X11141610Y-12260174D02*
X11151134Y-12279222D01*
X11151134Y-12279222D02*
X11151134Y-12383984D01*
X11151134Y-12279222D02*
X11160658Y-12260174D01*
X11160658Y-12260174D02*
X11179705Y-12250650D01*
X11179705Y-12250650D02*
X11208277Y-12250650D01*
X11208277Y-12250650D02*
X11227324Y-12260174D01*
X11227324Y-12260174D02*
X11236848Y-12279222D01*
X11236848Y-12279222D02*
X11236848Y-12383984D01*
X11332086Y-12383984D02*
X11332086Y-12250650D01*
X11332086Y-12269698D02*
X11341610Y-12260174D01*
X11341610Y-12260174D02*
X11360658Y-12250650D01*
X11360658Y-12250650D02*
X11389229Y-12250650D01*
X11389229Y-12250650D02*
X11408277Y-12260174D01*
X11408277Y-12260174D02*
X11417801Y-12279222D01*
X11417801Y-12279222D02*
X11417801Y-12383984D01*
X11417801Y-12279222D02*
X11427324Y-12260174D01*
X11427324Y-12260174D02*
X11446372Y-12250650D01*
X11446372Y-12250650D02*
X11474943Y-12250650D01*
X11474943Y-12250650D02*
X11493991Y-12260174D01*
X11493991Y-12260174D02*
X11503515Y-12279222D01*
X11503515Y-12279222D02*
X11503515Y-12383984D01*
X11893991Y-12174460D02*
X11722563Y-12431603D01*
X12151134Y-12183984D02*
X12170182Y-12183984D01*
X12170182Y-12183984D02*
X12189229Y-12193508D01*
X12189229Y-12193508D02*
X12198753Y-12203031D01*
X12198753Y-12203031D02*
X12208277Y-12222079D01*
X12208277Y-12222079D02*
X12217801Y-12260174D01*
X12217801Y-12260174D02*
X12217801Y-12307793D01*
X12217801Y-12307793D02*
X12208277Y-12345888D01*
X12208277Y-12345888D02*
X12198753Y-12364936D01*
X12198753Y-12364936D02*
X12189229Y-12374460D01*
X12189229Y-12374460D02*
X12170182Y-12383984D01*
X12170182Y-12383984D02*
X12151134Y-12383984D01*
X12151134Y-12383984D02*
X12132086Y-12374460D01*
X12132086Y-12374460D02*
X12122563Y-12364936D01*
X12122563Y-12364936D02*
X12113039Y-12345888D01*
X12113039Y-12345888D02*
X12103515Y-12307793D01*
X12103515Y-12307793D02*
X12103515Y-12260174D01*
X12103515Y-12260174D02*
X12113039Y-12222079D01*
X12113039Y-12222079D02*
X12122563Y-12203031D01*
X12122563Y-12203031D02*
X12132086Y-12193508D01*
X12132086Y-12193508D02*
X12151134Y-12183984D01*
X12303515Y-12364936D02*
X12313039Y-12374460D01*
X12313039Y-12374460D02*
X12303515Y-12383984D01*
X12303515Y-12383984D02*
X12293991Y-12374460D01*
X12293991Y-12374460D02*
X12303515Y-12364936D01*
X12303515Y-12364936D02*
X12303515Y-12383984D01*
X12436848Y-12183984D02*
X12455896Y-12183984D01*
X12455896Y-12183984D02*
X12474944Y-12193508D01*
X12474944Y-12193508D02*
X12484467Y-12203031D01*
X12484467Y-12203031D02*
X12493991Y-12222079D01*
X12493991Y-12222079D02*
X12503515Y-12260174D01*
X12503515Y-12260174D02*
X12503515Y-12307793D01*
X12503515Y-12307793D02*
X12493991Y-12345888D01*
X12493991Y-12345888D02*
X12484467Y-12364936D01*
X12484467Y-12364936D02*
X12474944Y-12374460D01*
X12474944Y-12374460D02*
X12455896Y-12383984D01*
X12455896Y-12383984D02*
X12436848Y-12383984D01*
X12436848Y-12383984D02*
X12417801Y-12374460D01*
X12417801Y-12374460D02*
X12408277Y-12364936D01*
X12408277Y-12364936D02*
X12398753Y-12345888D01*
X12398753Y-12345888D02*
X12389229Y-12307793D01*
X12389229Y-12307793D02*
X12389229Y-12260174D01*
X12389229Y-12260174D02*
X12398753Y-12222079D01*
X12398753Y-12222079D02*
X12408277Y-12203031D01*
X12408277Y-12203031D02*
X12417801Y-12193508D01*
X12417801Y-12193508D02*
X12436848Y-12183984D01*
X12693991Y-12383984D02*
X12579706Y-12383984D01*
X12636848Y-12383984D02*
X12636848Y-12183984D01*
X12636848Y-12183984D02*
X12617801Y-12212555D01*
X12617801Y-12212555D02*
X12598753Y-12231603D01*
X12598753Y-12231603D02*
X12579706Y-12241127D01*
X12884467Y-12383984D02*
X12770182Y-12383984D01*
X12827325Y-12383984D02*
X12827325Y-12183984D01*
X12827325Y-12183984D02*
X12808277Y-12212555D01*
X12808277Y-12212555D02*
X12789229Y-12231603D01*
X12789229Y-12231603D02*
X12770182Y-12241127D01*
X12998753Y-12269698D02*
X12979706Y-12260174D01*
X12979706Y-12260174D02*
X12970182Y-12250650D01*
X12970182Y-12250650D02*
X12960658Y-12231603D01*
X12960658Y-12231603D02*
X12960658Y-12222079D01*
X12960658Y-12222079D02*
X12970182Y-12203031D01*
X12970182Y-12203031D02*
X12979706Y-12193508D01*
X12979706Y-12193508D02*
X12998753Y-12183984D01*
X12998753Y-12183984D02*
X13036848Y-12183984D01*
X13036848Y-12183984D02*
X13055896Y-12193508D01*
X13055896Y-12193508D02*
X13065420Y-12203031D01*
X13065420Y-12203031D02*
X13074944Y-12222079D01*
X13074944Y-12222079D02*
X13074944Y-12231603D01*
X13074944Y-12231603D02*
X13065420Y-12250650D01*
X13065420Y-12250650D02*
X13055896Y-12260174D01*
X13055896Y-12260174D02*
X13036848Y-12269698D01*
X13036848Y-12269698D02*
X12998753Y-12269698D01*
X12998753Y-12269698D02*
X12979706Y-12279222D01*
X12979706Y-12279222D02*
X12970182Y-12288746D01*
X12970182Y-12288746D02*
X12960658Y-12307793D01*
X12960658Y-12307793D02*
X12960658Y-12345888D01*
X12960658Y-12345888D02*
X12970182Y-12364936D01*
X12970182Y-12364936D02*
X12979706Y-12374460D01*
X12979706Y-12374460D02*
X12998753Y-12383984D01*
X12998753Y-12383984D02*
X13036848Y-12383984D01*
X13036848Y-12383984D02*
X13055896Y-12374460D01*
X13055896Y-12374460D02*
X13065420Y-12364936D01*
X13065420Y-12364936D02*
X13074944Y-12345888D01*
X13074944Y-12345888D02*
X13074944Y-12307793D01*
X13074944Y-12307793D02*
X13065420Y-12288746D01*
X13065420Y-12288746D02*
X13055896Y-12279222D01*
X13055896Y-12279222D02*
X13036848Y-12269698D01*
X13151134Y-12183984D02*
X13151134Y-12222079D01*
X13227325Y-12183984D02*
X13227325Y-12222079D01*
X13522563Y-12460174D02*
X13513039Y-12450650D01*
X13513039Y-12450650D02*
X13493991Y-12422079D01*
X13493991Y-12422079D02*
X13484468Y-12403031D01*
X13484468Y-12403031D02*
X13474944Y-12374460D01*
X13474944Y-12374460D02*
X13465420Y-12326841D01*
X13465420Y-12326841D02*
X13465420Y-12288746D01*
X13465420Y-12288746D02*
X13474944Y-12241127D01*
X13474944Y-12241127D02*
X13484468Y-12212555D01*
X13484468Y-12212555D02*
X13493991Y-12193508D01*
X13493991Y-12193508D02*
X13513039Y-12164936D01*
X13513039Y-12164936D02*
X13522563Y-12155412D01*
X13703515Y-12383984D02*
X13589229Y-12383984D01*
X13646372Y-12383984D02*
X13646372Y-12183984D01*
X13646372Y-12183984D02*
X13627325Y-12212555D01*
X13627325Y-12212555D02*
X13608277Y-12231603D01*
X13608277Y-12231603D02*
X13589229Y-12241127D01*
X13893991Y-12383984D02*
X13779706Y-12383984D01*
X13836848Y-12383984D02*
X13836848Y-12183984D01*
X13836848Y-12183984D02*
X13817801Y-12212555D01*
X13817801Y-12212555D02*
X13798753Y-12231603D01*
X13798753Y-12231603D02*
X13779706Y-12241127D01*
X14132087Y-12383984D02*
X14132087Y-12183984D01*
X14217801Y-12383984D02*
X14217801Y-12279222D01*
X14217801Y-12279222D02*
X14208277Y-12260174D01*
X14208277Y-12260174D02*
X14189230Y-12250650D01*
X14189230Y-12250650D02*
X14160658Y-12250650D01*
X14160658Y-12250650D02*
X14141610Y-12260174D01*
X14141610Y-12260174D02*
X14132087Y-12269698D01*
X14341610Y-12383984D02*
X14322563Y-12374460D01*
X14322563Y-12374460D02*
X14313039Y-12364936D01*
X14313039Y-12364936D02*
X14303515Y-12345888D01*
X14303515Y-12345888D02*
X14303515Y-12288746D01*
X14303515Y-12288746D02*
X14313039Y-12269698D01*
X14313039Y-12269698D02*
X14322563Y-12260174D01*
X14322563Y-12260174D02*
X14341610Y-12250650D01*
X14341610Y-12250650D02*
X14370182Y-12250650D01*
X14370182Y-12250650D02*
X14389230Y-12260174D01*
X14389230Y-12260174D02*
X14398753Y-12269698D01*
X14398753Y-12269698D02*
X14408277Y-12288746D01*
X14408277Y-12288746D02*
X14408277Y-12345888D01*
X14408277Y-12345888D02*
X14398753Y-12364936D01*
X14398753Y-12364936D02*
X14389230Y-12374460D01*
X14389230Y-12374460D02*
X14370182Y-12383984D01*
X14370182Y-12383984D02*
X14341610Y-12383984D01*
X14522563Y-12383984D02*
X14503515Y-12374460D01*
X14503515Y-12374460D02*
X14493991Y-12355412D01*
X14493991Y-12355412D02*
X14493991Y-12183984D01*
X14674944Y-12374460D02*
X14655896Y-12383984D01*
X14655896Y-12383984D02*
X14617801Y-12383984D01*
X14617801Y-12383984D02*
X14598753Y-12374460D01*
X14598753Y-12374460D02*
X14589230Y-12355412D01*
X14589230Y-12355412D02*
X14589230Y-12279222D01*
X14589230Y-12279222D02*
X14598753Y-12260174D01*
X14598753Y-12260174D02*
X14617801Y-12250650D01*
X14617801Y-12250650D02*
X14655896Y-12250650D01*
X14655896Y-12250650D02*
X14674944Y-12260174D01*
X14674944Y-12260174D02*
X14684468Y-12279222D01*
X14684468Y-12279222D02*
X14684468Y-12298269D01*
X14684468Y-12298269D02*
X14589230Y-12317317D01*
X14760658Y-12374460D02*
X14779706Y-12383984D01*
X14779706Y-12383984D02*
X14817801Y-12383984D01*
X14817801Y-12383984D02*
X14836849Y-12374460D01*
X14836849Y-12374460D02*
X14846372Y-12355412D01*
X14846372Y-12355412D02*
X14846372Y-12345888D01*
X14846372Y-12345888D02*
X14836849Y-12326841D01*
X14836849Y-12326841D02*
X14817801Y-12317317D01*
X14817801Y-12317317D02*
X14789230Y-12317317D01*
X14789230Y-12317317D02*
X14770182Y-12307793D01*
X14770182Y-12307793D02*
X14760658Y-12288746D01*
X14760658Y-12288746D02*
X14760658Y-12279222D01*
X14760658Y-12279222D02*
X14770182Y-12260174D01*
X14770182Y-12260174D02*
X14789230Y-12250650D01*
X14789230Y-12250650D02*
X14817801Y-12250650D01*
X14817801Y-12250650D02*
X14836849Y-12260174D01*
X14913039Y-12460174D02*
X14922563Y-12450650D01*
X14922563Y-12450650D02*
X14941611Y-12422079D01*
X14941611Y-12422079D02*
X14951134Y-12403031D01*
X14951134Y-12403031D02*
X14960658Y-12374460D01*
X14960658Y-12374460D02*
X14970182Y-12326841D01*
X14970182Y-12326841D02*
X14970182Y-12288746D01*
X14970182Y-12288746D02*
X14960658Y-12241127D01*
X14960658Y-12241127D02*
X14951134Y-12212555D01*
X14951134Y-12212555D02*
X14941611Y-12193508D01*
X14941611Y-12193508D02*
X14922563Y-12164936D01*
X14922563Y-12164936D02*
X14913039Y-12155412D01*
D13*
X9947500Y-12556500D02*
G75*
G02*
X9845500Y-12556500I-51000J0D01*
G01*
X9845500Y-12556500D02*
G75*
G02*
X9947500Y-12556500I51000J0D01*
G01*
D11*
X10313039Y-12647984D02*
X10198753Y-12647984D01*
X10255896Y-12647984D02*
X10255896Y-12447984D01*
X10255896Y-12447984D02*
X10236848Y-12476555D01*
X10236848Y-12476555D02*
X10217801Y-12495603D01*
X10217801Y-12495603D02*
X10198753Y-12505127D01*
X10398753Y-12628936D02*
X10408277Y-12638460D01*
X10408277Y-12638460D02*
X10398753Y-12647984D01*
X10398753Y-12647984D02*
X10389229Y-12638460D01*
X10389229Y-12638460D02*
X10398753Y-12628936D01*
X10398753Y-12628936D02*
X10398753Y-12647984D01*
X10532086Y-12447984D02*
X10551134Y-12447984D01*
X10551134Y-12447984D02*
X10570182Y-12457508D01*
X10570182Y-12457508D02*
X10579705Y-12467031D01*
X10579705Y-12467031D02*
X10589229Y-12486079D01*
X10589229Y-12486079D02*
X10598753Y-12524174D01*
X10598753Y-12524174D02*
X10598753Y-12571793D01*
X10598753Y-12571793D02*
X10589229Y-12609888D01*
X10589229Y-12609888D02*
X10579705Y-12628936D01*
X10579705Y-12628936D02*
X10570182Y-12638460D01*
X10570182Y-12638460D02*
X10551134Y-12647984D01*
X10551134Y-12647984D02*
X10532086Y-12647984D01*
X10532086Y-12647984D02*
X10513039Y-12638460D01*
X10513039Y-12638460D02*
X10503515Y-12628936D01*
X10503515Y-12628936D02*
X10493991Y-12609888D01*
X10493991Y-12609888D02*
X10484467Y-12571793D01*
X10484467Y-12571793D02*
X10484467Y-12524174D01*
X10484467Y-12524174D02*
X10493991Y-12486079D01*
X10493991Y-12486079D02*
X10503515Y-12467031D01*
X10503515Y-12467031D02*
X10513039Y-12457508D01*
X10513039Y-12457508D02*
X10532086Y-12447984D01*
X10674944Y-12467031D02*
X10684467Y-12457508D01*
X10684467Y-12457508D02*
X10703515Y-12447984D01*
X10703515Y-12447984D02*
X10751134Y-12447984D01*
X10751134Y-12447984D02*
X10770182Y-12457508D01*
X10770182Y-12457508D02*
X10779705Y-12467031D01*
X10779705Y-12467031D02*
X10789229Y-12486079D01*
X10789229Y-12486079D02*
X10789229Y-12505127D01*
X10789229Y-12505127D02*
X10779705Y-12533698D01*
X10779705Y-12533698D02*
X10665420Y-12647984D01*
X10665420Y-12647984D02*
X10789229Y-12647984D01*
X10913039Y-12447984D02*
X10932086Y-12447984D01*
X10932086Y-12447984D02*
X10951134Y-12457508D01*
X10951134Y-12457508D02*
X10960658Y-12467031D01*
X10960658Y-12467031D02*
X10970182Y-12486079D01*
X10970182Y-12486079D02*
X10979705Y-12524174D01*
X10979705Y-12524174D02*
X10979705Y-12571793D01*
X10979705Y-12571793D02*
X10970182Y-12609888D01*
X10970182Y-12609888D02*
X10960658Y-12628936D01*
X10960658Y-12628936D02*
X10951134Y-12638460D01*
X10951134Y-12638460D02*
X10932086Y-12647984D01*
X10932086Y-12647984D02*
X10913039Y-12647984D01*
X10913039Y-12647984D02*
X10893991Y-12638460D01*
X10893991Y-12638460D02*
X10884467Y-12628936D01*
X10884467Y-12628936D02*
X10874944Y-12609888D01*
X10874944Y-12609888D02*
X10865420Y-12571793D01*
X10865420Y-12571793D02*
X10865420Y-12524174D01*
X10865420Y-12524174D02*
X10874944Y-12486079D01*
X10874944Y-12486079D02*
X10884467Y-12467031D01*
X10884467Y-12467031D02*
X10893991Y-12457508D01*
X10893991Y-12457508D02*
X10913039Y-12447984D01*
X11065420Y-12647984D02*
X11065420Y-12514650D01*
X11065420Y-12533698D02*
X11074944Y-12524174D01*
X11074944Y-12524174D02*
X11093991Y-12514650D01*
X11093991Y-12514650D02*
X11122563Y-12514650D01*
X11122563Y-12514650D02*
X11141610Y-12524174D01*
X11141610Y-12524174D02*
X11151134Y-12543222D01*
X11151134Y-12543222D02*
X11151134Y-12647984D01*
X11151134Y-12543222D02*
X11160658Y-12524174D01*
X11160658Y-12524174D02*
X11179705Y-12514650D01*
X11179705Y-12514650D02*
X11208277Y-12514650D01*
X11208277Y-12514650D02*
X11227324Y-12524174D01*
X11227324Y-12524174D02*
X11236848Y-12543222D01*
X11236848Y-12543222D02*
X11236848Y-12647984D01*
X11332086Y-12647984D02*
X11332086Y-12514650D01*
X11332086Y-12533698D02*
X11341610Y-12524174D01*
X11341610Y-12524174D02*
X11360658Y-12514650D01*
X11360658Y-12514650D02*
X11389229Y-12514650D01*
X11389229Y-12514650D02*
X11408277Y-12524174D01*
X11408277Y-12524174D02*
X11417801Y-12543222D01*
X11417801Y-12543222D02*
X11417801Y-12647984D01*
X11417801Y-12543222D02*
X11427324Y-12524174D01*
X11427324Y-12524174D02*
X11446372Y-12514650D01*
X11446372Y-12514650D02*
X11474943Y-12514650D01*
X11474943Y-12514650D02*
X11493991Y-12524174D01*
X11493991Y-12524174D02*
X11503515Y-12543222D01*
X11503515Y-12543222D02*
X11503515Y-12647984D01*
X11893991Y-12438460D02*
X11722563Y-12695603D01*
X12151134Y-12447984D02*
X12170182Y-12447984D01*
X12170182Y-12447984D02*
X12189229Y-12457508D01*
X12189229Y-12457508D02*
X12198753Y-12467031D01*
X12198753Y-12467031D02*
X12208277Y-12486079D01*
X12208277Y-12486079D02*
X12217801Y-12524174D01*
X12217801Y-12524174D02*
X12217801Y-12571793D01*
X12217801Y-12571793D02*
X12208277Y-12609888D01*
X12208277Y-12609888D02*
X12198753Y-12628936D01*
X12198753Y-12628936D02*
X12189229Y-12638460D01*
X12189229Y-12638460D02*
X12170182Y-12647984D01*
X12170182Y-12647984D02*
X12151134Y-12647984D01*
X12151134Y-12647984D02*
X12132086Y-12638460D01*
X12132086Y-12638460D02*
X12122563Y-12628936D01*
X12122563Y-12628936D02*
X12113039Y-12609888D01*
X12113039Y-12609888D02*
X12103515Y-12571793D01*
X12103515Y-12571793D02*
X12103515Y-12524174D01*
X12103515Y-12524174D02*
X12113039Y-12486079D01*
X12113039Y-12486079D02*
X12122563Y-12467031D01*
X12122563Y-12467031D02*
X12132086Y-12457508D01*
X12132086Y-12457508D02*
X12151134Y-12447984D01*
X12303515Y-12628936D02*
X12313039Y-12638460D01*
X12313039Y-12638460D02*
X12303515Y-12647984D01*
X12303515Y-12647984D02*
X12293991Y-12638460D01*
X12293991Y-12638460D02*
X12303515Y-12628936D01*
X12303515Y-12628936D02*
X12303515Y-12647984D01*
X12436848Y-12447984D02*
X12455896Y-12447984D01*
X12455896Y-12447984D02*
X12474944Y-12457508D01*
X12474944Y-12457508D02*
X12484467Y-12467031D01*
X12484467Y-12467031D02*
X12493991Y-12486079D01*
X12493991Y-12486079D02*
X12503515Y-12524174D01*
X12503515Y-12524174D02*
X12503515Y-12571793D01*
X12503515Y-12571793D02*
X12493991Y-12609888D01*
X12493991Y-12609888D02*
X12484467Y-12628936D01*
X12484467Y-12628936D02*
X12474944Y-12638460D01*
X12474944Y-12638460D02*
X12455896Y-12647984D01*
X12455896Y-12647984D02*
X12436848Y-12647984D01*
X12436848Y-12647984D02*
X12417801Y-12638460D01*
X12417801Y-12638460D02*
X12408277Y-12628936D01*
X12408277Y-12628936D02*
X12398753Y-12609888D01*
X12398753Y-12609888D02*
X12389229Y-12571793D01*
X12389229Y-12571793D02*
X12389229Y-12524174D01*
X12389229Y-12524174D02*
X12398753Y-12486079D01*
X12398753Y-12486079D02*
X12408277Y-12467031D01*
X12408277Y-12467031D02*
X12417801Y-12457508D01*
X12417801Y-12457508D02*
X12436848Y-12447984D01*
X12674944Y-12514650D02*
X12674944Y-12647984D01*
X12627325Y-12438460D02*
X12579706Y-12581317D01*
X12579706Y-12581317D02*
X12703515Y-12581317D01*
X12817801Y-12447984D02*
X12836848Y-12447984D01*
X12836848Y-12447984D02*
X12855896Y-12457508D01*
X12855896Y-12457508D02*
X12865420Y-12467031D01*
X12865420Y-12467031D02*
X12874944Y-12486079D01*
X12874944Y-12486079D02*
X12884467Y-12524174D01*
X12884467Y-12524174D02*
X12884467Y-12571793D01*
X12884467Y-12571793D02*
X12874944Y-12609888D01*
X12874944Y-12609888D02*
X12865420Y-12628936D01*
X12865420Y-12628936D02*
X12855896Y-12638460D01*
X12855896Y-12638460D02*
X12836848Y-12647984D01*
X12836848Y-12647984D02*
X12817801Y-12647984D01*
X12817801Y-12647984D02*
X12798753Y-12638460D01*
X12798753Y-12638460D02*
X12789229Y-12628936D01*
X12789229Y-12628936D02*
X12779706Y-12609888D01*
X12779706Y-12609888D02*
X12770182Y-12571793D01*
X12770182Y-12571793D02*
X12770182Y-12524174D01*
X12770182Y-12524174D02*
X12779706Y-12486079D01*
X12779706Y-12486079D02*
X12789229Y-12467031D01*
X12789229Y-12467031D02*
X12798753Y-12457508D01*
X12798753Y-12457508D02*
X12817801Y-12447984D01*
X12960658Y-12467031D02*
X12970182Y-12457508D01*
X12970182Y-12457508D02*
X12989229Y-12447984D01*
X12989229Y-12447984D02*
X13036848Y-12447984D01*
X13036848Y-12447984D02*
X13055896Y-12457508D01*
X13055896Y-12457508D02*
X13065420Y-12467031D01*
X13065420Y-12467031D02*
X13074944Y-12486079D01*
X13074944Y-12486079D02*
X13074944Y-12505127D01*
X13074944Y-12505127D02*
X13065420Y-12533698D01*
X13065420Y-12533698D02*
X12951134Y-12647984D01*
X12951134Y-12647984D02*
X13074944Y-12647984D01*
X13151134Y-12447984D02*
X13151134Y-12486079D01*
X13227325Y-12447984D02*
X13227325Y-12486079D01*
X13522563Y-12724174D02*
X13513039Y-12714650D01*
X13513039Y-12714650D02*
X13493991Y-12686079D01*
X13493991Y-12686079D02*
X13484468Y-12667031D01*
X13484468Y-12667031D02*
X13474944Y-12638460D01*
X13474944Y-12638460D02*
X13465420Y-12590841D01*
X13465420Y-12590841D02*
X13465420Y-12552746D01*
X13465420Y-12552746D02*
X13474944Y-12505127D01*
X13474944Y-12505127D02*
X13484468Y-12476555D01*
X13484468Y-12476555D02*
X13493991Y-12457508D01*
X13493991Y-12457508D02*
X13513039Y-12428936D01*
X13513039Y-12428936D02*
X13522563Y-12419412D01*
X13703515Y-12647984D02*
X13589229Y-12647984D01*
X13646372Y-12647984D02*
X13646372Y-12447984D01*
X13646372Y-12447984D02*
X13627325Y-12476555D01*
X13627325Y-12476555D02*
X13608277Y-12495603D01*
X13608277Y-12495603D02*
X13589229Y-12505127D01*
X13817801Y-12533698D02*
X13798753Y-12524174D01*
X13798753Y-12524174D02*
X13789229Y-12514650D01*
X13789229Y-12514650D02*
X13779706Y-12495603D01*
X13779706Y-12495603D02*
X13779706Y-12486079D01*
X13779706Y-12486079D02*
X13789229Y-12467031D01*
X13789229Y-12467031D02*
X13798753Y-12457508D01*
X13798753Y-12457508D02*
X13817801Y-12447984D01*
X13817801Y-12447984D02*
X13855896Y-12447984D01*
X13855896Y-12447984D02*
X13874944Y-12457508D01*
X13874944Y-12457508D02*
X13884468Y-12467031D01*
X13884468Y-12467031D02*
X13893991Y-12486079D01*
X13893991Y-12486079D02*
X13893991Y-12495603D01*
X13893991Y-12495603D02*
X13884468Y-12514650D01*
X13884468Y-12514650D02*
X13874944Y-12524174D01*
X13874944Y-12524174D02*
X13855896Y-12533698D01*
X13855896Y-12533698D02*
X13817801Y-12533698D01*
X13817801Y-12533698D02*
X13798753Y-12543222D01*
X13798753Y-12543222D02*
X13789229Y-12552746D01*
X13789229Y-12552746D02*
X13779706Y-12571793D01*
X13779706Y-12571793D02*
X13779706Y-12609888D01*
X13779706Y-12609888D02*
X13789229Y-12628936D01*
X13789229Y-12628936D02*
X13798753Y-12638460D01*
X13798753Y-12638460D02*
X13817801Y-12647984D01*
X13817801Y-12647984D02*
X13855896Y-12647984D01*
X13855896Y-12647984D02*
X13874944Y-12638460D01*
X13874944Y-12638460D02*
X13884468Y-12628936D01*
X13884468Y-12628936D02*
X13893991Y-12609888D01*
X13893991Y-12609888D02*
X13893991Y-12571793D01*
X13893991Y-12571793D02*
X13884468Y-12552746D01*
X13884468Y-12552746D02*
X13874944Y-12543222D01*
X13874944Y-12543222D02*
X13855896Y-12533698D01*
X14132087Y-12647984D02*
X14132087Y-12447984D01*
X14217801Y-12647984D02*
X14217801Y-12543222D01*
X14217801Y-12543222D02*
X14208277Y-12524174D01*
X14208277Y-12524174D02*
X14189230Y-12514650D01*
X14189230Y-12514650D02*
X14160658Y-12514650D01*
X14160658Y-12514650D02*
X14141610Y-12524174D01*
X14141610Y-12524174D02*
X14132087Y-12533698D01*
X14341610Y-12647984D02*
X14322563Y-12638460D01*
X14322563Y-12638460D02*
X14313039Y-12628936D01*
X14313039Y-12628936D02*
X14303515Y-12609888D01*
X14303515Y-12609888D02*
X14303515Y-12552746D01*
X14303515Y-12552746D02*
X14313039Y-12533698D01*
X14313039Y-12533698D02*
X14322563Y-12524174D01*
X14322563Y-12524174D02*
X14341610Y-12514650D01*
X14341610Y-12514650D02*
X14370182Y-12514650D01*
X14370182Y-12514650D02*
X14389230Y-12524174D01*
X14389230Y-12524174D02*
X14398753Y-12533698D01*
X14398753Y-12533698D02*
X14408277Y-12552746D01*
X14408277Y-12552746D02*
X14408277Y-12609888D01*
X14408277Y-12609888D02*
X14398753Y-12628936D01*
X14398753Y-12628936D02*
X14389230Y-12638460D01*
X14389230Y-12638460D02*
X14370182Y-12647984D01*
X14370182Y-12647984D02*
X14341610Y-12647984D01*
X14522563Y-12647984D02*
X14503515Y-12638460D01*
X14503515Y-12638460D02*
X14493991Y-12619412D01*
X14493991Y-12619412D02*
X14493991Y-12447984D01*
X14674944Y-12638460D02*
X14655896Y-12647984D01*
X14655896Y-12647984D02*
X14617801Y-12647984D01*
X14617801Y-12647984D02*
X14598753Y-12638460D01*
X14598753Y-12638460D02*
X14589230Y-12619412D01*
X14589230Y-12619412D02*
X14589230Y-12543222D01*
X14589230Y-12543222D02*
X14598753Y-12524174D01*
X14598753Y-12524174D02*
X14617801Y-12514650D01*
X14617801Y-12514650D02*
X14655896Y-12514650D01*
X14655896Y-12514650D02*
X14674944Y-12524174D01*
X14674944Y-12524174D02*
X14684468Y-12543222D01*
X14684468Y-12543222D02*
X14684468Y-12562269D01*
X14684468Y-12562269D02*
X14589230Y-12581317D01*
X14760658Y-12638460D02*
X14779706Y-12647984D01*
X14779706Y-12647984D02*
X14817801Y-12647984D01*
X14817801Y-12647984D02*
X14836849Y-12638460D01*
X14836849Y-12638460D02*
X14846372Y-12619412D01*
X14846372Y-12619412D02*
X14846372Y-12609888D01*
X14846372Y-12609888D02*
X14836849Y-12590841D01*
X14836849Y-12590841D02*
X14817801Y-12581317D01*
X14817801Y-12581317D02*
X14789230Y-12581317D01*
X14789230Y-12581317D02*
X14770182Y-12571793D01*
X14770182Y-12571793D02*
X14760658Y-12552746D01*
X14760658Y-12552746D02*
X14760658Y-12543222D01*
X14760658Y-12543222D02*
X14770182Y-12524174D01*
X14770182Y-12524174D02*
X14789230Y-12514650D01*
X14789230Y-12514650D02*
X14817801Y-12514650D01*
X14817801Y-12514650D02*
X14836849Y-12524174D01*
X14913039Y-12724174D02*
X14922563Y-12714650D01*
X14922563Y-12714650D02*
X14941611Y-12686079D01*
X14941611Y-12686079D02*
X14951134Y-12667031D01*
X14951134Y-12667031D02*
X14960658Y-12638460D01*
X14960658Y-12638460D02*
X14970182Y-12590841D01*
X14970182Y-12590841D02*
X14970182Y-12552746D01*
X14970182Y-12552746D02*
X14960658Y-12505127D01*
X14960658Y-12505127D02*
X14951134Y-12476555D01*
X14951134Y-12476555D02*
X14941611Y-12457508D01*
X14941611Y-12457508D02*
X14922563Y-12428936D01*
X14922563Y-12428936D02*
X14913039Y-12419412D01*
M02*
