%TF.GenerationSoftware,KiCad,Pcbnew,8.0.1*%
%TF.CreationDate,2024-11-23T22:58:42-06:00*%
%TF.ProjectId,BPS-ContactorPCB,4250532d-436f-46e7-9461-63746f725043,rev?*%
%TF.SameCoordinates,Original*%
%TF.FileFunction,Drillmap*%
%TF.FilePolarity,Positive*%
%FSLAX45Y45*%
G04 Gerber Fmt 4.5, Leading zero omitted, Abs format (unit mm)*
G04 Created by KiCad (PCBNEW 8.0.1) date 2024-11-23 22:58:42*
%MOMM*%
%LPD*%
G01*
G04 APERTURE LIST*
%ADD10C,0.050000*%
%ADD11C,0.200000*%
%ADD12C,0.127000*%
%ADD13C,0.300000*%
G04 APERTURE END LIST*
D10*
X14500000Y-8300000D02*
X14500000Y-11300000D01*
X10300000Y-7950000D02*
X14150000Y-7950000D01*
X10300000Y-11650000D02*
G75*
G02*
X9950000Y-11300000I0J350000D01*
G01*
X9950000Y-8300000D02*
G75*
G02*
X10300000Y-7950000I350000J0D01*
G01*
X14500000Y-11300000D02*
G75*
G02*
X14150000Y-11650000I-350000J0D01*
G01*
X14150000Y-11650000D02*
X10300000Y-11650000D01*
X14150000Y-7950000D02*
G75*
G02*
X14500000Y-8300000I0J-350000D01*
G01*
X9950000Y-11300000D02*
X9950000Y-8300000D01*
D11*
D12*
X10636500Y-8435500D02*
X10763500Y-8562500D01*
X10763500Y-8435500D02*
X10636500Y-8562500D01*
X10636500Y-9586500D02*
X10763500Y-9713500D01*
X10763500Y-9586500D02*
X10636500Y-9713500D01*
X10636500Y-10735500D02*
X10763500Y-10862500D01*
X10763500Y-10735500D02*
X10636500Y-10862500D01*
X11536500Y-8435500D02*
X11663500Y-8562500D01*
X11663500Y-8435500D02*
X11536500Y-8562500D01*
X11536500Y-9586500D02*
X11663500Y-9713500D01*
X11663500Y-9586500D02*
X11536500Y-9713500D01*
X11536500Y-10735500D02*
X11663500Y-10862500D01*
X11663500Y-10735500D02*
X11536500Y-10862500D01*
X12186500Y-8435500D02*
X12313500Y-8562500D01*
X12313500Y-8435500D02*
X12186500Y-8562500D01*
X12186500Y-9585500D02*
X12313500Y-9712500D01*
X12313500Y-9585500D02*
X12186500Y-9712500D01*
X12186500Y-10736500D02*
X12313500Y-10863500D01*
X12313500Y-10736500D02*
X12186500Y-10863500D01*
X13686500Y-8435500D02*
X13813500Y-8562500D01*
X13813500Y-8435500D02*
X13686500Y-8562500D01*
X13686500Y-9585500D02*
X13813500Y-9712500D01*
X13813500Y-9585500D02*
X13686500Y-9712500D01*
X13686500Y-10736500D02*
X13813500Y-10863500D01*
X13813500Y-10736500D02*
X13686500Y-10863500D01*
D13*
X10450000Y-8300000D02*
G75*
G02*
X10150000Y-8300000I-150000J0D01*
G01*
X10150000Y-8300000D02*
G75*
G02*
X10450000Y-8300000I150000J0D01*
G01*
X10450000Y-11300000D02*
G75*
G02*
X10150000Y-11300000I-150000J0D01*
G01*
X10150000Y-11300000D02*
G75*
G02*
X10450000Y-11300000I150000J0D01*
G01*
X14300000Y-8300000D02*
G75*
G02*
X14000000Y-8300000I-150000J0D01*
G01*
X14000000Y-8300000D02*
G75*
G02*
X14300000Y-8300000I150000J0D01*
G01*
X14300000Y-11300000D02*
G75*
G02*
X14000000Y-11300000I-150000J0D01*
G01*
X14000000Y-11300000D02*
G75*
G02*
X14300000Y-11300000I150000J0D01*
G01*
D11*
X10208277Y-11963984D02*
X10208277Y-11763984D01*
X10208277Y-11763984D02*
X10255896Y-11763984D01*
X10255896Y-11763984D02*
X10284467Y-11773508D01*
X10284467Y-11773508D02*
X10303515Y-11792555D01*
X10303515Y-11792555D02*
X10313039Y-11811603D01*
X10313039Y-11811603D02*
X10322563Y-11849698D01*
X10322563Y-11849698D02*
X10322563Y-11878269D01*
X10322563Y-11878269D02*
X10313039Y-11916365D01*
X10313039Y-11916365D02*
X10303515Y-11935412D01*
X10303515Y-11935412D02*
X10284467Y-11954460D01*
X10284467Y-11954460D02*
X10255896Y-11963984D01*
X10255896Y-11963984D02*
X10208277Y-11963984D01*
X10408277Y-11963984D02*
X10408277Y-11830650D01*
X10408277Y-11868746D02*
X10417801Y-11849698D01*
X10417801Y-11849698D02*
X10427324Y-11840174D01*
X10427324Y-11840174D02*
X10446372Y-11830650D01*
X10446372Y-11830650D02*
X10465420Y-11830650D01*
X10532086Y-11963984D02*
X10532086Y-11830650D01*
X10532086Y-11763984D02*
X10522563Y-11773508D01*
X10522563Y-11773508D02*
X10532086Y-11783031D01*
X10532086Y-11783031D02*
X10541610Y-11773508D01*
X10541610Y-11773508D02*
X10532086Y-11763984D01*
X10532086Y-11763984D02*
X10532086Y-11783031D01*
X10655896Y-11963984D02*
X10636848Y-11954460D01*
X10636848Y-11954460D02*
X10627324Y-11935412D01*
X10627324Y-11935412D02*
X10627324Y-11763984D01*
X10760658Y-11963984D02*
X10741610Y-11954460D01*
X10741610Y-11954460D02*
X10732086Y-11935412D01*
X10732086Y-11935412D02*
X10732086Y-11763984D01*
X10989229Y-11963984D02*
X10989229Y-11763984D01*
X10989229Y-11763984D02*
X11055896Y-11906841D01*
X11055896Y-11906841D02*
X11122563Y-11763984D01*
X11122563Y-11763984D02*
X11122563Y-11963984D01*
X11303515Y-11963984D02*
X11303515Y-11859222D01*
X11303515Y-11859222D02*
X11293991Y-11840174D01*
X11293991Y-11840174D02*
X11274943Y-11830650D01*
X11274943Y-11830650D02*
X11236848Y-11830650D01*
X11236848Y-11830650D02*
X11217801Y-11840174D01*
X11303515Y-11954460D02*
X11284467Y-11963984D01*
X11284467Y-11963984D02*
X11236848Y-11963984D01*
X11236848Y-11963984D02*
X11217801Y-11954460D01*
X11217801Y-11954460D02*
X11208277Y-11935412D01*
X11208277Y-11935412D02*
X11208277Y-11916365D01*
X11208277Y-11916365D02*
X11217801Y-11897317D01*
X11217801Y-11897317D02*
X11236848Y-11887793D01*
X11236848Y-11887793D02*
X11284467Y-11887793D01*
X11284467Y-11887793D02*
X11303515Y-11878269D01*
X11398753Y-11830650D02*
X11398753Y-12030650D01*
X11398753Y-11840174D02*
X11417801Y-11830650D01*
X11417801Y-11830650D02*
X11455896Y-11830650D01*
X11455896Y-11830650D02*
X11474943Y-11840174D01*
X11474943Y-11840174D02*
X11484467Y-11849698D01*
X11484467Y-11849698D02*
X11493991Y-11868746D01*
X11493991Y-11868746D02*
X11493991Y-11925888D01*
X11493991Y-11925888D02*
X11484467Y-11944936D01*
X11484467Y-11944936D02*
X11474943Y-11954460D01*
X11474943Y-11954460D02*
X11455896Y-11963984D01*
X11455896Y-11963984D02*
X11417801Y-11963984D01*
X11417801Y-11963984D02*
X11398753Y-11954460D01*
X11579705Y-11944936D02*
X11589229Y-11954460D01*
X11589229Y-11954460D02*
X11579705Y-11963984D01*
X11579705Y-11963984D02*
X11570182Y-11954460D01*
X11570182Y-11954460D02*
X11579705Y-11944936D01*
X11579705Y-11944936D02*
X11579705Y-11963984D01*
X11579705Y-11840174D02*
X11589229Y-11849698D01*
X11589229Y-11849698D02*
X11579705Y-11859222D01*
X11579705Y-11859222D02*
X11570182Y-11849698D01*
X11570182Y-11849698D02*
X11579705Y-11840174D01*
X11579705Y-11840174D02*
X11579705Y-11859222D01*
D12*
X9820500Y-12229000D02*
X9947500Y-12356000D01*
X9947500Y-12229000D02*
X9820500Y-12356000D01*
D11*
X10313039Y-12383984D02*
X10198753Y-12383984D01*
X10255896Y-12383984D02*
X10255896Y-12183984D01*
X10255896Y-12183984D02*
X10236848Y-12212555D01*
X10236848Y-12212555D02*
X10217801Y-12231603D01*
X10217801Y-12231603D02*
X10198753Y-12241127D01*
X10398753Y-12364936D02*
X10408277Y-12374460D01*
X10408277Y-12374460D02*
X10398753Y-12383984D01*
X10398753Y-12383984D02*
X10389229Y-12374460D01*
X10389229Y-12374460D02*
X10398753Y-12364936D01*
X10398753Y-12364936D02*
X10398753Y-12383984D01*
X10484467Y-12203031D02*
X10493991Y-12193508D01*
X10493991Y-12193508D02*
X10513039Y-12183984D01*
X10513039Y-12183984D02*
X10560658Y-12183984D01*
X10560658Y-12183984D02*
X10579705Y-12193508D01*
X10579705Y-12193508D02*
X10589229Y-12203031D01*
X10589229Y-12203031D02*
X10598753Y-12222079D01*
X10598753Y-12222079D02*
X10598753Y-12241127D01*
X10598753Y-12241127D02*
X10589229Y-12269698D01*
X10589229Y-12269698D02*
X10474944Y-12383984D01*
X10474944Y-12383984D02*
X10598753Y-12383984D01*
X10665420Y-12183984D02*
X10798753Y-12183984D01*
X10798753Y-12183984D02*
X10713039Y-12383984D01*
X10913039Y-12183984D02*
X10932086Y-12183984D01*
X10932086Y-12183984D02*
X10951134Y-12193508D01*
X10951134Y-12193508D02*
X10960658Y-12203031D01*
X10960658Y-12203031D02*
X10970182Y-12222079D01*
X10970182Y-12222079D02*
X10979705Y-12260174D01*
X10979705Y-12260174D02*
X10979705Y-12307793D01*
X10979705Y-12307793D02*
X10970182Y-12345888D01*
X10970182Y-12345888D02*
X10960658Y-12364936D01*
X10960658Y-12364936D02*
X10951134Y-12374460D01*
X10951134Y-12374460D02*
X10932086Y-12383984D01*
X10932086Y-12383984D02*
X10913039Y-12383984D01*
X10913039Y-12383984D02*
X10893991Y-12374460D01*
X10893991Y-12374460D02*
X10884467Y-12364936D01*
X10884467Y-12364936D02*
X10874944Y-12345888D01*
X10874944Y-12345888D02*
X10865420Y-12307793D01*
X10865420Y-12307793D02*
X10865420Y-12260174D01*
X10865420Y-12260174D02*
X10874944Y-12222079D01*
X10874944Y-12222079D02*
X10884467Y-12203031D01*
X10884467Y-12203031D02*
X10893991Y-12193508D01*
X10893991Y-12193508D02*
X10913039Y-12183984D01*
X11065420Y-12383984D02*
X11065420Y-12250650D01*
X11065420Y-12269698D02*
X11074944Y-12260174D01*
X11074944Y-12260174D02*
X11093991Y-12250650D01*
X11093991Y-12250650D02*
X11122563Y-12250650D01*
X11122563Y-12250650D02*
X11141610Y-12260174D01*
X11141610Y-12260174D02*
X11151134Y-12279222D01*
X11151134Y-12279222D02*
X11151134Y-12383984D01*
X11151134Y-12279222D02*
X11160658Y-12260174D01*
X11160658Y-12260174D02*
X11179705Y-12250650D01*
X11179705Y-12250650D02*
X11208277Y-12250650D01*
X11208277Y-12250650D02*
X11227324Y-12260174D01*
X11227324Y-12260174D02*
X11236848Y-12279222D01*
X11236848Y-12279222D02*
X11236848Y-12383984D01*
X11332086Y-12383984D02*
X11332086Y-12250650D01*
X11332086Y-12269698D02*
X11341610Y-12260174D01*
X11341610Y-12260174D02*
X11360658Y-12250650D01*
X11360658Y-12250650D02*
X11389229Y-12250650D01*
X11389229Y-12250650D02*
X11408277Y-12260174D01*
X11408277Y-12260174D02*
X11417801Y-12279222D01*
X11417801Y-12279222D02*
X11417801Y-12383984D01*
X11417801Y-12279222D02*
X11427324Y-12260174D01*
X11427324Y-12260174D02*
X11446372Y-12250650D01*
X11446372Y-12250650D02*
X11474943Y-12250650D01*
X11474943Y-12250650D02*
X11493991Y-12260174D01*
X11493991Y-12260174D02*
X11503515Y-12279222D01*
X11503515Y-12279222D02*
X11503515Y-12383984D01*
X11893991Y-12174460D02*
X11722563Y-12431603D01*
X12151134Y-12183984D02*
X12170182Y-12183984D01*
X12170182Y-12183984D02*
X12189229Y-12193508D01*
X12189229Y-12193508D02*
X12198753Y-12203031D01*
X12198753Y-12203031D02*
X12208277Y-12222079D01*
X12208277Y-12222079D02*
X12217801Y-12260174D01*
X12217801Y-12260174D02*
X12217801Y-12307793D01*
X12217801Y-12307793D02*
X12208277Y-12345888D01*
X12208277Y-12345888D02*
X12198753Y-12364936D01*
X12198753Y-12364936D02*
X12189229Y-12374460D01*
X12189229Y-12374460D02*
X12170182Y-12383984D01*
X12170182Y-12383984D02*
X12151134Y-12383984D01*
X12151134Y-12383984D02*
X12132086Y-12374460D01*
X12132086Y-12374460D02*
X12122563Y-12364936D01*
X12122563Y-12364936D02*
X12113039Y-12345888D01*
X12113039Y-12345888D02*
X12103515Y-12307793D01*
X12103515Y-12307793D02*
X12103515Y-12260174D01*
X12103515Y-12260174D02*
X12113039Y-12222079D01*
X12113039Y-12222079D02*
X12122563Y-12203031D01*
X12122563Y-12203031D02*
X12132086Y-12193508D01*
X12132086Y-12193508D02*
X12151134Y-12183984D01*
X12303515Y-12364936D02*
X12313039Y-12374460D01*
X12313039Y-12374460D02*
X12303515Y-12383984D01*
X12303515Y-12383984D02*
X12293991Y-12374460D01*
X12293991Y-12374460D02*
X12303515Y-12364936D01*
X12303515Y-12364936D02*
X12303515Y-12383984D01*
X12436848Y-12183984D02*
X12455896Y-12183984D01*
X12455896Y-12183984D02*
X12474944Y-12193508D01*
X12474944Y-12193508D02*
X12484467Y-12203031D01*
X12484467Y-12203031D02*
X12493991Y-12222079D01*
X12493991Y-12222079D02*
X12503515Y-12260174D01*
X12503515Y-12260174D02*
X12503515Y-12307793D01*
X12503515Y-12307793D02*
X12493991Y-12345888D01*
X12493991Y-12345888D02*
X12484467Y-12364936D01*
X12484467Y-12364936D02*
X12474944Y-12374460D01*
X12474944Y-12374460D02*
X12455896Y-12383984D01*
X12455896Y-12383984D02*
X12436848Y-12383984D01*
X12436848Y-12383984D02*
X12417801Y-12374460D01*
X12417801Y-12374460D02*
X12408277Y-12364936D01*
X12408277Y-12364936D02*
X12398753Y-12345888D01*
X12398753Y-12345888D02*
X12389229Y-12307793D01*
X12389229Y-12307793D02*
X12389229Y-12260174D01*
X12389229Y-12260174D02*
X12398753Y-12222079D01*
X12398753Y-12222079D02*
X12408277Y-12203031D01*
X12408277Y-12203031D02*
X12417801Y-12193508D01*
X12417801Y-12193508D02*
X12436848Y-12183984D01*
X12684467Y-12183984D02*
X12589229Y-12183984D01*
X12589229Y-12183984D02*
X12579706Y-12279222D01*
X12579706Y-12279222D02*
X12589229Y-12269698D01*
X12589229Y-12269698D02*
X12608277Y-12260174D01*
X12608277Y-12260174D02*
X12655896Y-12260174D01*
X12655896Y-12260174D02*
X12674944Y-12269698D01*
X12674944Y-12269698D02*
X12684467Y-12279222D01*
X12684467Y-12279222D02*
X12693991Y-12298269D01*
X12693991Y-12298269D02*
X12693991Y-12345888D01*
X12693991Y-12345888D02*
X12684467Y-12364936D01*
X12684467Y-12364936D02*
X12674944Y-12374460D01*
X12674944Y-12374460D02*
X12655896Y-12383984D01*
X12655896Y-12383984D02*
X12608277Y-12383984D01*
X12608277Y-12383984D02*
X12589229Y-12374460D01*
X12589229Y-12374460D02*
X12579706Y-12364936D01*
X12817801Y-12183984D02*
X12836848Y-12183984D01*
X12836848Y-12183984D02*
X12855896Y-12193508D01*
X12855896Y-12193508D02*
X12865420Y-12203031D01*
X12865420Y-12203031D02*
X12874944Y-12222079D01*
X12874944Y-12222079D02*
X12884467Y-12260174D01*
X12884467Y-12260174D02*
X12884467Y-12307793D01*
X12884467Y-12307793D02*
X12874944Y-12345888D01*
X12874944Y-12345888D02*
X12865420Y-12364936D01*
X12865420Y-12364936D02*
X12855896Y-12374460D01*
X12855896Y-12374460D02*
X12836848Y-12383984D01*
X12836848Y-12383984D02*
X12817801Y-12383984D01*
X12817801Y-12383984D02*
X12798753Y-12374460D01*
X12798753Y-12374460D02*
X12789229Y-12364936D01*
X12789229Y-12364936D02*
X12779706Y-12345888D01*
X12779706Y-12345888D02*
X12770182Y-12307793D01*
X12770182Y-12307793D02*
X12770182Y-12260174D01*
X12770182Y-12260174D02*
X12779706Y-12222079D01*
X12779706Y-12222079D02*
X12789229Y-12203031D01*
X12789229Y-12203031D02*
X12798753Y-12193508D01*
X12798753Y-12193508D02*
X12817801Y-12183984D01*
X13008277Y-12183984D02*
X13027325Y-12183984D01*
X13027325Y-12183984D02*
X13046372Y-12193508D01*
X13046372Y-12193508D02*
X13055896Y-12203031D01*
X13055896Y-12203031D02*
X13065420Y-12222079D01*
X13065420Y-12222079D02*
X13074944Y-12260174D01*
X13074944Y-12260174D02*
X13074944Y-12307793D01*
X13074944Y-12307793D02*
X13065420Y-12345888D01*
X13065420Y-12345888D02*
X13055896Y-12364936D01*
X13055896Y-12364936D02*
X13046372Y-12374460D01*
X13046372Y-12374460D02*
X13027325Y-12383984D01*
X13027325Y-12383984D02*
X13008277Y-12383984D01*
X13008277Y-12383984D02*
X12989229Y-12374460D01*
X12989229Y-12374460D02*
X12979706Y-12364936D01*
X12979706Y-12364936D02*
X12970182Y-12345888D01*
X12970182Y-12345888D02*
X12960658Y-12307793D01*
X12960658Y-12307793D02*
X12960658Y-12260174D01*
X12960658Y-12260174D02*
X12970182Y-12222079D01*
X12970182Y-12222079D02*
X12979706Y-12203031D01*
X12979706Y-12203031D02*
X12989229Y-12193508D01*
X12989229Y-12193508D02*
X13008277Y-12183984D01*
X13151134Y-12183984D02*
X13151134Y-12222079D01*
X13227325Y-12183984D02*
X13227325Y-12222079D01*
X13522563Y-12460174D02*
X13513039Y-12450650D01*
X13513039Y-12450650D02*
X13493991Y-12422079D01*
X13493991Y-12422079D02*
X13484468Y-12403031D01*
X13484468Y-12403031D02*
X13474944Y-12374460D01*
X13474944Y-12374460D02*
X13465420Y-12326841D01*
X13465420Y-12326841D02*
X13465420Y-12288746D01*
X13465420Y-12288746D02*
X13474944Y-12241127D01*
X13474944Y-12241127D02*
X13484468Y-12212555D01*
X13484468Y-12212555D02*
X13493991Y-12193508D01*
X13493991Y-12193508D02*
X13513039Y-12164936D01*
X13513039Y-12164936D02*
X13522563Y-12155412D01*
X13703515Y-12383984D02*
X13589229Y-12383984D01*
X13646372Y-12383984D02*
X13646372Y-12183984D01*
X13646372Y-12183984D02*
X13627325Y-12212555D01*
X13627325Y-12212555D02*
X13608277Y-12231603D01*
X13608277Y-12231603D02*
X13589229Y-12241127D01*
X13779706Y-12203031D02*
X13789229Y-12193508D01*
X13789229Y-12193508D02*
X13808277Y-12183984D01*
X13808277Y-12183984D02*
X13855896Y-12183984D01*
X13855896Y-12183984D02*
X13874944Y-12193508D01*
X13874944Y-12193508D02*
X13884468Y-12203031D01*
X13884468Y-12203031D02*
X13893991Y-12222079D01*
X13893991Y-12222079D02*
X13893991Y-12241127D01*
X13893991Y-12241127D02*
X13884468Y-12269698D01*
X13884468Y-12269698D02*
X13770182Y-12383984D01*
X13770182Y-12383984D02*
X13893991Y-12383984D01*
X14132087Y-12383984D02*
X14132087Y-12183984D01*
X14217801Y-12383984D02*
X14217801Y-12279222D01*
X14217801Y-12279222D02*
X14208277Y-12260174D01*
X14208277Y-12260174D02*
X14189230Y-12250650D01*
X14189230Y-12250650D02*
X14160658Y-12250650D01*
X14160658Y-12250650D02*
X14141610Y-12260174D01*
X14141610Y-12260174D02*
X14132087Y-12269698D01*
X14341610Y-12383984D02*
X14322563Y-12374460D01*
X14322563Y-12374460D02*
X14313039Y-12364936D01*
X14313039Y-12364936D02*
X14303515Y-12345888D01*
X14303515Y-12345888D02*
X14303515Y-12288746D01*
X14303515Y-12288746D02*
X14313039Y-12269698D01*
X14313039Y-12269698D02*
X14322563Y-12260174D01*
X14322563Y-12260174D02*
X14341610Y-12250650D01*
X14341610Y-12250650D02*
X14370182Y-12250650D01*
X14370182Y-12250650D02*
X14389230Y-12260174D01*
X14389230Y-12260174D02*
X14398753Y-12269698D01*
X14398753Y-12269698D02*
X14408277Y-12288746D01*
X14408277Y-12288746D02*
X14408277Y-12345888D01*
X14408277Y-12345888D02*
X14398753Y-12364936D01*
X14398753Y-12364936D02*
X14389230Y-12374460D01*
X14389230Y-12374460D02*
X14370182Y-12383984D01*
X14370182Y-12383984D02*
X14341610Y-12383984D01*
X14522563Y-12383984D02*
X14503515Y-12374460D01*
X14503515Y-12374460D02*
X14493991Y-12355412D01*
X14493991Y-12355412D02*
X14493991Y-12183984D01*
X14674944Y-12374460D02*
X14655896Y-12383984D01*
X14655896Y-12383984D02*
X14617801Y-12383984D01*
X14617801Y-12383984D02*
X14598753Y-12374460D01*
X14598753Y-12374460D02*
X14589230Y-12355412D01*
X14589230Y-12355412D02*
X14589230Y-12279222D01*
X14589230Y-12279222D02*
X14598753Y-12260174D01*
X14598753Y-12260174D02*
X14617801Y-12250650D01*
X14617801Y-12250650D02*
X14655896Y-12250650D01*
X14655896Y-12250650D02*
X14674944Y-12260174D01*
X14674944Y-12260174D02*
X14684468Y-12279222D01*
X14684468Y-12279222D02*
X14684468Y-12298269D01*
X14684468Y-12298269D02*
X14589230Y-12317317D01*
X14760658Y-12374460D02*
X14779706Y-12383984D01*
X14779706Y-12383984D02*
X14817801Y-12383984D01*
X14817801Y-12383984D02*
X14836849Y-12374460D01*
X14836849Y-12374460D02*
X14846372Y-12355412D01*
X14846372Y-12355412D02*
X14846372Y-12345888D01*
X14846372Y-12345888D02*
X14836849Y-12326841D01*
X14836849Y-12326841D02*
X14817801Y-12317317D01*
X14817801Y-12317317D02*
X14789230Y-12317317D01*
X14789230Y-12317317D02*
X14770182Y-12307793D01*
X14770182Y-12307793D02*
X14760658Y-12288746D01*
X14760658Y-12288746D02*
X14760658Y-12279222D01*
X14760658Y-12279222D02*
X14770182Y-12260174D01*
X14770182Y-12260174D02*
X14789230Y-12250650D01*
X14789230Y-12250650D02*
X14817801Y-12250650D01*
X14817801Y-12250650D02*
X14836849Y-12260174D01*
X14913039Y-12460174D02*
X14922563Y-12450650D01*
X14922563Y-12450650D02*
X14941611Y-12422079D01*
X14941611Y-12422079D02*
X14951134Y-12403031D01*
X14951134Y-12403031D02*
X14960658Y-12374460D01*
X14960658Y-12374460D02*
X14970182Y-12326841D01*
X14970182Y-12326841D02*
X14970182Y-12288746D01*
X14970182Y-12288746D02*
X14960658Y-12241127D01*
X14960658Y-12241127D02*
X14951134Y-12212555D01*
X14951134Y-12212555D02*
X14941611Y-12193508D01*
X14941611Y-12193508D02*
X14922563Y-12164936D01*
X14922563Y-12164936D02*
X14913039Y-12155412D01*
X15274944Y-12460174D02*
X15265420Y-12450650D01*
X15265420Y-12450650D02*
X15246372Y-12422079D01*
X15246372Y-12422079D02*
X15236849Y-12403031D01*
X15236849Y-12403031D02*
X15227325Y-12374460D01*
X15227325Y-12374460D02*
X15217801Y-12326841D01*
X15217801Y-12326841D02*
X15217801Y-12288746D01*
X15217801Y-12288746D02*
X15227325Y-12241127D01*
X15227325Y-12241127D02*
X15236849Y-12212555D01*
X15236849Y-12212555D02*
X15246372Y-12193508D01*
X15246372Y-12193508D02*
X15265420Y-12164936D01*
X15265420Y-12164936D02*
X15274944Y-12155412D01*
X15351134Y-12250650D02*
X15351134Y-12383984D01*
X15351134Y-12269698D02*
X15360658Y-12260174D01*
X15360658Y-12260174D02*
X15379706Y-12250650D01*
X15379706Y-12250650D02*
X15408277Y-12250650D01*
X15408277Y-12250650D02*
X15427325Y-12260174D01*
X15427325Y-12260174D02*
X15436849Y-12279222D01*
X15436849Y-12279222D02*
X15436849Y-12383984D01*
X15560658Y-12383984D02*
X15541611Y-12374460D01*
X15541611Y-12374460D02*
X15532087Y-12364936D01*
X15532087Y-12364936D02*
X15522563Y-12345888D01*
X15522563Y-12345888D02*
X15522563Y-12288746D01*
X15522563Y-12288746D02*
X15532087Y-12269698D01*
X15532087Y-12269698D02*
X15541611Y-12260174D01*
X15541611Y-12260174D02*
X15560658Y-12250650D01*
X15560658Y-12250650D02*
X15589230Y-12250650D01*
X15589230Y-12250650D02*
X15608277Y-12260174D01*
X15608277Y-12260174D02*
X15617801Y-12269698D01*
X15617801Y-12269698D02*
X15627325Y-12288746D01*
X15627325Y-12288746D02*
X15627325Y-12345888D01*
X15627325Y-12345888D02*
X15617801Y-12364936D01*
X15617801Y-12364936D02*
X15608277Y-12374460D01*
X15608277Y-12374460D02*
X15589230Y-12383984D01*
X15589230Y-12383984D02*
X15560658Y-12383984D01*
X15684468Y-12250650D02*
X15760658Y-12250650D01*
X15713039Y-12183984D02*
X15713039Y-12355412D01*
X15713039Y-12355412D02*
X15722563Y-12374460D01*
X15722563Y-12374460D02*
X15741611Y-12383984D01*
X15741611Y-12383984D02*
X15760658Y-12383984D01*
X15979706Y-12250650D02*
X15979706Y-12450650D01*
X15979706Y-12260174D02*
X15998753Y-12250650D01*
X15998753Y-12250650D02*
X16036849Y-12250650D01*
X16036849Y-12250650D02*
X16055896Y-12260174D01*
X16055896Y-12260174D02*
X16065420Y-12269698D01*
X16065420Y-12269698D02*
X16074944Y-12288746D01*
X16074944Y-12288746D02*
X16074944Y-12345888D01*
X16074944Y-12345888D02*
X16065420Y-12364936D01*
X16065420Y-12364936D02*
X16055896Y-12374460D01*
X16055896Y-12374460D02*
X16036849Y-12383984D01*
X16036849Y-12383984D02*
X15998753Y-12383984D01*
X15998753Y-12383984D02*
X15979706Y-12374460D01*
X16189230Y-12383984D02*
X16170182Y-12374460D01*
X16170182Y-12374460D02*
X16160658Y-12355412D01*
X16160658Y-12355412D02*
X16160658Y-12183984D01*
X16351134Y-12383984D02*
X16351134Y-12279222D01*
X16351134Y-12279222D02*
X16341611Y-12260174D01*
X16341611Y-12260174D02*
X16322563Y-12250650D01*
X16322563Y-12250650D02*
X16284468Y-12250650D01*
X16284468Y-12250650D02*
X16265420Y-12260174D01*
X16351134Y-12374460D02*
X16332087Y-12383984D01*
X16332087Y-12383984D02*
X16284468Y-12383984D01*
X16284468Y-12383984D02*
X16265420Y-12374460D01*
X16265420Y-12374460D02*
X16255896Y-12355412D01*
X16255896Y-12355412D02*
X16255896Y-12336365D01*
X16255896Y-12336365D02*
X16265420Y-12317317D01*
X16265420Y-12317317D02*
X16284468Y-12307793D01*
X16284468Y-12307793D02*
X16332087Y-12307793D01*
X16332087Y-12307793D02*
X16351134Y-12298269D01*
X16417801Y-12250650D02*
X16493992Y-12250650D01*
X16446373Y-12183984D02*
X16446373Y-12355412D01*
X16446373Y-12355412D02*
X16455896Y-12374460D01*
X16455896Y-12374460D02*
X16474944Y-12383984D01*
X16474944Y-12383984D02*
X16493992Y-12383984D01*
X16636849Y-12374460D02*
X16617801Y-12383984D01*
X16617801Y-12383984D02*
X16579706Y-12383984D01*
X16579706Y-12383984D02*
X16560658Y-12374460D01*
X16560658Y-12374460D02*
X16551134Y-12355412D01*
X16551134Y-12355412D02*
X16551134Y-12279222D01*
X16551134Y-12279222D02*
X16560658Y-12260174D01*
X16560658Y-12260174D02*
X16579706Y-12250650D01*
X16579706Y-12250650D02*
X16617801Y-12250650D01*
X16617801Y-12250650D02*
X16636849Y-12260174D01*
X16636849Y-12260174D02*
X16646373Y-12279222D01*
X16646373Y-12279222D02*
X16646373Y-12298269D01*
X16646373Y-12298269D02*
X16551134Y-12317317D01*
X16817801Y-12383984D02*
X16817801Y-12183984D01*
X16817801Y-12374460D02*
X16798754Y-12383984D01*
X16798754Y-12383984D02*
X16760658Y-12383984D01*
X16760658Y-12383984D02*
X16741611Y-12374460D01*
X16741611Y-12374460D02*
X16732087Y-12364936D01*
X16732087Y-12364936D02*
X16722563Y-12345888D01*
X16722563Y-12345888D02*
X16722563Y-12288746D01*
X16722563Y-12288746D02*
X16732087Y-12269698D01*
X16732087Y-12269698D02*
X16741611Y-12260174D01*
X16741611Y-12260174D02*
X16760658Y-12250650D01*
X16760658Y-12250650D02*
X16798754Y-12250650D01*
X16798754Y-12250650D02*
X16817801Y-12260174D01*
X16893992Y-12460174D02*
X16903516Y-12450650D01*
X16903516Y-12450650D02*
X16922563Y-12422079D01*
X16922563Y-12422079D02*
X16932087Y-12403031D01*
X16932087Y-12403031D02*
X16941611Y-12374460D01*
X16941611Y-12374460D02*
X16951135Y-12326841D01*
X16951135Y-12326841D02*
X16951135Y-12288746D01*
X16951135Y-12288746D02*
X16941611Y-12241127D01*
X16941611Y-12241127D02*
X16932087Y-12212555D01*
X16932087Y-12212555D02*
X16922563Y-12193508D01*
X16922563Y-12193508D02*
X16903516Y-12164936D01*
X16903516Y-12164936D02*
X16893992Y-12155412D01*
X9947500Y-12556500D02*
G75*
G02*
X9747500Y-12556500I-100000J0D01*
G01*
X9747500Y-12556500D02*
G75*
G02*
X9947500Y-12556500I100000J0D01*
G01*
X10189229Y-12447984D02*
X10313039Y-12447984D01*
X10313039Y-12447984D02*
X10246372Y-12524174D01*
X10246372Y-12524174D02*
X10274944Y-12524174D01*
X10274944Y-12524174D02*
X10293991Y-12533698D01*
X10293991Y-12533698D02*
X10303515Y-12543222D01*
X10303515Y-12543222D02*
X10313039Y-12562269D01*
X10313039Y-12562269D02*
X10313039Y-12609888D01*
X10313039Y-12609888D02*
X10303515Y-12628936D01*
X10303515Y-12628936D02*
X10293991Y-12638460D01*
X10293991Y-12638460D02*
X10274944Y-12647984D01*
X10274944Y-12647984D02*
X10217801Y-12647984D01*
X10217801Y-12647984D02*
X10198753Y-12638460D01*
X10198753Y-12638460D02*
X10189229Y-12628936D01*
X10398753Y-12628936D02*
X10408277Y-12638460D01*
X10408277Y-12638460D02*
X10398753Y-12647984D01*
X10398753Y-12647984D02*
X10389229Y-12638460D01*
X10389229Y-12638460D02*
X10398753Y-12628936D01*
X10398753Y-12628936D02*
X10398753Y-12647984D01*
X10532086Y-12447984D02*
X10551134Y-12447984D01*
X10551134Y-12447984D02*
X10570182Y-12457508D01*
X10570182Y-12457508D02*
X10579705Y-12467031D01*
X10579705Y-12467031D02*
X10589229Y-12486079D01*
X10589229Y-12486079D02*
X10598753Y-12524174D01*
X10598753Y-12524174D02*
X10598753Y-12571793D01*
X10598753Y-12571793D02*
X10589229Y-12609888D01*
X10589229Y-12609888D02*
X10579705Y-12628936D01*
X10579705Y-12628936D02*
X10570182Y-12638460D01*
X10570182Y-12638460D02*
X10551134Y-12647984D01*
X10551134Y-12647984D02*
X10532086Y-12647984D01*
X10532086Y-12647984D02*
X10513039Y-12638460D01*
X10513039Y-12638460D02*
X10503515Y-12628936D01*
X10503515Y-12628936D02*
X10493991Y-12609888D01*
X10493991Y-12609888D02*
X10484467Y-12571793D01*
X10484467Y-12571793D02*
X10484467Y-12524174D01*
X10484467Y-12524174D02*
X10493991Y-12486079D01*
X10493991Y-12486079D02*
X10503515Y-12467031D01*
X10503515Y-12467031D02*
X10513039Y-12457508D01*
X10513039Y-12457508D02*
X10532086Y-12447984D01*
X10722563Y-12447984D02*
X10741610Y-12447984D01*
X10741610Y-12447984D02*
X10760658Y-12457508D01*
X10760658Y-12457508D02*
X10770182Y-12467031D01*
X10770182Y-12467031D02*
X10779705Y-12486079D01*
X10779705Y-12486079D02*
X10789229Y-12524174D01*
X10789229Y-12524174D02*
X10789229Y-12571793D01*
X10789229Y-12571793D02*
X10779705Y-12609888D01*
X10779705Y-12609888D02*
X10770182Y-12628936D01*
X10770182Y-12628936D02*
X10760658Y-12638460D01*
X10760658Y-12638460D02*
X10741610Y-12647984D01*
X10741610Y-12647984D02*
X10722563Y-12647984D01*
X10722563Y-12647984D02*
X10703515Y-12638460D01*
X10703515Y-12638460D02*
X10693991Y-12628936D01*
X10693991Y-12628936D02*
X10684467Y-12609888D01*
X10684467Y-12609888D02*
X10674944Y-12571793D01*
X10674944Y-12571793D02*
X10674944Y-12524174D01*
X10674944Y-12524174D02*
X10684467Y-12486079D01*
X10684467Y-12486079D02*
X10693991Y-12467031D01*
X10693991Y-12467031D02*
X10703515Y-12457508D01*
X10703515Y-12457508D02*
X10722563Y-12447984D01*
X10913039Y-12447984D02*
X10932086Y-12447984D01*
X10932086Y-12447984D02*
X10951134Y-12457508D01*
X10951134Y-12457508D02*
X10960658Y-12467031D01*
X10960658Y-12467031D02*
X10970182Y-12486079D01*
X10970182Y-12486079D02*
X10979705Y-12524174D01*
X10979705Y-12524174D02*
X10979705Y-12571793D01*
X10979705Y-12571793D02*
X10970182Y-12609888D01*
X10970182Y-12609888D02*
X10960658Y-12628936D01*
X10960658Y-12628936D02*
X10951134Y-12638460D01*
X10951134Y-12638460D02*
X10932086Y-12647984D01*
X10932086Y-12647984D02*
X10913039Y-12647984D01*
X10913039Y-12647984D02*
X10893991Y-12638460D01*
X10893991Y-12638460D02*
X10884467Y-12628936D01*
X10884467Y-12628936D02*
X10874944Y-12609888D01*
X10874944Y-12609888D02*
X10865420Y-12571793D01*
X10865420Y-12571793D02*
X10865420Y-12524174D01*
X10865420Y-12524174D02*
X10874944Y-12486079D01*
X10874944Y-12486079D02*
X10884467Y-12467031D01*
X10884467Y-12467031D02*
X10893991Y-12457508D01*
X10893991Y-12457508D02*
X10913039Y-12447984D01*
X11065420Y-12647984D02*
X11065420Y-12514650D01*
X11065420Y-12533698D02*
X11074944Y-12524174D01*
X11074944Y-12524174D02*
X11093991Y-12514650D01*
X11093991Y-12514650D02*
X11122563Y-12514650D01*
X11122563Y-12514650D02*
X11141610Y-12524174D01*
X11141610Y-12524174D02*
X11151134Y-12543222D01*
X11151134Y-12543222D02*
X11151134Y-12647984D01*
X11151134Y-12543222D02*
X11160658Y-12524174D01*
X11160658Y-12524174D02*
X11179705Y-12514650D01*
X11179705Y-12514650D02*
X11208277Y-12514650D01*
X11208277Y-12514650D02*
X11227324Y-12524174D01*
X11227324Y-12524174D02*
X11236848Y-12543222D01*
X11236848Y-12543222D02*
X11236848Y-12647984D01*
X11332086Y-12647984D02*
X11332086Y-12514650D01*
X11332086Y-12533698D02*
X11341610Y-12524174D01*
X11341610Y-12524174D02*
X11360658Y-12514650D01*
X11360658Y-12514650D02*
X11389229Y-12514650D01*
X11389229Y-12514650D02*
X11408277Y-12524174D01*
X11408277Y-12524174D02*
X11417801Y-12543222D01*
X11417801Y-12543222D02*
X11417801Y-12647984D01*
X11417801Y-12543222D02*
X11427324Y-12524174D01*
X11427324Y-12524174D02*
X11446372Y-12514650D01*
X11446372Y-12514650D02*
X11474943Y-12514650D01*
X11474943Y-12514650D02*
X11493991Y-12524174D01*
X11493991Y-12524174D02*
X11503515Y-12543222D01*
X11503515Y-12543222D02*
X11503515Y-12647984D01*
X11893991Y-12438460D02*
X11722563Y-12695603D01*
X12151134Y-12447984D02*
X12170182Y-12447984D01*
X12170182Y-12447984D02*
X12189229Y-12457508D01*
X12189229Y-12457508D02*
X12198753Y-12467031D01*
X12198753Y-12467031D02*
X12208277Y-12486079D01*
X12208277Y-12486079D02*
X12217801Y-12524174D01*
X12217801Y-12524174D02*
X12217801Y-12571793D01*
X12217801Y-12571793D02*
X12208277Y-12609888D01*
X12208277Y-12609888D02*
X12198753Y-12628936D01*
X12198753Y-12628936D02*
X12189229Y-12638460D01*
X12189229Y-12638460D02*
X12170182Y-12647984D01*
X12170182Y-12647984D02*
X12151134Y-12647984D01*
X12151134Y-12647984D02*
X12132086Y-12638460D01*
X12132086Y-12638460D02*
X12122563Y-12628936D01*
X12122563Y-12628936D02*
X12113039Y-12609888D01*
X12113039Y-12609888D02*
X12103515Y-12571793D01*
X12103515Y-12571793D02*
X12103515Y-12524174D01*
X12103515Y-12524174D02*
X12113039Y-12486079D01*
X12113039Y-12486079D02*
X12122563Y-12467031D01*
X12122563Y-12467031D02*
X12132086Y-12457508D01*
X12132086Y-12457508D02*
X12151134Y-12447984D01*
X12303515Y-12628936D02*
X12313039Y-12638460D01*
X12313039Y-12638460D02*
X12303515Y-12647984D01*
X12303515Y-12647984D02*
X12293991Y-12638460D01*
X12293991Y-12638460D02*
X12303515Y-12628936D01*
X12303515Y-12628936D02*
X12303515Y-12647984D01*
X12503515Y-12647984D02*
X12389229Y-12647984D01*
X12446372Y-12647984D02*
X12446372Y-12447984D01*
X12446372Y-12447984D02*
X12427325Y-12476555D01*
X12427325Y-12476555D02*
X12408277Y-12495603D01*
X12408277Y-12495603D02*
X12389229Y-12505127D01*
X12693991Y-12647984D02*
X12579706Y-12647984D01*
X12636848Y-12647984D02*
X12636848Y-12447984D01*
X12636848Y-12447984D02*
X12617801Y-12476555D01*
X12617801Y-12476555D02*
X12598753Y-12495603D01*
X12598753Y-12495603D02*
X12579706Y-12505127D01*
X12808277Y-12533698D02*
X12789229Y-12524174D01*
X12789229Y-12524174D02*
X12779706Y-12514650D01*
X12779706Y-12514650D02*
X12770182Y-12495603D01*
X12770182Y-12495603D02*
X12770182Y-12486079D01*
X12770182Y-12486079D02*
X12779706Y-12467031D01*
X12779706Y-12467031D02*
X12789229Y-12457508D01*
X12789229Y-12457508D02*
X12808277Y-12447984D01*
X12808277Y-12447984D02*
X12846372Y-12447984D01*
X12846372Y-12447984D02*
X12865420Y-12457508D01*
X12865420Y-12457508D02*
X12874944Y-12467031D01*
X12874944Y-12467031D02*
X12884467Y-12486079D01*
X12884467Y-12486079D02*
X12884467Y-12495603D01*
X12884467Y-12495603D02*
X12874944Y-12514650D01*
X12874944Y-12514650D02*
X12865420Y-12524174D01*
X12865420Y-12524174D02*
X12846372Y-12533698D01*
X12846372Y-12533698D02*
X12808277Y-12533698D01*
X12808277Y-12533698D02*
X12789229Y-12543222D01*
X12789229Y-12543222D02*
X12779706Y-12552746D01*
X12779706Y-12552746D02*
X12770182Y-12571793D01*
X12770182Y-12571793D02*
X12770182Y-12609888D01*
X12770182Y-12609888D02*
X12779706Y-12628936D01*
X12779706Y-12628936D02*
X12789229Y-12638460D01*
X12789229Y-12638460D02*
X12808277Y-12647984D01*
X12808277Y-12647984D02*
X12846372Y-12647984D01*
X12846372Y-12647984D02*
X12865420Y-12638460D01*
X12865420Y-12638460D02*
X12874944Y-12628936D01*
X12874944Y-12628936D02*
X12884467Y-12609888D01*
X12884467Y-12609888D02*
X12884467Y-12571793D01*
X12884467Y-12571793D02*
X12874944Y-12552746D01*
X12874944Y-12552746D02*
X12865420Y-12543222D01*
X12865420Y-12543222D02*
X12846372Y-12533698D01*
X13074944Y-12647984D02*
X12960658Y-12647984D01*
X13017801Y-12647984D02*
X13017801Y-12447984D01*
X13017801Y-12447984D02*
X12998753Y-12476555D01*
X12998753Y-12476555D02*
X12979706Y-12495603D01*
X12979706Y-12495603D02*
X12960658Y-12505127D01*
X13151134Y-12447984D02*
X13151134Y-12486079D01*
X13227325Y-12447984D02*
X13227325Y-12486079D01*
X13522563Y-12724174D02*
X13513039Y-12714650D01*
X13513039Y-12714650D02*
X13493991Y-12686079D01*
X13493991Y-12686079D02*
X13484468Y-12667031D01*
X13484468Y-12667031D02*
X13474944Y-12638460D01*
X13474944Y-12638460D02*
X13465420Y-12590841D01*
X13465420Y-12590841D02*
X13465420Y-12552746D01*
X13465420Y-12552746D02*
X13474944Y-12505127D01*
X13474944Y-12505127D02*
X13484468Y-12476555D01*
X13484468Y-12476555D02*
X13493991Y-12457508D01*
X13493991Y-12457508D02*
X13513039Y-12428936D01*
X13513039Y-12428936D02*
X13522563Y-12419412D01*
X13684468Y-12514650D02*
X13684468Y-12647984D01*
X13636848Y-12438460D02*
X13589229Y-12581317D01*
X13589229Y-12581317D02*
X13713039Y-12581317D01*
X13941610Y-12647984D02*
X13941610Y-12447984D01*
X14027325Y-12647984D02*
X14027325Y-12543222D01*
X14027325Y-12543222D02*
X14017801Y-12524174D01*
X14017801Y-12524174D02*
X13998753Y-12514650D01*
X13998753Y-12514650D02*
X13970182Y-12514650D01*
X13970182Y-12514650D02*
X13951134Y-12524174D01*
X13951134Y-12524174D02*
X13941610Y-12533698D01*
X14151134Y-12647984D02*
X14132087Y-12638460D01*
X14132087Y-12638460D02*
X14122563Y-12628936D01*
X14122563Y-12628936D02*
X14113039Y-12609888D01*
X14113039Y-12609888D02*
X14113039Y-12552746D01*
X14113039Y-12552746D02*
X14122563Y-12533698D01*
X14122563Y-12533698D02*
X14132087Y-12524174D01*
X14132087Y-12524174D02*
X14151134Y-12514650D01*
X14151134Y-12514650D02*
X14179706Y-12514650D01*
X14179706Y-12514650D02*
X14198753Y-12524174D01*
X14198753Y-12524174D02*
X14208277Y-12533698D01*
X14208277Y-12533698D02*
X14217801Y-12552746D01*
X14217801Y-12552746D02*
X14217801Y-12609888D01*
X14217801Y-12609888D02*
X14208277Y-12628936D01*
X14208277Y-12628936D02*
X14198753Y-12638460D01*
X14198753Y-12638460D02*
X14179706Y-12647984D01*
X14179706Y-12647984D02*
X14151134Y-12647984D01*
X14332087Y-12647984D02*
X14313039Y-12638460D01*
X14313039Y-12638460D02*
X14303515Y-12619412D01*
X14303515Y-12619412D02*
X14303515Y-12447984D01*
X14484468Y-12638460D02*
X14465420Y-12647984D01*
X14465420Y-12647984D02*
X14427325Y-12647984D01*
X14427325Y-12647984D02*
X14408277Y-12638460D01*
X14408277Y-12638460D02*
X14398753Y-12619412D01*
X14398753Y-12619412D02*
X14398753Y-12543222D01*
X14398753Y-12543222D02*
X14408277Y-12524174D01*
X14408277Y-12524174D02*
X14427325Y-12514650D01*
X14427325Y-12514650D02*
X14465420Y-12514650D01*
X14465420Y-12514650D02*
X14484468Y-12524174D01*
X14484468Y-12524174D02*
X14493991Y-12543222D01*
X14493991Y-12543222D02*
X14493991Y-12562269D01*
X14493991Y-12562269D02*
X14398753Y-12581317D01*
X14570182Y-12638460D02*
X14589230Y-12647984D01*
X14589230Y-12647984D02*
X14627325Y-12647984D01*
X14627325Y-12647984D02*
X14646372Y-12638460D01*
X14646372Y-12638460D02*
X14655896Y-12619412D01*
X14655896Y-12619412D02*
X14655896Y-12609888D01*
X14655896Y-12609888D02*
X14646372Y-12590841D01*
X14646372Y-12590841D02*
X14627325Y-12581317D01*
X14627325Y-12581317D02*
X14598753Y-12581317D01*
X14598753Y-12581317D02*
X14579706Y-12571793D01*
X14579706Y-12571793D02*
X14570182Y-12552746D01*
X14570182Y-12552746D02*
X14570182Y-12543222D01*
X14570182Y-12543222D02*
X14579706Y-12524174D01*
X14579706Y-12524174D02*
X14598753Y-12514650D01*
X14598753Y-12514650D02*
X14627325Y-12514650D01*
X14627325Y-12514650D02*
X14646372Y-12524174D01*
X14722563Y-12724174D02*
X14732087Y-12714650D01*
X14732087Y-12714650D02*
X14751134Y-12686079D01*
X14751134Y-12686079D02*
X14760658Y-12667031D01*
X14760658Y-12667031D02*
X14770182Y-12638460D01*
X14770182Y-12638460D02*
X14779706Y-12590841D01*
X14779706Y-12590841D02*
X14779706Y-12552746D01*
X14779706Y-12552746D02*
X14770182Y-12505127D01*
X14770182Y-12505127D02*
X14760658Y-12476555D01*
X14760658Y-12476555D02*
X14751134Y-12457508D01*
X14751134Y-12457508D02*
X14732087Y-12428936D01*
X14732087Y-12428936D02*
X14722563Y-12419412D01*
X15084468Y-12724174D02*
X15074944Y-12714650D01*
X15074944Y-12714650D02*
X15055896Y-12686079D01*
X15055896Y-12686079D02*
X15046372Y-12667031D01*
X15046372Y-12667031D02*
X15036849Y-12638460D01*
X15036849Y-12638460D02*
X15027325Y-12590841D01*
X15027325Y-12590841D02*
X15027325Y-12552746D01*
X15027325Y-12552746D02*
X15036849Y-12505127D01*
X15036849Y-12505127D02*
X15046372Y-12476555D01*
X15046372Y-12476555D02*
X15055896Y-12457508D01*
X15055896Y-12457508D02*
X15074944Y-12428936D01*
X15074944Y-12428936D02*
X15084468Y-12419412D01*
X15160658Y-12514650D02*
X15160658Y-12647984D01*
X15160658Y-12533698D02*
X15170182Y-12524174D01*
X15170182Y-12524174D02*
X15189230Y-12514650D01*
X15189230Y-12514650D02*
X15217801Y-12514650D01*
X15217801Y-12514650D02*
X15236849Y-12524174D01*
X15236849Y-12524174D02*
X15246372Y-12543222D01*
X15246372Y-12543222D02*
X15246372Y-12647984D01*
X15370182Y-12647984D02*
X15351134Y-12638460D01*
X15351134Y-12638460D02*
X15341611Y-12628936D01*
X15341611Y-12628936D02*
X15332087Y-12609888D01*
X15332087Y-12609888D02*
X15332087Y-12552746D01*
X15332087Y-12552746D02*
X15341611Y-12533698D01*
X15341611Y-12533698D02*
X15351134Y-12524174D01*
X15351134Y-12524174D02*
X15370182Y-12514650D01*
X15370182Y-12514650D02*
X15398753Y-12514650D01*
X15398753Y-12514650D02*
X15417801Y-12524174D01*
X15417801Y-12524174D02*
X15427325Y-12533698D01*
X15427325Y-12533698D02*
X15436849Y-12552746D01*
X15436849Y-12552746D02*
X15436849Y-12609888D01*
X15436849Y-12609888D02*
X15427325Y-12628936D01*
X15427325Y-12628936D02*
X15417801Y-12638460D01*
X15417801Y-12638460D02*
X15398753Y-12647984D01*
X15398753Y-12647984D02*
X15370182Y-12647984D01*
X15493992Y-12514650D02*
X15570182Y-12514650D01*
X15522563Y-12447984D02*
X15522563Y-12619412D01*
X15522563Y-12619412D02*
X15532087Y-12638460D01*
X15532087Y-12638460D02*
X15551134Y-12647984D01*
X15551134Y-12647984D02*
X15570182Y-12647984D01*
X15789230Y-12514650D02*
X15789230Y-12714650D01*
X15789230Y-12524174D02*
X15808277Y-12514650D01*
X15808277Y-12514650D02*
X15846373Y-12514650D01*
X15846373Y-12514650D02*
X15865420Y-12524174D01*
X15865420Y-12524174D02*
X15874944Y-12533698D01*
X15874944Y-12533698D02*
X15884468Y-12552746D01*
X15884468Y-12552746D02*
X15884468Y-12609888D01*
X15884468Y-12609888D02*
X15874944Y-12628936D01*
X15874944Y-12628936D02*
X15865420Y-12638460D01*
X15865420Y-12638460D02*
X15846373Y-12647984D01*
X15846373Y-12647984D02*
X15808277Y-12647984D01*
X15808277Y-12647984D02*
X15789230Y-12638460D01*
X15998753Y-12647984D02*
X15979706Y-12638460D01*
X15979706Y-12638460D02*
X15970182Y-12619412D01*
X15970182Y-12619412D02*
X15970182Y-12447984D01*
X16160658Y-12647984D02*
X16160658Y-12543222D01*
X16160658Y-12543222D02*
X16151134Y-12524174D01*
X16151134Y-12524174D02*
X16132087Y-12514650D01*
X16132087Y-12514650D02*
X16093992Y-12514650D01*
X16093992Y-12514650D02*
X16074944Y-12524174D01*
X16160658Y-12638460D02*
X16141611Y-12647984D01*
X16141611Y-12647984D02*
X16093992Y-12647984D01*
X16093992Y-12647984D02*
X16074944Y-12638460D01*
X16074944Y-12638460D02*
X16065420Y-12619412D01*
X16065420Y-12619412D02*
X16065420Y-12600365D01*
X16065420Y-12600365D02*
X16074944Y-12581317D01*
X16074944Y-12581317D02*
X16093992Y-12571793D01*
X16093992Y-12571793D02*
X16141611Y-12571793D01*
X16141611Y-12571793D02*
X16160658Y-12562269D01*
X16227325Y-12514650D02*
X16303515Y-12514650D01*
X16255896Y-12447984D02*
X16255896Y-12619412D01*
X16255896Y-12619412D02*
X16265420Y-12638460D01*
X16265420Y-12638460D02*
X16284468Y-12647984D01*
X16284468Y-12647984D02*
X16303515Y-12647984D01*
X16446373Y-12638460D02*
X16427325Y-12647984D01*
X16427325Y-12647984D02*
X16389230Y-12647984D01*
X16389230Y-12647984D02*
X16370182Y-12638460D01*
X16370182Y-12638460D02*
X16360658Y-12619412D01*
X16360658Y-12619412D02*
X16360658Y-12543222D01*
X16360658Y-12543222D02*
X16370182Y-12524174D01*
X16370182Y-12524174D02*
X16389230Y-12514650D01*
X16389230Y-12514650D02*
X16427325Y-12514650D01*
X16427325Y-12514650D02*
X16446373Y-12524174D01*
X16446373Y-12524174D02*
X16455896Y-12543222D01*
X16455896Y-12543222D02*
X16455896Y-12562269D01*
X16455896Y-12562269D02*
X16360658Y-12581317D01*
X16627325Y-12647984D02*
X16627325Y-12447984D01*
X16627325Y-12638460D02*
X16608277Y-12647984D01*
X16608277Y-12647984D02*
X16570182Y-12647984D01*
X16570182Y-12647984D02*
X16551134Y-12638460D01*
X16551134Y-12638460D02*
X16541611Y-12628936D01*
X16541611Y-12628936D02*
X16532087Y-12609888D01*
X16532087Y-12609888D02*
X16532087Y-12552746D01*
X16532087Y-12552746D02*
X16541611Y-12533698D01*
X16541611Y-12533698D02*
X16551134Y-12524174D01*
X16551134Y-12524174D02*
X16570182Y-12514650D01*
X16570182Y-12514650D02*
X16608277Y-12514650D01*
X16608277Y-12514650D02*
X16627325Y-12524174D01*
X16703515Y-12724174D02*
X16713039Y-12714650D01*
X16713039Y-12714650D02*
X16732087Y-12686079D01*
X16732087Y-12686079D02*
X16741611Y-12667031D01*
X16741611Y-12667031D02*
X16751134Y-12638460D01*
X16751134Y-12638460D02*
X16760658Y-12590841D01*
X16760658Y-12590841D02*
X16760658Y-12552746D01*
X16760658Y-12552746D02*
X16751134Y-12505127D01*
X16751134Y-12505127D02*
X16741611Y-12476555D01*
X16741611Y-12476555D02*
X16732087Y-12457508D01*
X16732087Y-12457508D02*
X16713039Y-12428936D01*
X16713039Y-12428936D02*
X16703515Y-12419412D01*
M02*
