%TF.GenerationSoftware,KiCad,Pcbnew,8.0.1*%
%TF.CreationDate,2024-11-23T22:58:24-06:00*%
%TF.ProjectId,BPS-ContactorPCB,4250532d-436f-46e7-9461-63746f725043,rev?*%
%TF.SameCoordinates,Original*%
%TF.FileFunction,Soldermask,Bot*%
%TF.FilePolarity,Negative*%
%FSLAX46Y46*%
G04 Gerber Fmt 4.6, Leading zero omitted, Abs format (unit mm)*
G04 Created by KiCad (PCBNEW 8.0.1) date 2024-11-23 22:58:24*
%MOMM*%
%LPD*%
G01*
G04 APERTURE LIST*
G04 Aperture macros list*
%AMRoundRect*
0 Rectangle with rounded corners*
0 $1 Rounding radius*
0 $2 $3 $4 $5 $6 $7 $8 $9 X,Y pos of 4 corners*
0 Add a 4 corners polygon primitive as box body*
4,1,4,$2,$3,$4,$5,$6,$7,$8,$9,$2,$3,0*
0 Add four circle primitives for the rounded corners*
1,1,$1+$1,$2,$3*
1,1,$1+$1,$4,$5*
1,1,$1+$1,$6,$7*
1,1,$1+$1,$8,$9*
0 Add four rect primitives between the rounded corners*
20,1,$1+$1,$2,$3,$4,$5,0*
20,1,$1+$1,$4,$5,$6,$7,0*
20,1,$1+$1,$6,$7,$8,$9,0*
20,1,$1+$1,$8,$9,$2,$3,0*%
G04 Aperture macros list end*
%ADD10C,3.000000*%
%ADD11C,1.270000*%
%ADD12C,1.700000*%
%ADD13RoundRect,0.250000X0.262500X0.450000X-0.262500X0.450000X-0.262500X-0.450000X0.262500X-0.450000X0*%
%ADD14RoundRect,0.150000X0.662500X0.150000X-0.662500X0.150000X-0.662500X-0.150000X0.662500X-0.150000X0*%
%ADD15RoundRect,0.250000X-0.262500X-0.450000X0.262500X-0.450000X0.262500X0.450000X-0.262500X0.450000X0*%
%ADD16RoundRect,0.250000X0.450000X-0.262500X0.450000X0.262500X-0.450000X0.262500X-0.450000X-0.262500X0*%
%ADD17RoundRect,0.150000X0.587500X0.150000X-0.587500X0.150000X-0.587500X-0.150000X0.587500X-0.150000X0*%
G04 APERTURE END LIST*
D10*
X103000000Y-113000000D03*
X103000000Y-83000000D03*
D11*
X107000000Y-107990000D03*
X116000000Y-107990000D03*
D12*
X110000000Y-109950000D03*
X113000000Y-109950000D03*
D11*
X107000000Y-84990000D03*
X116000000Y-84990000D03*
D12*
X110000000Y-86950000D03*
X113000000Y-86950000D03*
D11*
X122500000Y-108000000D03*
X137500000Y-108000000D03*
D12*
X125500000Y-109960000D03*
X128500000Y-109960000D03*
X131500000Y-109960000D03*
X134500000Y-109960000D03*
D11*
X122500000Y-96490000D03*
X137500000Y-96490000D03*
D12*
X125500000Y-98450000D03*
X128500000Y-98450000D03*
X131500000Y-98450000D03*
X134500000Y-98450000D03*
D11*
X107000000Y-96500000D03*
X116000000Y-96500000D03*
D12*
X110000000Y-98460000D03*
X113000000Y-98460000D03*
D11*
X122500000Y-84990000D03*
X137500000Y-84990000D03*
D12*
X125500000Y-86950000D03*
X128500000Y-86950000D03*
X131500000Y-86950000D03*
X134500000Y-86950000D03*
D10*
X141500000Y-83000000D03*
X141500000Y-113000000D03*
D13*
X103912500Y-103500000D03*
X102087500Y-103500000D03*
X142412500Y-92000000D03*
X140587500Y-92000000D03*
D14*
X135187500Y-91865000D03*
X135187500Y-93135000D03*
X128812500Y-93135000D03*
X128812500Y-91865000D03*
D15*
X140587500Y-96000000D03*
X142412500Y-96000000D03*
D16*
X112600000Y-104512500D03*
X112600000Y-102687500D03*
D17*
X107937500Y-102550000D03*
X107937500Y-104450000D03*
X106062500Y-103500000D03*
X108000000Y-91000000D03*
X108000000Y-92900000D03*
X106125000Y-91950000D03*
D13*
X103912500Y-92000000D03*
X102087500Y-92000000D03*
D15*
X140587500Y-105000000D03*
X142412500Y-105000000D03*
D16*
X112500000Y-92912500D03*
X112500000Y-91087500D03*
M02*
